{
	"asset":{
		"generator":"Khronos glTF Blender I/O v4.0.44",
		"version":"2.0"
	},
	"scene":0,
	"scenes":[
		{
			"name":"Scene",
			"nodes":[
				0,
				1,
				2,
				3,
				4,
				5
			]
		}
	],
	"nodes":[
		{
			"name":"Plane",
			"scale":[
				4.604833602905273,
				4.604833602905273,
				4.604833602905273
			],
			"translation":[
				0,
				5.281893730163574,
				0
			]
		},
		{
			"name":"Turbulence",
			"translation":[
				0,
				2.496502637863159,
				0
			]
		},
		{
			"mesh":0,
			"name":"Particle_sim_logo",
			"rotation":[
				0,
				0,
				0.9998438954353333,
				0.017670145258307457
			],
			"scale":[
				0.0191551074385643,
				0.030673500150442123,
				0.030673496425151825
			],
			"translation":[
				0.09282400459051132,
				1.8922955989837646,
				0
			]
		},
		{
			"mesh":1,
			"name":"Middle",
			"rotation":[
				0.7071068286895752,
				0,
				0,
				0.7071068286895752
			],
			"translation":[
				0,
				2.4915945529937744,
				0
			]
		},
		{
			"mesh":2,
			"name":"Icosphere",
			"scale":[
				0.05432423949241638,
				0.05432423949241638,
				0.05432423949241638
			],
			"translation":[
				8.650463104248047,
				0,
				0
			]
		},
		{
			"name":"Logo 2",
			"rotation":[
				0.7071068286895752,
				0,
				0,
				0.7071068286895752
			],
			"translation":[
				-0.0017638429999351501,
				2.514955520629883,
				0
			]
		}
	],
	"materials":[
		{
			"doubleSided":true,
			"name":"Material",
			"pbrMetallicRoughness":{}
		}
	],
	"meshes":[
		{
			"name":"Cube.002",
			"primitives":[
				{
					"attributes":{
						"POSITION":0,
						"NORMAL":1,
						"TEXCOORD_0":2
					},
					"indices":3
				}
			]
		},
		{
			"name":"Cylinder.003",
			"primitives":[
				{
					"attributes":{
						"POSITION":4,
						"NORMAL":5,
						"TEXCOORD_0":6
					},
					"indices":7,
					"material":0
				}
			]
		},
		{
			"name":"Icosphere.003",
			"primitives":[
				{
					"attributes":{
						"POSITION":8,
						"NORMAL":9,
						"TEXCOORD_0":10
					},
					"indices":11,
					"material":0
				}
			]
		}
	],
	"accessors":[
		{
			"bufferView":0,
			"componentType":5126,
			"count":17589,
			"max":[
				58.15834045410156,
				1.4458951950073242,
				1.0000312328338623
			],
			"min":[
				-46.487579345703125,
				-41.77879333496094,
				-8.856779098510742
			],
			"type":"VEC3"
		},
		{
			"bufferView":1,
			"componentType":5126,
			"count":17589,
			"type":"VEC3"
		},
		{
			"bufferView":2,
			"componentType":5126,
			"count":17589,
			"type":"VEC2"
		},
		{
			"bufferView":3,
			"componentType":5123,
			"count":34977,
			"type":"SCALAR"
		},
		{
			"bufferView":4,
			"componentType":5126,
			"count":6277,
			"max":[
				1.0253742933273315,
				0.17721490561962128,
				0.6507160067558289
			],
			"min":[
				-1.0403614044189453,
				-0.17721490561962128,
				-0.6525627970695496
			],
			"type":"VEC3"
		},
		{
			"bufferView":5,
			"componentType":5126,
			"count":6277,
			"type":"VEC3"
		},
		{
			"bufferView":6,
			"componentType":5126,
			"count":6277,
			"type":"VEC2"
		},
		{
			"bufferView":7,
			"componentType":5123,
			"count":28104,
			"type":"SCALAR"
		},
		{
			"bufferView":8,
			"componentType":5126,
			"count":240,
			"max":[
				0.9510578513145447,
				1,
				0.9999999403953552
			],
			"min":[
				-0.9510578513145447,
				-1,
				-0.9999999403953552
			],
			"type":"VEC3"
		},
		{
			"bufferView":9,
			"componentType":5126,
			"count":240,
			"type":"VEC3"
		},
		{
			"bufferView":10,
			"componentType":5126,
			"count":240,
			"type":"VEC2"
		},
		{
			"bufferView":11,
			"componentType":5123,
			"count":240,
			"type":"SCALAR"
		}
	],
	"bufferViews":[
		{
			"buffer":0,
			"byteLength":211068,
			"byteOffset":0,
			"target":34962
		},
		{
			"buffer":0,
			"byteLength":211068,
			"byteOffset":211068,
			"target":34962
		},
		{
			"buffer":0,
			"byteLength":140712,
			"byteOffset":422136,
			"target":34962
		},
		{
			"buffer":0,
			"byteLength":69954,
			"byteOffset":562848,
			"target":34963
		},
		{
			"buffer":0,
			"byteLength":75324,
			"byteOffset":632804,
			"target":34962
		},
		{
			"buffer":0,
			"byteLength":75324,
			"byteOffset":708128,
			"target":34962
		},
		{
			"buffer":0,
			"byteLength":50216,
			"byteOffset":783452,
			"target":34962
		},
		{
			"buffer":0,
			"byteLength":56208,
			"byteOffset":833668,
			"target":34963
		},
		{
			"buffer":0,
			"byteLength":2880,
			"byteOffset":889876,
			"target":34962
		},
		{
			"buffer":0,
			"byteLength":2880,
			"byteOffset":892756,
			"target":34962
		},
		{
			"buffer":0,
			"byteLength":1920,
			"byteOffset":895636,
			"target":34962
		},
		{
			"buffer":0,
			"byteLength":480,
			"byteOffset":897556,
			"target":34963
		}
	],
	"buffers":[
		{
			"byteLength":898036,
			"uri":"bulk%20beings3.bin"
		}
	]
}
