<?xml version='1.0' encoding='ascii'?>
<svg xmlns="http://www.w3.org/2000/svg" version="1.1" width="1920" height="1080">
    <g id="ViewLayer_LineSet" xmlns:inkscape="http://www.inkscape.org/namespaces/inkscape" inkscape:groupmode="lineset" inkscape:label="ViewLayer_LineSet">
        <g xmlns:inkscape="http://www.inkscape.org/namespaces/inkscape" inkscape:groupmode="layer" id="strokes" inkscape:label="strokes">
            <path fill="none" stroke-width="3.0" stroke-linecap="butt" stroke-opacity="1.0" stroke="rgb(0, 0, 0)" stroke-linejoin="round" d=" M 396.384, 721.959 419.652, 713.669 442.919, 705.380 463.303, 698.118 " />
            <path fill="none" stroke-width="3.0" stroke-linecap="butt" stroke-opacity="1.0" stroke="rgb(0, 0, 0)" stroke-linejoin="round" d=" M 463.303, 698.118 438.607, 698.567 413.911, 699.015 389.215, 699.464 364.519, 699.913 345.872, 700.251 " />
            <path fill="none" stroke-width="3.0" stroke-linecap="butt" stroke-opacity="1.0" stroke="rgb(0, 0, 0)" stroke-linejoin="round" d=" M 345.872, 700.251 368.565, 710.004 391.258, 719.756 396.384, 721.959 " />
            <path fill="none" stroke-width="3.0" stroke-linecap="butt" stroke-opacity="1.0" stroke="rgb(0, 0, 0)" stroke-linejoin="round" d=" M 511.979, 624.403 498.369, 645.015 484.758, 665.627 471.147, 686.238 463.303, 698.118 " />
            <path fill="none" stroke-width="3.0" stroke-linecap="butt" stroke-opacity="1.0" stroke="rgb(0, 0, 0)" stroke-linejoin="round" d=" M 463.303, 698.118 483.435, 683.808 503.567, 669.497 523.699, 655.187 543.831, 640.877 551.167, 635.662 " />
            <path fill="none" stroke-width="3.0" stroke-linecap="butt" stroke-opacity="1.0" stroke="rgb(0, 0, 0)" stroke-linejoin="round" d=" M 551.167, 635.662 527.428, 628.842 511.979, 624.403 " />
            <path fill="none" stroke-width="3.0" stroke-linecap="butt" stroke-opacity="1.0" stroke="rgb(0, 0, 0)" stroke-linejoin="round" d=" M 345.872, 700.251 321.351, 697.282 300.723, 694.784 " />
            <path fill="none" stroke-width="3.0" stroke-linecap="butt" stroke-opacity="1.0" stroke="rgb(0, 0, 0)" stroke-linejoin="round" d=" M 300.723, 694.784 324.483, 701.533 348.243, 708.283 372.003, 715.033 396.384, 721.959 419.717, 713.854 443.049, 705.749 466.381, 697.644 483.816, 691.588 502.819, 675.809 521.822, 660.030 540.825, 644.250 551.167, 635.662 557.723, 611.848 564.279, 588.034 570.835, 564.220 577.503, 540.000 572.064, 515.906 566.625, 491.813 561.186, 467.719 559.133, 458.625 542.470, 440.392 525.807, 422.159 509.144, 403.927 492.046, 385.216 468.286, 378.467 444.526, 371.717 420.766, 364.967 396.384, 358.041 372.487, 364.288 348.590, 370.535 324.694, 376.782 305.186, 381.882 287.565, 399.190 269.944, 416.499 252.322, 433.807 241.601, 444.338 233.300, 467.601 224.998, 490.864 216.696, 514.127 208.395, 537.390 207.463, 540.000 215.026, 563.514 222.589, 587.028 230.151, 610.541 233.636, 621.375 246.831, 639.041 263.999, 656.799 281.168, 674.557 298.336, 692.315 300.723, 694.784 " />
            <path fill="none" stroke-width="3.0" stroke-linecap="butt" stroke-opacity="1.0" stroke="rgb(0, 0, 0)" stroke-linejoin="round" d=" M 551.167, 635.662 553.699, 611.092 556.231, 586.523 558.763, 561.953 561.025, 540.000 " />
            <path fill="none" stroke-width="3.0" stroke-linecap="butt" stroke-opacity="1.0" stroke="rgb(0, 0, 0)" stroke-linejoin="round" d=" M 561.025, 540.000 548.615, 561.356 536.206, 582.712 523.796, 604.069 511.979, 624.403 " />
            <path fill="none" stroke-width="3.0" stroke-linecap="butt" stroke-opacity="1.0" stroke="rgb(0, 0, 0)" stroke-linejoin="round" d=" M 308.264, 626.390 332.724, 629.825 357.184, 633.261 381.644, 636.696 406.104, 640.132 414.079, 641.252 " />
            <path fill="none" stroke-width="3.0" stroke-linecap="butt" stroke-opacity="1.0" stroke="rgb(0, 0, 0)" stroke-linejoin="round" d=" M 414.079, 641.252 401.649, 619.908 389.218, 598.564 376.787, 577.220 364.356, 555.876 355.110, 540.000 " />
            <path fill="none" stroke-width="3.0" stroke-linecap="butt" stroke-opacity="1.0" stroke="rgb(0, 0, 0)" stroke-linejoin="round" d=" M 355.110, 540.000 343.336, 561.713 331.562, 583.426 319.787, 605.139 308.264, 626.390 " />
            <path fill="none" stroke-width="3.0" stroke-linecap="butt" stroke-opacity="1.0" stroke="rgb(0, 0, 0)" stroke-linejoin="round" d=" M 246.831, 639.041 237.707, 616.088 228.584, 593.135 219.460, 570.182 210.337, 547.228 207.463, 540.000 " />
            <path fill="none" stroke-width="3.0" stroke-linecap="butt" stroke-opacity="1.0" stroke="rgb(0, 0, 0)" stroke-linejoin="round" d=" M 561.025, 540.000 536.325, 540.000 511.625, 540.000 486.925, 540.000 476.655, 540.000 " />
            <path fill="none" stroke-width="3.0" stroke-linecap="butt" stroke-opacity="1.0" stroke="rgb(0, 0, 0)" stroke-linejoin="round" d=" M 476.655, 540.000 486.191, 562.785 495.727, 585.570 505.263, 608.355 511.979, 624.403 487.637, 628.593 463.295, 632.782 438.953, 636.971 414.079, 641.252 " />
            <path fill="none" stroke-width="3.0" stroke-linecap="butt" stroke-opacity="1.0" stroke="rgb(0, 0, 0)" stroke-linejoin="round" d=" M 355.110, 540.000 330.410, 540.000 305.710, 540.000 281.010, 540.000 256.310, 540.000 250.251, 540.000 " />
            <path fill="none" stroke-width="3.0" stroke-linecap="butt" stroke-opacity="1.0" stroke="rgb(0, 0, 0)" stroke-linejoin="round" d=" M 250.251, 540.000 264.021, 560.506 277.791, 581.011 291.561, 601.517 305.331, 622.022 308.264, 626.390 " />
            <path fill="none" stroke-width="3.0" stroke-linecap="butt" stroke-opacity="1.0" stroke="rgb(0, 0, 0)" stroke-linejoin="round" d=" M 415.044, 453.610 439.509, 450.212 463.975, 446.813 488.440, 443.415 506.121, 440.959 " />
            <path fill="none" stroke-width="3.0" stroke-linecap="butt" stroke-opacity="1.0" stroke="rgb(0, 0, 0)" stroke-linejoin="round" d=" M 506.121, 440.959 485.110, 427.973 464.099, 414.988 443.088, 402.002 422.077, 389.017 407.081, 379.749 " />
            <path fill="none" stroke-width="3.0" stroke-linecap="butt" stroke-opacity="1.0" stroke="rgb(0, 0, 0)" stroke-linejoin="round" d=" M 407.081, 379.749 409.728, 404.306 412.376, 428.864 415.044, 453.610 " />
            <path fill="none" stroke-width="3.0" stroke-linecap="butt" stroke-opacity="1.0" stroke="rgb(0, 0, 0)" stroke-linejoin="round" d=" M 238.848, 455.597 262.931, 450.112 287.015, 444.627 311.098, 439.142 312.828, 438.748 " />
            <path fill="none" stroke-width="3.0" stroke-linecap="butt" stroke-opacity="1.0" stroke="rgb(0, 0, 0)" stroke-linejoin="round" d=" M 312.828, 438.748 309.538, 414.268 306.249, 389.788 305.186, 381.882 " />
            <path fill="none" stroke-width="3.0" stroke-linecap="butt" stroke-opacity="1.0" stroke="rgb(0, 0, 0)" stroke-linejoin="round" d=" M 407.081, 379.749 382.386, 380.266 357.691, 380.783 332.997, 381.300 308.302, 381.817 305.186, 381.882 288.663, 400.242 272.141, 418.602 255.618, 436.962 238.848, 455.597 " />
            <path fill="none" stroke-width="3.0" stroke-linecap="butt" stroke-opacity="1.0" stroke="rgb(0, 0, 0)" stroke-linejoin="round" d=" M 241.601, 444.338 238.848, 455.597 " />
            <path fill="none" stroke-width="3.0" stroke-linecap="butt" stroke-opacity="1.0" stroke="rgb(0, 0, 0)" stroke-linejoin="round" d=" M 407.081, 379.749 396.384, 358.041 " />
            <path fill="none" stroke-width="3.0" stroke-linecap="butt" stroke-opacity="1.0" stroke="rgb(0, 0, 0)" stroke-linejoin="round" d=" M 312.828, 438.748 333.764, 425.642 354.700, 412.537 375.637, 399.431 396.573, 386.326 407.081, 379.749 431.730, 381.335 456.379, 382.921 481.028, 384.507 492.046, 385.216 498.093, 409.165 504.140, 433.113 506.121, 440.959 " />
            <path fill="none" stroke-width="3.0" stroke-linecap="butt" stroke-opacity="1.0" stroke="rgb(0, 0, 0)" stroke-linejoin="round" d=" M 312.828, 438.748 337.270, 442.302 361.713, 445.856 386.156, 449.410 410.599, 452.964 415.044, 453.610 " />
            <path fill="none" stroke-width="3.0" stroke-linecap="butt" stroke-opacity="1.0" stroke="rgb(0, 0, 0)" stroke-linejoin="round" d=" M 506.121, 440.959 529.555, 448.768 552.987, 456.577 559.133, 458.625 559.707, 483.318 560.281, 508.012 560.856, 532.705 561.025, 540.000 " />
            <path fill="none" stroke-width="3.0" stroke-linecap="butt" stroke-opacity="1.0" stroke="rgb(0, 0, 0)" stroke-linejoin="round" d=" M 250.251, 540.000 225.551, 540.000 207.463, 540.000 216.072, 516.849 224.681, 493.697 233.289, 470.546 238.848, 455.597 242.155, 480.074 245.462, 504.552 248.769, 529.029 250.251, 540.000 " />
            <path fill="none" stroke-width="3.0" stroke-linecap="butt" stroke-opacity="1.0" stroke="rgb(0, 0, 0)" stroke-linejoin="round" d=" M 246.831, 639.041 247.683, 614.356 248.536, 589.671 249.389, 564.985 250.251, 540.000 263.237, 518.989 276.222, 497.978 289.208, 476.966 302.193, 455.955 312.828, 438.748 322.346, 461.540 331.864, 484.333 341.382, 507.125 350.900, 529.918 355.110, 540.000 " />
            <path fill="none" stroke-width="3.0" stroke-linecap="butt" stroke-opacity="1.0" stroke="rgb(0, 0, 0)" stroke-linejoin="round" d=" M 476.655, 540.000 451.955, 540.000 427.255, 540.000 402.555, 540.000 377.855, 540.000 355.110, 540.000 369.189, 519.706 383.269, 499.411 397.348, 479.117 411.428, 458.823 415.044, 453.610 429.386, 473.720 443.728, 493.830 458.070, 513.939 472.411, 534.049 476.655, 540.000 " />
            <path fill="none" stroke-width="3.0" stroke-linecap="butt" stroke-opacity="1.0" stroke="rgb(0, 0, 0)" stroke-linejoin="round" d=" M 414.079, 641.252 427.065, 620.241 440.050, 599.230 453.035, 578.218 466.021, 557.207 476.655, 540.000 483.699, 516.326 490.742, 492.651 497.786, 468.977 504.829, 445.302 506.121, 440.959 518.097, 462.561 530.072, 484.164 542.048, 505.767 554.023, 527.370 561.025, 540.000 577.503, 540.000 " />
            <path fill="none" stroke-width="3.0" stroke-linecap="butt" stroke-opacity="1.0" stroke="rgb(0, 0, 0)" stroke-linejoin="round" d=" M 483.816, 691.588 463.303, 698.118 447.137, 679.443 430.972, 660.767 414.806, 642.092 414.079, 641.252 395.398, 657.411 376.718, 673.570 358.037, 689.729 345.872, 700.251 324.861, 687.266 303.850, 674.280 282.839, 661.295 261.827, 648.310 246.831, 639.041 271.023, 634.059 295.216, 629.077 308.264, 626.390 319.471, 648.401 330.679, 670.412 341.886, 692.423 345.872, 700.251 " />
            <path fill="none" stroke-width="3.0" stroke-linecap="butt" stroke-opacity="1.0" stroke="rgb(0, 0, 0)" stroke-linejoin="round" d=" M 1488.137, 721.959 1512.021, 715.662 1535.905, 709.366 1559.789, 703.069 1578.571, 698.118 1596.296, 680.915 1614.020, 663.712 1631.744, 646.509 1642.920, 635.662 1651.056, 612.341 1659.193, 589.019 1667.329, 565.698 1675.465, 542.376 1676.294, 540.000 1668.932, 516.423 1661.571, 492.845 1654.209, 469.268 1650.886, 458.625 1636.438, 440.959 1619.479, 423.000 1602.521, 405.042 1585.562, 387.084 1583.798, 385.216 1560.039, 378.467 1536.279, 371.717 1512.519, 364.967 1488.137, 358.041 1464.826, 366.207 1441.515, 374.373 1418.204, 382.539 1401.438, 388.412 1382.352, 404.090 1363.266, 419.768 1344.179, 435.446 1333.354, 444.338 1326.969, 468.198 1320.583, 492.058 1314.197, 515.918 1307.751, 540.000 1312.983, 564.140 1318.215, 588.279 1323.447, 612.419 1325.389, 621.375 1342.051, 639.608 1358.714, 657.841 1375.377, 676.074 1392.476, 694.784 1416.236, 701.533 1439.996, 708.283 1463.756, 715.033 1488.137, 721.959 " />
            <path fill="none" stroke-width="3.0" stroke-linecap="butt" stroke-opacity="1.0" stroke="rgb(0, 0, 0)" stroke-linejoin="round" d=" M 1578.571, 698.118 1553.877, 698.633 1529.182, 699.147 1504.487, 699.662 1479.793, 700.176 1476.188, 700.251 " />
            <path fill="none" stroke-width="3.0" stroke-linecap="butt" stroke-opacity="1.0" stroke="rgb(0, 0, 0)" stroke-linejoin="round" d=" M 1476.188, 700.251 1488.137, 721.959 " />
            <path fill="none" stroke-width="3.0" stroke-linecap="butt" stroke-opacity="1.0" stroke="rgb(0, 0, 0)" stroke-linejoin="round" d=" M 1644.354, 624.403 1627.908, 642.832 1611.462, 661.261 1595.016, 679.690 1578.571, 698.118 1574.731, 673.718 1570.891, 649.319 1569.621, 641.252 " />
            <path fill="none" stroke-width="3.0" stroke-linecap="butt" stroke-opacity="1.0" stroke="rgb(0, 0, 0)" stroke-linejoin="round" d=" M 1642.920, 635.662 1644.354, 624.403 " />
            <path fill="none" stroke-width="3.0" stroke-linecap="butt" stroke-opacity="1.0" stroke="rgb(0, 0, 0)" stroke-linejoin="round" d=" M 1476.188, 700.251 1451.540, 698.641 1426.893, 697.032 1402.245, 695.422 1392.476, 694.784 1385.927, 670.968 1379.377, 647.152 1377.147, 639.041 " />
            <path fill="none" stroke-width="3.0" stroke-linecap="butt" stroke-opacity="1.0" stroke="rgb(0, 0, 0)" stroke-linejoin="round" d=" M 1676.294, 540.000 1667.552, 563.101 1658.810, 586.202 1650.068, 609.304 1644.354, 624.403 " />
            <path fill="none" stroke-width="3.0" stroke-linecap="butt" stroke-opacity="1.0" stroke="rgb(0, 0, 0)" stroke-linejoin="round" d=" M 1467.291, 626.390 1491.735, 629.940 1516.178, 633.490 1540.622, 637.040 1565.065, 640.590 1569.621, 641.252 " />
            <path fill="none" stroke-width="3.0" stroke-linecap="butt" stroke-opacity="1.0" stroke="rgb(0, 0, 0)" stroke-linejoin="round" d=" M 1569.621, 641.252 1560.003, 618.502 1550.384, 595.751 1540.766, 573.001 1531.147, 550.251 1526.814, 540.000 " />
            <path fill="none" stroke-width="3.0" stroke-linecap="butt" stroke-opacity="1.0" stroke="rgb(0, 0, 0)" stroke-linejoin="round" d=" M 1526.814, 540.000 1512.800, 560.340 1498.786, 580.679 1484.772, 601.019 1470.758, 621.358 1467.291, 626.390 " />
            <path fill="none" stroke-width="3.0" stroke-linecap="butt" stroke-opacity="1.0" stroke="rgb(0, 0, 0)" stroke-linejoin="round" d=" M 1322.732, 540.000 1323.538, 564.687 1324.344, 589.374 1325.150, 614.061 1325.389, 621.375 1348.764, 629.354 1372.140, 637.332 1377.147, 639.041 " />
            <path fill="none" stroke-width="3.0" stroke-linecap="butt" stroke-opacity="1.0" stroke="rgb(0, 0, 0)" stroke-linejoin="round" d=" M 1377.147, 639.041 1365.253, 617.393 1353.360, 595.746 1341.466, 574.098 1329.572, 552.450 1322.732, 540.000 " />
            <path fill="none" stroke-width="3.0" stroke-linecap="butt" stroke-opacity="1.0" stroke="rgb(0, 0, 0)" stroke-linejoin="round" d=" M 1636.438, 440.959 1645.659, 463.873 1654.880, 486.787 1664.101, 509.701 1673.322, 532.615 1676.294, 540.000 1651.594, 540.000 1632.197, 540.000 " />
            <path fill="none" stroke-width="3.0" stroke-linecap="butt" stroke-opacity="1.0" stroke="rgb(0, 0, 0)" stroke-linejoin="round" d=" M 1632.197, 540.000 1635.719, 564.448 1639.240, 588.895 1642.761, 613.343 1644.354, 624.403 1620.258, 629.836 1596.163, 635.268 1572.068, 640.700 1569.621, 641.252 " />
            <path fill="none" stroke-width="3.0" stroke-linecap="butt" stroke-opacity="1.0" stroke="rgb(0, 0, 0)" stroke-linejoin="round" d=" M 1526.814, 540.000 1502.114, 540.000 1477.414, 540.000 1452.714, 540.000 1428.014, 540.000 1405.794, 540.000 " />
            <path fill="none" stroke-width="3.0" stroke-linecap="butt" stroke-opacity="1.0" stroke="rgb(0, 0, 0)" stroke-linejoin="round" d=" M 1405.794, 540.000 1420.118, 560.122 1434.442, 580.245 1448.766, 600.367 1463.091, 620.489 1467.291, 626.390 " />
            <path fill="none" stroke-width="3.0" stroke-linecap="butt" stroke-opacity="1.0" stroke="rgb(0, 0, 0)" stroke-linejoin="round" d=" M 1322.732, 540.000 1307.751, 540.000 " />
            <path fill="none" stroke-width="3.0" stroke-linecap="butt" stroke-opacity="1.0" stroke="rgb(0, 0, 0)" stroke-linejoin="round" d=" M 1574.072, 453.610 1598.278, 448.699 1622.485, 443.789 1636.438, 440.959 " />
            <path fill="none" stroke-width="3.0" stroke-linecap="butt" stroke-opacity="1.0" stroke="rgb(0, 0, 0)" stroke-linejoin="round" d=" M 1632.197, 540.000 1633.254, 515.323 1634.310, 490.645 1635.367, 465.968 1636.438, 440.959 1615.426, 427.973 1594.415, 414.988 1573.404, 402.002 1552.393, 389.017 1537.397, 379.749 " />
            <path fill="none" stroke-width="3.0" stroke-linecap="butt" stroke-opacity="1.0" stroke="rgb(0, 0, 0)" stroke-linejoin="round" d=" M 1537.397, 379.749 1548.381, 401.872 1559.366, 423.994 1570.351, 446.117 1574.072, 453.610 " />
            <path fill="none" stroke-width="3.0" stroke-linecap="butt" stroke-opacity="1.0" stroke="rgb(0, 0, 0)" stroke-linejoin="round" d=" M 1371.222, 455.597 1395.559, 451.376 1419.896, 447.155 1444.232, 442.934 1468.369, 438.748 " />
            <path fill="none" stroke-width="3.0" stroke-linecap="butt" stroke-opacity="1.0" stroke="rgb(0, 0, 0)" stroke-linejoin="round" d=" M 1468.369, 438.748 1452.454, 419.859 1436.538, 400.970 1420.455, 381.882 " />
            <path fill="none" stroke-width="3.0" stroke-linecap="butt" stroke-opacity="1.0" stroke="rgb(0, 0, 0)" stroke-linejoin="round" d=" M 1420.455, 381.882 1406.737, 402.422 1393.018, 422.962 1379.300, 443.502 1371.222, 455.597 " />
            <path fill="none" stroke-width="3.0" stroke-linecap="butt" stroke-opacity="1.0" stroke="rgb(0, 0, 0)" stroke-linejoin="round" d=" M 1401.438, 388.412 1420.455, 381.882 " />
            <path fill="none" stroke-width="3.0" stroke-linecap="butt" stroke-opacity="1.0" stroke="rgb(0, 0, 0)" stroke-linejoin="round" d=" M 1420.455, 381.882 1443.752, 373.676 1467.049, 365.469 1488.137, 358.041 1510.740, 368.002 1533.343, 377.962 1537.397, 379.749 " />
            <path fill="none" stroke-width="3.0" stroke-linecap="butt" stroke-opacity="1.0" stroke="rgb(0, 0, 0)" stroke-linejoin="round" d=" M 1333.354, 444.338 1353.427, 429.944 1373.500, 415.551 1393.573, 401.158 1413.646, 386.764 1420.455, 381.882 1445.151, 381.431 1469.847, 380.981 1494.543, 380.530 1519.238, 380.080 1537.397, 379.749 " />
            <path fill="none" stroke-width="3.0" stroke-linecap="butt" stroke-opacity="1.0" stroke="rgb(0, 0, 0)" stroke-linejoin="round" d=" M 1322.732, 540.000 1325.458, 515.451 1328.184, 490.902 1330.910, 466.353 1333.354, 444.338 1357.030, 451.377 1371.222, 455.597 " />
            <path fill="none" stroke-width="3.0" stroke-linecap="butt" stroke-opacity="1.0" stroke="rgb(0, 0, 0)" stroke-linejoin="round" d=" M 1468.369, 438.748 1487.145, 422.700 1505.921, 406.651 1524.697, 390.603 1537.397, 379.749 1561.927, 382.639 1583.798, 385.216 " />
            <path fill="none" stroke-width="3.0" stroke-linecap="butt" stroke-opacity="1.0" stroke="rgb(0, 0, 0)" stroke-linejoin="round" d=" M 1468.369, 438.748 1492.829, 442.187 1517.288, 445.626 1541.748, 449.065 1566.207, 452.504 1574.072, 453.610 " />
            <path fill="none" stroke-width="3.0" stroke-linecap="butt" stroke-opacity="1.0" stroke="rgb(0, 0, 0)" stroke-linejoin="round" d=" M 1405.794, 540.000 1381.094, 540.000 1356.394, 540.000 1331.694, 540.000 1322.732, 540.000 1335.036, 518.583 1347.341, 497.166 1359.645, 475.748 1371.222, 455.597 1380.584, 478.454 1389.947, 501.311 1399.309, 524.167 1405.794, 540.000 " />
            <path fill="none" stroke-width="3.0" stroke-linecap="butt" stroke-opacity="1.0" stroke="rgb(0, 0, 0)" stroke-linejoin="round" d=" M 1377.147, 639.041 1384.010, 615.314 1390.873, 591.586 1397.736, 567.859 1404.599, 544.132 1405.794, 540.000 1418.779, 518.989 1431.764, 497.978 1444.750, 476.966 1457.735, 455.955 1468.369, 438.748 1480.717, 460.140 1493.065, 481.532 1505.413, 502.924 1517.761, 524.316 1526.814, 540.000 " />
            <path fill="none" stroke-width="3.0" stroke-linecap="butt" stroke-opacity="1.0" stroke="rgb(0, 0, 0)" stroke-linejoin="round" d=" M 1476.188, 700.251 1497.073, 687.064 1517.957, 673.876 1538.842, 660.688 1559.727, 647.500 1569.621, 641.252 1582.607, 620.241 1595.592, 599.230 1608.578, 578.218 1621.563, 557.207 1632.197, 540.000 1607.497, 540.000 1582.797, 540.000 1558.097, 540.000 1533.397, 540.000 1526.814, 540.000 1538.668, 518.330 1550.521, 496.661 1562.375, 474.991 1574.072, 453.610 1587.860, 474.103 1601.648, 494.596 1615.437, 515.089 1629.225, 535.583 1632.197, 540.000 " />
            <path fill="none" stroke-width="3.0" stroke-linecap="butt" stroke-opacity="1.0" stroke="rgb(0, 0, 0)" stroke-linejoin="round" d=" M 1377.147, 639.041 1401.607, 635.608 1426.068, 632.176 1450.528, 628.743 1467.291, 626.390 1470.245, 650.913 1473.199, 675.435 1476.188, 700.251 1455.177, 687.266 1434.166, 674.280 1413.155, 661.295 1392.143, 648.309 1377.147, 639.041 " />
        </g>
    </g>
</svg>
