<svg width="1440" height="1024" viewBox="0 0 1440 1024" fill="none" xmlns="http://www.w3.org/2000/svg">
    <rect width="1440" height="1024" fill="white" />
    <circle cx="502.106" cy="16.7268" r="12.7268" fill="#D9D9D9" />
    <circle cx="502.107" cy="46.2516" r="11.7086" fill="#D9D9D9" />
    <circle cx="502.105" cy="73.7413" r="10.6905" fill="#D9D9D9" />
    <circle cx="502.106" cy="99.1958" r="9.67235" fill="#D9D9D9" />
    <circle cx="502.107" cy="122.615" r="8.65421" fill="#D9D9D9" />
    <circle cx="502.105" cy="143.995" r="7.63607" fill="#D9D9D9" />
    <circle cx="502.106" cy="163.341" r="6.61792" fill="#D9D9D9" />
    <circle cx="502.108" cy="180.647" r="5.59978" fill="#D9D9D9" />
    <circle cx="502.105" cy="195.921" r="4.58164" fill="#D9D9D9" />
    <circle cx="502.106" cy="209.157" r="3.5635" fill="#D9D9D9" />
    <circle cx="502.104" cy="220.354" r="2.54536" fill="#D9D9D9" />
    <circle cx="502.105" cy="229.519" r="1.52721" fill="#D9D9D9" />
    <circle cx="502.106" cy="236.645" r="0.508708" fill="#D9D9D9" />
    <circle cx="132.524" cy="16.7268" r="12.7268" fill="#D9D9D9" />
    <circle cx="132.525" cy="46.2516" r="11.7086" fill="#D9D9D9" />
    <circle cx="132.523" cy="73.7413" r="10.6905" fill="#D9D9D9" />
    <circle cx="132.524" cy="99.1958" r="9.67235" fill="#D9D9D9" />
    <circle cx="132.525" cy="122.615" r="8.65421" fill="#D9D9D9" />
    <circle cx="132.523" cy="143.995" r="7.63607" fill="#D9D9D9" />
    <circle cx="132.524" cy="163.341" r="6.61792" fill="#D9D9D9" />
    <circle cx="132.526" cy="180.647" r="5.59978" fill="#D9D9D9" />
    <circle cx="132.523" cy="195.921" r="4.58164" fill="#D9D9D9" />
    <circle cx="132.524" cy="209.157" r="3.5635" fill="#D9D9D9" />
    <circle cx="132.522" cy="220.354" r="2.54536" fill="#D9D9D9" />
    <circle cx="132.523" cy="229.519" r="1.52721" fill="#D9D9D9" />
    <circle cx="132.524" cy="236.645" r="0.508708" fill="#D9D9D9" />
    <circle cx="31.7268" cy="16.7268" r="12.7268" fill="#D9D9D9" />
    <circle cx="31.7282" cy="46.2516" r="11.7086" fill="#D9D9D9" />
    <circle cx="31.7257" cy="73.7413" r="10.6905" fill="#D9D9D9" />
    <circle cx="31.727" cy="99.1958" r="9.67235" fill="#D9D9D9" />
    <circle cx="31.7284" cy="122.615" r="8.65421" fill="#D9D9D9" />
    <circle cx="31.7259" cy="143.995" r="7.63607" fill="#D9D9D9" />
    <circle cx="31.7273" cy="163.341" r="6.61792" fill="#D9D9D9" />
    <circle cx="31.7287" cy="180.647" r="5.59978" fill="#D9D9D9" />
    <circle cx="31.7262" cy="195.921" r="4.58164" fill="#D9D9D9" />
    <circle cx="31.7276" cy="209.157" r="3.5635" fill="#D9D9D9" />
    <circle cx="31.725" cy="220.354" r="2.54536" fill="#D9D9D9" />
    <circle cx="31.7264" cy="229.519" r="1.52721" fill="#D9D9D9" />
    <circle cx="31.7275" cy="236.645" r="0.508708" fill="#D9D9D9" />
    <circle cx="166.121" cy="16.7268" r="12.7268" fill="#D9D9D9" />
    <circle cx="166.123" cy="46.2516" r="11.7086" fill="#D9D9D9" />
    <circle cx="166.12" cy="73.7413" r="10.6905" fill="#D9D9D9" />
    <circle cx="166.122" cy="99.1958" r="9.67235" fill="#D9D9D9" />
    <circle cx="166.123" cy="122.615" r="8.65421" fill="#D9D9D9" />
    <circle cx="166.12" cy="143.995" r="7.63607" fill="#D9D9D9" />
    <circle cx="166.122" cy="163.341" r="6.61792" fill="#D9D9D9" />
    <circle cx="166.123" cy="180.647" r="5.59978" fill="#D9D9D9" />
    <circle cx="166.121" cy="195.921" r="4.58164" fill="#D9D9D9" />
    <circle cx="166.122" cy="209.157" r="3.5635" fill="#D9D9D9" />
    <circle cx="166.123" cy="220.354" r="2.54536" fill="#D9D9D9" />
    <circle cx="166.121" cy="229.519" r="1.52721" fill="#D9D9D9" />
    <circle cx="166.122" cy="236.645" r="0.508708" fill="#D9D9D9" />
    <circle cx="535.707" cy="16.7268" r="12.7268" fill="#D9D9D9" />
    <circle cx="535.709" cy="46.2516" r="11.7086" fill="#D9D9D9" />
    <circle cx="535.706" cy="73.7413" r="10.6905" fill="#D9D9D9" />
    <circle cx="535.708" cy="99.1958" r="9.67235" fill="#D9D9D9" />
    <circle cx="535.709" cy="122.615" r="8.65421" fill="#D9D9D9" />
    <circle cx="535.706" cy="143.995" r="7.63607" fill="#D9D9D9" />
    <circle cx="535.708" cy="163.341" r="6.61792" fill="#D9D9D9" />
    <circle cx="535.705" cy="180.647" r="5.59978" fill="#D9D9D9" />
    <circle cx="535.707" cy="195.921" r="4.58164" fill="#D9D9D9" />
    <circle cx="535.708" cy="209.157" r="3.5635" fill="#D9D9D9" />
    <circle cx="535.706" cy="220.354" r="2.54536" fill="#D9D9D9" />
    <circle cx="535.707" cy="229.519" r="1.52721" fill="#D9D9D9" />
    <circle cx="535.708" cy="236.645" r="0.508708" fill="#D9D9D9" />
    <circle cx="199.723" cy="16.7268" r="12.7268" fill="#D9D9D9" />
    <circle cx="199.724" cy="46.2516" r="11.7086" fill="#D9D9D9" />
    <circle cx="199.722" cy="73.7413" r="10.6905" fill="#D9D9D9" />
    <circle cx="199.723" cy="99.1958" r="9.67235" fill="#D9D9D9" />
    <circle cx="199.725" cy="122.615" r="8.65421" fill="#D9D9D9" />
    <circle cx="199.722" cy="143.995" r="7.63607" fill="#D9D9D9" />
    <circle cx="199.723" cy="163.341" r="6.61792" fill="#D9D9D9" />
    <circle cx="199.725" cy="180.647" r="5.59978" fill="#D9D9D9" />
    <circle cx="199.722" cy="195.921" r="4.58164" fill="#D9D9D9" />
    <circle cx="199.724" cy="209.157" r="3.5635" fill="#D9D9D9" />
    <circle cx="199.721" cy="220.354" r="2.54536" fill="#D9D9D9" />
    <circle cx="199.723" cy="229.519" r="1.52721" fill="#D9D9D9" />
    <circle cx="199.724" cy="236.645" r="0.508708" fill="#D9D9D9" />
    <circle cx="65.3283" cy="16.7268" r="12.7268" fill="#D9D9D9" />
    <circle cx="65.3297" cy="46.2516" r="11.7086" fill="#D9D9D9" />
    <circle cx="65.3272" cy="73.7413" r="10.6905" fill="#D9D9D9" />
    <circle cx="65.3286" cy="99.1958" r="9.67235" fill="#D9D9D9" />
    <circle cx="65.33" cy="122.615" r="8.65421" fill="#D9D9D9" />
    <circle cx="65.3275" cy="143.995" r="7.63607" fill="#D9D9D9" />
    <circle cx="65.3289" cy="163.341" r="6.61792" fill="#D9D9D9" />
    <circle cx="65.3303" cy="180.647" r="5.59978" fill="#D9D9D9" />
    <circle cx="65.3277" cy="195.921" r="4.58164" fill="#D9D9D9" />
    <circle cx="65.3291" cy="209.157" r="3.5635" fill="#D9D9D9" />
    <circle cx="65.3266" cy="220.354" r="2.54536" fill="#D9D9D9" />
    <circle cx="65.328" cy="229.519" r="1.52721" fill="#D9D9D9" />
    <circle cx="65.329" cy="236.645" r="0.508708" fill="#D9D9D9" />
    <circle cx="569.305" cy="16.7268" r="12.7268" fill="#D9D9D9" />
    <circle cx="569.306" cy="46.2516" r="11.7086" fill="#D9D9D9" />
    <circle cx="569.304" cy="73.7413" r="10.6905" fill="#D9D9D9" />
    <circle cx="569.305" cy="99.1958" r="9.67235" fill="#D9D9D9" />
    <circle cx="569.307" cy="122.615" r="8.65421" fill="#D9D9D9" />
    <circle cx="569.304" cy="143.995" r="7.63607" fill="#D9D9D9" />
    <circle cx="569.305" cy="163.341" r="6.61792" fill="#D9D9D9" />
    <circle cx="569.307" cy="180.647" r="5.59978" fill="#D9D9D9" />
    <circle cx="569.304" cy="195.921" r="4.58164" fill="#D9D9D9" />
    <circle cx="569.306" cy="209.157" r="3.5635" fill="#D9D9D9" />
    <circle cx="569.303" cy="220.354" r="2.54536" fill="#D9D9D9" />
    <circle cx="569.305" cy="229.519" r="1.52721" fill="#D9D9D9" />
    <circle cx="569.306" cy="236.645" r="0.508708" fill="#D9D9D9" />
    <circle cx="98.9221" cy="16.7268" r="12.7268" fill="#D9D9D9" />
    <circle cx="98.9235" cy="46.2516" r="11.7086" fill="#D9D9D9" />
    <circle cx="98.921" cy="73.7413" r="10.6905" fill="#D9D9D9" />
    <circle cx="98.9223" cy="99.1958" r="9.67235" fill="#D9D9D9" />
    <circle cx="98.9237" cy="122.615" r="8.65421" fill="#D9D9D9" />
    <circle cx="98.9212" cy="143.995" r="7.63607" fill="#D9D9D9" />
    <circle cx="98.9226" cy="163.341" r="6.61792" fill="#D9D9D9" />
    <circle cx="98.924" cy="180.647" r="5.59978" fill="#D9D9D9" />
    <circle cx="98.9215" cy="195.921" r="4.58164" fill="#D9D9D9" />
    <circle cx="98.9229" cy="209.157" r="3.5635" fill="#D9D9D9" />
    <circle cx="98.9204" cy="220.354" r="2.54536" fill="#D9D9D9" />
    <circle cx="98.9217" cy="229.519" r="1.52721" fill="#D9D9D9" />
    <circle cx="98.9228" cy="236.645" r="0.508708" fill="#D9D9D9" />
    <circle cx="602.903" cy="16.7268" r="12.7268" fill="#D9D9D9" />
    <circle cx="602.904" cy="46.2516" r="11.7086" fill="#D9D9D9" />
    <circle cx="602.901" cy="73.7413" r="10.6905" fill="#D9D9D9" />
    <circle cx="602.903" cy="99.1958" r="9.67235" fill="#D9D9D9" />
    <circle cx="602.904" cy="122.615" r="8.65421" fill="#D9D9D9" />
    <circle cx="602.902" cy="143.995" r="7.63607" fill="#D9D9D9" />
    <circle cx="602.903" cy="163.341" r="6.61792" fill="#D9D9D9" />
    <circle cx="602.904" cy="180.647" r="5.59978" fill="#D9D9D9" />
    <circle cx="602.902" cy="195.921" r="4.58164" fill="#D9D9D9" />
    <circle cx="602.903" cy="209.157" r="3.5635" fill="#D9D9D9" />
    <circle cx="602.901" cy="220.354" r="2.54536" fill="#D9D9D9" />
    <circle cx="602.902" cy="229.519" r="1.52721" fill="#D9D9D9" />
    <circle cx="602.903" cy="236.645" r="0.508708" fill="#D9D9D9" />
    <circle cx="233.317" cy="16.7268" r="12.7268" fill="#D9D9D9" />
    <circle cx="233.318" cy="46.2516" r="11.7086" fill="#D9D9D9" />
    <circle cx="233.315" cy="73.7413" r="10.6905" fill="#D9D9D9" />
    <circle cx="233.317" cy="99.1958" r="9.67235" fill="#D9D9D9" />
    <circle cx="233.318" cy="122.615" r="8.65421" fill="#D9D9D9" />
    <circle cx="233.316" cy="143.995" r="7.63607" fill="#D9D9D9" />
    <circle cx="233.317" cy="163.341" r="6.61792" fill="#D9D9D9" />
    <circle cx="233.319" cy="180.647" r="5.59978" fill="#D9D9D9" />
    <circle cx="233.316" cy="195.921" r="4.58164" fill="#D9D9D9" />
    <circle cx="233.317" cy="209.157" r="3.5635" fill="#D9D9D9" />
    <circle cx="233.315" cy="220.354" r="2.54536" fill="#D9D9D9" />
    <circle cx="233.316" cy="229.519" r="1.52721" fill="#D9D9D9" />
    <circle cx="233.317" cy="236.645" r="0.508708" fill="#D9D9D9" />
    <circle cx="636.504" cy="16.7268" r="12.7268" fill="#D9D9D9" />
    <circle cx="636.505" cy="46.2516" r="11.7086" fill="#D9D9D9" />
    <circle cx="636.503" cy="73.7413" r="10.6905" fill="#D9D9D9" />
    <circle cx="636.504" cy="99.1958" r="9.67235" fill="#D9D9D9" />
    <circle cx="636.506" cy="122.615" r="8.65421" fill="#D9D9D9" />
    <circle cx="636.503" cy="143.995" r="7.63607" fill="#D9D9D9" />
    <circle cx="636.505" cy="163.341" r="6.61792" fill="#D9D9D9" />
    <circle cx="636.506" cy="180.647" r="5.59978" fill="#D9D9D9" />
    <circle cx="636.504" cy="195.921" r="4.58164" fill="#D9D9D9" />
    <circle cx="636.505" cy="209.157" r="3.5635" fill="#D9D9D9" />
    <circle cx="636.502" cy="220.354" r="2.54536" fill="#D9D9D9" />
    <circle cx="636.504" cy="229.519" r="1.52721" fill="#D9D9D9" />
    <circle cx="636.505" cy="236.645" r="0.508708" fill="#D9D9D9" />
    <circle cx="266.918" cy="16.7268" r="12.7268" fill="#D9D9D9" />
    <circle cx="266.92" cy="46.2516" r="11.7086" fill="#D9D9D9" />
    <circle cx="266.917" cy="73.7413" r="10.6905" fill="#D9D9D9" />
    <circle cx="266.918" cy="99.1958" r="9.67235" fill="#D9D9D9" />
    <circle cx="266.92" cy="122.615" r="8.65421" fill="#D9D9D9" />
    <circle cx="266.917" cy="143.995" r="7.63607" fill="#D9D9D9" />
    <circle cx="266.919" cy="163.341" r="6.61792" fill="#D9D9D9" />
    <circle cx="266.92" cy="180.647" r="5.59978" fill="#D9D9D9" />
    <circle cx="266.918" cy="195.921" r="4.58164" fill="#D9D9D9" />
    <circle cx="266.919" cy="209.157" r="3.5635" fill="#D9D9D9" />
    <circle cx="266.916" cy="220.354" r="2.54536" fill="#D9D9D9" />
    <circle cx="266.918" cy="229.519" r="1.52721" fill="#D9D9D9" />
    <circle cx="266.919" cy="236.645" r="0.508708" fill="#D9D9D9" />
    <circle cx="670.102" cy="16.7268" r="12.7268" fill="#D9D9D9" />
    <circle cx="670.103" cy="46.2516" r="11.7086" fill="#D9D9D9" />
    <circle cx="670.101" cy="73.7413" r="10.6905" fill="#D9D9D9" />
    <circle cx="670.102" cy="99.1958" r="9.67235" fill="#D9D9D9" />
    <circle cx="670.103" cy="122.615" r="8.65421" fill="#D9D9D9" />
    <circle cx="670.101" cy="143.995" r="7.63607" fill="#D9D9D9" />
    <circle cx="670.102" cy="163.341" r="6.61792" fill="#D9D9D9" />
    <circle cx="670.104" cy="180.647" r="5.59978" fill="#D9D9D9" />
    <circle cx="670.101" cy="195.921" r="4.58164" fill="#D9D9D9" />
    <circle cx="670.103" cy="209.157" r="3.5635" fill="#D9D9D9" />
    <circle cx="670.1" cy="220.354" r="2.54536" fill="#D9D9D9" />
    <circle cx="670.101" cy="229.519" r="1.52721" fill="#D9D9D9" />
    <circle cx="670.102" cy="236.645" r="0.508708" fill="#D9D9D9" />
    <circle cx="300.516" cy="16.7268" r="12.7268" fill="#D9D9D9" />
    <circle cx="300.517" cy="46.2516" r="11.7086" fill="#D9D9D9" />
    <circle cx="300.515" cy="73.7413" r="10.6905" fill="#D9D9D9" />
    <circle cx="300.516" cy="99.1958" r="9.67235" fill="#D9D9D9" />
    <circle cx="300.517" cy="122.615" r="8.65421" fill="#D9D9D9" />
    <circle cx="300.515" cy="143.995" r="7.63607" fill="#D9D9D9" />
    <circle cx="300.516" cy="163.341" r="6.61792" fill="#D9D9D9" />
    <circle cx="300.518" cy="180.647" r="5.59978" fill="#D9D9D9" />
    <circle cx="300.515" cy="195.921" r="4.58164" fill="#D9D9D9" />
    <circle cx="300.517" cy="209.157" r="3.5635" fill="#D9D9D9" />
    <circle cx="300.514" cy="220.354" r="2.54536" fill="#D9D9D9" />
    <circle cx="300.516" cy="229.519" r="1.52721" fill="#D9D9D9" />
    <circle cx="300.517" cy="236.645" r="0.508708" fill="#D9D9D9" />
    <circle cx="703.703" cy="16.7268" r="12.7268" fill="#D9D9D9" />
    <circle cx="703.705" cy="46.2516" r="11.7086" fill="#D9D9D9" />
    <circle cx="703.702" cy="73.7413" r="10.6905" fill="#D9D9D9" />
    <circle cx="703.704" cy="99.1958" r="9.67235" fill="#D9D9D9" />
    <circle cx="703.705" cy="122.615" r="8.65421" fill="#D9D9D9" />
    <circle cx="703.702" cy="143.995" r="7.63607" fill="#D9D9D9" />
    <circle cx="703.704" cy="163.341" r="6.61792" fill="#D9D9D9" />
    <circle cx="703.705" cy="180.647" r="5.59978" fill="#D9D9D9" />
    <circle cx="703.703" cy="195.921" r="4.58164" fill="#D9D9D9" />
    <circle cx="703.704" cy="209.157" r="3.5635" fill="#D9D9D9" />
    <circle cx="703.702" cy="220.354" r="2.54536" fill="#D9D9D9" />
    <circle cx="703.703" cy="229.519" r="1.52721" fill="#D9D9D9" />
    <circle cx="703.704" cy="236.645" r="0.508708" fill="#D9D9D9" />
    <circle cx="334.117" cy="16.7268" r="12.7268" fill="#D9D9D9" />
    <circle cx="334.119" cy="46.2516" r="11.7086" fill="#D9D9D9" />
    <circle cx="334.116" cy="73.7413" r="10.6905" fill="#D9D9D9" />
    <circle cx="334.118" cy="99.1958" r="9.67235" fill="#D9D9D9" />
    <circle cx="334.119" cy="122.615" r="8.65421" fill="#D9D9D9" />
    <circle cx="334.117" cy="143.995" r="7.63607" fill="#D9D9D9" />
    <circle cx="334.118" cy="163.341" r="6.61792" fill="#D9D9D9" />
    <circle cx="334.119" cy="180.647" r="5.59978" fill="#D9D9D9" />
    <circle cx="334.117" cy="195.921" r="4.58164" fill="#D9D9D9" />
    <circle cx="334.118" cy="209.157" r="3.5635" fill="#D9D9D9" />
    <circle cx="334.116" cy="220.354" r="2.54536" fill="#D9D9D9" />
    <circle cx="334.117" cy="229.519" r="1.52721" fill="#D9D9D9" />
    <circle cx="334.118" cy="236.645" r="0.508708" fill="#D9D9D9" />
    <circle cx="737.297" cy="16.7268" r="12.7268" fill="#D9D9D9" />
    <circle cx="737.298" cy="46.2516" r="11.7086" fill="#D9D9D9" />
    <circle cx="737.296" cy="73.7413" r="10.6905" fill="#D9D9D9" />
    <circle cx="737.297" cy="99.1958" r="9.67235" fill="#D9D9D9" />
    <circle cx="737.299" cy="122.615" r="8.65421" fill="#D9D9D9" />
    <circle cx="737.296" cy="143.995" r="7.63607" fill="#D9D9D9" />
    <circle cx="737.298" cy="163.341" r="6.61792" fill="#D9D9D9" />
    <circle cx="737.299" cy="180.647" r="5.59978" fill="#D9D9D9" />
    <circle cx="737.297" cy="195.921" r="4.58164" fill="#D9D9D9" />
    <circle cx="737.298" cy="209.157" r="3.5635" fill="#D9D9D9" />
    <circle cx="737.295" cy="220.354" r="2.54536" fill="#D9D9D9" />
    <circle cx="737.297" cy="229.519" r="1.52721" fill="#D9D9D9" />
    <circle cx="737.298" cy="236.645" r="0.508708" fill="#D9D9D9" />
    <circle cx="367.711" cy="16.7268" r="12.7268" fill="#D9D9D9" />
    <circle cx="367.713" cy="46.2516" r="11.7086" fill="#D9D9D9" />
    <circle cx="367.71" cy="73.7413" r="10.6905" fill="#D9D9D9" />
    <circle cx="367.711" cy="99.1958" r="9.67235" fill="#D9D9D9" />
    <circle cx="367.713" cy="122.615" r="8.65421" fill="#D9D9D9" />
    <circle cx="367.71" cy="143.995" r="7.63607" fill="#D9D9D9" />
    <circle cx="367.712" cy="163.341" r="6.61792" fill="#D9D9D9" />
    <circle cx="367.713" cy="180.647" r="5.59978" fill="#D9D9D9" />
    <circle cx="367.711" cy="195.921" r="4.58164" fill="#D9D9D9" />
    <circle cx="367.712" cy="209.157" r="3.5635" fill="#D9D9D9" />
    <circle cx="367.709" cy="220.354" r="2.54536" fill="#D9D9D9" />
    <circle cx="367.711" cy="229.519" r="1.52721" fill="#D9D9D9" />
    <circle cx="367.712" cy="236.645" r="0.508708" fill="#D9D9D9" />
    <circle cx="770.899" cy="16.7268" r="12.7268" fill="#D9D9D9" />
    <circle cx="770.9" cy="46.2516" r="11.7086" fill="#D9D9D9" />
    <circle cx="770.898" cy="73.7413" r="10.6905" fill="#D9D9D9" />
    <circle cx="770.899" cy="99.1958" r="9.67235" fill="#D9D9D9" />
    <circle cx="770.9" cy="122.615" r="8.65421" fill="#D9D9D9" />
    <circle cx="770.898" cy="143.995" r="7.63607" fill="#D9D9D9" />
    <circle cx="770.899" cy="163.341" r="6.61792" fill="#D9D9D9" />
    <circle cx="770.901" cy="180.647" r="5.59978" fill="#D9D9D9" />
    <circle cx="770.898" cy="195.921" r="4.58164" fill="#D9D9D9" />
    <circle cx="770.899" cy="209.157" r="3.5635" fill="#D9D9D9" />
    <circle cx="770.897" cy="220.354" r="2.54536" fill="#D9D9D9" />
    <circle cx="770.898" cy="229.519" r="1.52721" fill="#D9D9D9" />
    <circle cx="770.899" cy="236.645" r="0.508708" fill="#D9D9D9" />
    <circle cx="401.313" cy="16.7268" r="12.7268" fill="#D9D9D9" />
    <circle cx="401.314" cy="46.2516" r="11.7086" fill="#D9D9D9" />
    <circle cx="401.312" cy="73.7413" r="10.6905" fill="#D9D9D9" />
    <circle cx="401.313" cy="99.1958" r="9.67235" fill="#D9D9D9" />
    <circle cx="401.314" cy="122.615" r="8.65421" fill="#D9D9D9" />
    <circle cx="401.312" cy="143.995" r="7.63607" fill="#D9D9D9" />
    <circle cx="401.313" cy="163.341" r="6.61792" fill="#D9D9D9" />
    <circle cx="401.315" cy="180.647" r="5.59978" fill="#D9D9D9" />
    <circle cx="401.312" cy="195.921" r="4.58164" fill="#D9D9D9" />
    <circle cx="401.314" cy="209.157" r="3.5635" fill="#D9D9D9" />
    <circle cx="401.311" cy="220.354" r="2.54536" fill="#D9D9D9" />
    <circle cx="401.312" cy="229.519" r="1.52721" fill="#D9D9D9" />
    <circle cx="401.313" cy="236.645" r="0.508708" fill="#D9D9D9" />
    <circle cx="804.496" cy="16.7268" r="12.7268" fill="#D9D9D9" />
    <circle cx="804.498" cy="46.2516" r="11.7086" fill="#D9D9D9" />
    <circle cx="804.495" cy="73.7413" r="10.6905" fill="#D9D9D9" />
    <circle cx="804.497" cy="99.1958" r="9.67235" fill="#D9D9D9" />
    <circle cx="804.498" cy="122.615" r="8.65421" fill="#D9D9D9" />
    <circle cx="804.495" cy="143.995" r="7.63607" fill="#D9D9D9" />
    <circle cx="804.497" cy="163.341" r="6.61792" fill="#D9D9D9" />
    <circle cx="804.498" cy="180.647" r="5.59978" fill="#D9D9D9" />
    <circle cx="804.496" cy="195.921" r="4.58164" fill="#D9D9D9" />
    <circle cx="804.497" cy="209.157" r="3.5635" fill="#D9D9D9" />
    <circle cx="804.495" cy="220.354" r="2.54536" fill="#D9D9D9" />
    <circle cx="804.496" cy="229.519" r="1.52721" fill="#D9D9D9" />
    <circle cx="804.497" cy="236.645" r="0.508708" fill="#D9D9D9" />
    <circle cx="434.91" cy="16.7268" r="12.7268" fill="#D9D9D9" />
    <circle cx="434.912" cy="46.2516" r="11.7086" fill="#D9D9D9" />
    <circle cx="434.909" cy="73.7413" r="10.6905" fill="#D9D9D9" />
    <circle cx="434.911" cy="99.1958" r="9.67235" fill="#D9D9D9" />
    <circle cx="434.912" cy="122.615" r="8.65421" fill="#D9D9D9" />
    <circle cx="434.91" cy="143.995" r="7.63607" fill="#D9D9D9" />
    <circle cx="434.911" cy="163.341" r="6.61792" fill="#D9D9D9" />
    <circle cx="434.912" cy="180.647" r="5.59978" fill="#D9D9D9" />
    <circle cx="434.91" cy="195.921" r="4.58164" fill="#D9D9D9" />
    <circle cx="434.911" cy="209.157" r="3.5635" fill="#D9D9D9" />
    <circle cx="434.909" cy="220.354" r="2.54536" fill="#D9D9D9" />
    <circle cx="434.91" cy="229.519" r="1.52721" fill="#D9D9D9" />
    <circle cx="434.911" cy="236.645" r="0.508708" fill="#D9D9D9" />
    <circle cx="838.098" cy="16.7268" r="12.7268" fill="#D9D9D9" />
    <circle cx="838.099" cy="46.2516" r="11.7086" fill="#D9D9D9" />
    <circle cx="838.097" cy="73.7413" r="10.6905" fill="#D9D9D9" />
    <circle cx="838.098" cy="99.1958" r="9.67235" fill="#D9D9D9" />
    <circle cx="838.1" cy="122.615" r="8.65421" fill="#D9D9D9" />
    <circle cx="838.097" cy="143.995" r="7.63607" fill="#D9D9D9" />
    <circle cx="838.098" cy="163.341" r="6.61792" fill="#D9D9D9" />
    <circle cx="838.1" cy="180.647" r="5.59978" fill="#D9D9D9" />
    <circle cx="838.097" cy="195.921" r="4.58164" fill="#D9D9D9" />
    <circle cx="838.099" cy="209.157" r="3.5635" fill="#D9D9D9" />
    <circle cx="838.096" cy="220.354" r="2.54536" fill="#D9D9D9" />
    <circle cx="838.098" cy="229.519" r="1.52721" fill="#D9D9D9" />
    <circle cx="838.099" cy="236.645" r="0.508708" fill="#D9D9D9" />
    <circle cx="468.512" cy="16.7268" r="12.7268" fill="#D9D9D9" />
    <circle cx="468.513" cy="46.2516" r="11.7086" fill="#D9D9D9" />
    <circle cx="468.511" cy="73.7413" r="10.6905" fill="#D9D9D9" />
    <circle cx="468.512" cy="99.1958" r="9.67235" fill="#D9D9D9" />
    <circle cx="468.514" cy="122.615" r="8.65421" fill="#D9D9D9" />
    <circle cx="468.511" cy="143.995" r="7.63607" fill="#D9D9D9" />
    <circle cx="468.512" cy="163.341" r="6.61792" fill="#D9D9D9" />
    <circle cx="468.514" cy="180.647" r="5.59978" fill="#D9D9D9" />
    <circle cx="468.511" cy="195.921" r="4.58164" fill="#D9D9D9" />
    <circle cx="468.513" cy="209.157" r="3.5635" fill="#D9D9D9" />
    <circle cx="468.51" cy="220.354" r="2.54536" fill="#D9D9D9" />
    <circle cx="468.512" cy="229.519" r="1.52721" fill="#D9D9D9" />
    <circle cx="468.513" cy="236.645" r="0.508708" fill="#D9D9D9" />
    <circle cx="871.692" cy="16.7268" r="12.7268" fill="#D9D9D9" />
    <circle cx="871.693" cy="46.2516" r="11.7086" fill="#D9D9D9" />
    <circle cx="871.69" cy="73.7413" r="10.6905" fill="#D9D9D9" />
    <circle cx="871.692" cy="99.1958" r="9.67235" fill="#D9D9D9" />
    <circle cx="871.693" cy="122.615" r="8.65421" fill="#D9D9D9" />
    <circle cx="871.691" cy="143.995" r="7.63607" fill="#D9D9D9" />
    <circle cx="871.692" cy="163.341" r="6.61792" fill="#D9D9D9" />
    <circle cx="871.694" cy="180.647" r="5.59978" fill="#D9D9D9" />
    <circle cx="871.691" cy="195.921" r="4.58164" fill="#D9D9D9" />
    <circle cx="871.692" cy="209.157" r="3.5635" fill="#D9D9D9" />
    <circle cx="871.69" cy="220.354" r="2.54536" fill="#D9D9D9" />
    <circle cx="871.691" cy="229.519" r="1.52721" fill="#D9D9D9" />
    <circle cx="871.692" cy="236.645" r="0.508708" fill="#D9D9D9" />
    <circle cx="905.293" cy="16.7268" r="12.7268" fill="#D9D9D9" />
    <circle cx="905.295" cy="46.2516" r="11.7086" fill="#D9D9D9" />
    <circle cx="905.292" cy="73.7413" r="10.6905" fill="#D9D9D9" />
    <circle cx="905.293" cy="99.1958" r="9.67235" fill="#D9D9D9" />
    <circle cx="905.295" cy="122.615" r="8.65421" fill="#D9D9D9" />
    <circle cx="905.292" cy="143.995" r="7.63607" fill="#D9D9D9" />
    <circle cx="905.294" cy="163.341" r="6.61792" fill="#D9D9D9" />
    <circle cx="905.295" cy="180.647" r="5.59978" fill="#D9D9D9" />
    <circle cx="905.293" cy="195.921" r="4.58164" fill="#D9D9D9" />
    <circle cx="905.294" cy="209.157" r="3.5635" fill="#D9D9D9" />
    <circle cx="905.291" cy="220.354" r="2.54536" fill="#D9D9D9" />
    <circle cx="905.293" cy="229.519" r="1.52721" fill="#D9D9D9" />
    <circle cx="905.294" cy="236.645" r="0.508708" fill="#D9D9D9" />
    <circle cx="938.891" cy="16.7268" r="12.7268" fill="#D9D9D9" />
    <circle cx="938.892" cy="46.2516" r="11.7086" fill="#D9D9D9" />
    <circle cx="938.89" cy="73.7413" r="10.6905" fill="#D9D9D9" />
    <circle cx="938.891" cy="99.1958" r="9.67235" fill="#D9D9D9" />
    <circle cx="938.893" cy="122.615" r="8.65421" fill="#D9D9D9" />
    <circle cx="938.89" cy="143.995" r="7.63607" fill="#D9D9D9" />
    <circle cx="938.891" cy="163.341" r="6.61792" fill="#D9D9D9" />
    <circle cx="938.893" cy="180.647" r="5.59978" fill="#D9D9D9" />
    <circle cx="938.89" cy="195.921" r="4.58164" fill="#D9D9D9" />
    <circle cx="938.892" cy="209.157" r="3.5635" fill="#D9D9D9" />
    <circle cx="938.889" cy="220.354" r="2.54536" fill="#D9D9D9" />
    <circle cx="938.891" cy="229.519" r="1.52721" fill="#D9D9D9" />
    <circle cx="938.892" cy="236.645" r="0.508708" fill="#D9D9D9" />
    <circle cx="972.492" cy="16.7268" r="12.7268" fill="#D9D9D9" />
    <circle cx="972.494" cy="46.2516" r="11.7086" fill="#D9D9D9" />
    <circle cx="972.491" cy="73.7413" r="10.6905" fill="#D9D9D9" />
    <circle cx="972.493" cy="99.1958" r="9.67235" fill="#D9D9D9" />
    <circle cx="972.494" cy="122.615" r="8.65421" fill="#D9D9D9" />
    <circle cx="972.492" cy="143.995" r="7.63607" fill="#D9D9D9" />
    <circle cx="972.493" cy="163.341" r="6.61792" fill="#D9D9D9" />
    <circle cx="972.494" cy="180.647" r="5.59978" fill="#D9D9D9" />
    <circle cx="972.492" cy="195.921" r="4.58164" fill="#D9D9D9" />
    <circle cx="972.493" cy="209.157" r="3.5635" fill="#D9D9D9" />
    <circle cx="972.491" cy="220.354" r="2.54536" fill="#D9D9D9" />
    <circle cx="972.492" cy="229.519" r="1.52721" fill="#D9D9D9" />
    <circle cx="972.493" cy="236.645" r="0.508708" fill="#D9D9D9" />
    <circle cx="1006.09" cy="16.7268" r="12.7268" fill="#D9D9D9" />
    <circle cx="1006.09" cy="46.2516" r="11.7086" fill="#D9D9D9" />
    <circle cx="1006.09" cy="73.7413" r="10.6905" fill="#D9D9D9" />
    <circle cx="1006.09" cy="99.1958" r="9.67235" fill="#D9D9D9" />
    <circle cx="1006.09" cy="122.615" r="8.65421" fill="#D9D9D9" />
    <circle cx="1006.09" cy="143.995" r="7.63607" fill="#D9D9D9" />
    <circle cx="1006.09" cy="163.341" r="6.61792" fill="#D9D9D9" />
    <circle cx="1006.09" cy="180.647" r="5.59978" fill="#D9D9D9" />
    <circle cx="1006.09" cy="195.921" r="4.58164" fill="#D9D9D9" />
    <circle cx="1006.09" cy="209.157" r="3.5635" fill="#D9D9D9" />
    <circle cx="1006.08" cy="220.354" r="2.54536" fill="#D9D9D9" />
    <circle cx="1006.09" cy="229.519" r="1.52721" fill="#D9D9D9" />
    <circle cx="1006.09" cy="236.645" r="0.508708" fill="#D9D9D9" />
    <circle cx="1039.69" cy="16.7268" r="12.7268" fill="#D9D9D9" />
    <circle cx="1039.69" cy="46.2516" r="11.7086" fill="#D9D9D9" />
    <circle cx="1039.69" cy="73.7413" r="10.6905" fill="#D9D9D9" />
    <circle cx="1039.69" cy="99.1958" r="9.67235" fill="#D9D9D9" />
    <circle cx="1039.69" cy="122.615" r="8.65421" fill="#D9D9D9" />
    <circle cx="1039.69" cy="143.995" r="7.63607" fill="#D9D9D9" />
    <circle cx="1039.69" cy="163.341" r="6.61792" fill="#D9D9D9" />
    <circle cx="1039.69" cy="180.647" r="5.59978" fill="#D9D9D9" />
    <circle cx="1039.69" cy="195.921" r="4.58164" fill="#D9D9D9" />
    <circle cx="1039.69" cy="209.157" r="3.5635" fill="#D9D9D9" />
    <circle cx="1039.69" cy="220.354" r="2.54536" fill="#D9D9D9" />
    <circle cx="1039.69" cy="229.519" r="1.52721" fill="#D9D9D9" />
    <circle cx="1039.69" cy="236.645" r="0.508708" fill="#D9D9D9" />
    <circle cx="1073.29" cy="16.7268" r="12.7268" fill="#D9D9D9" />
    <circle cx="1073.29" cy="46.2516" r="11.7086" fill="#D9D9D9" />
    <circle cx="1073.28" cy="73.7413" r="10.6905" fill="#D9D9D9" />
    <circle cx="1073.29" cy="99.1958" r="9.67235" fill="#D9D9D9" />
    <circle cx="1073.29" cy="122.615" r="8.65421" fill="#D9D9D9" />
    <circle cx="1073.28" cy="143.995" r="7.63607" fill="#D9D9D9" />
    <circle cx="1073.29" cy="163.341" r="6.61792" fill="#D9D9D9" />
    <circle cx="1073.29" cy="180.647" r="5.59978" fill="#D9D9D9" />
    <circle cx="1073.28" cy="195.921" r="4.58164" fill="#D9D9D9" />
    <circle cx="1073.29" cy="209.157" r="3.5635" fill="#D9D9D9" />
    <circle cx="1073.28" cy="220.354" r="2.54536" fill="#D9D9D9" />
    <circle cx="1073.29" cy="229.519" r="1.52721" fill="#D9D9D9" />
    <circle cx="1073.29" cy="236.645" r="0.508708" fill="#D9D9D9" />
    <circle cx="1106.89" cy="16.7268" r="12.7268" fill="#D9D9D9" />
    <circle cx="1106.89" cy="46.2516" r="11.7086" fill="#D9D9D9" />
    <circle cx="1106.89" cy="73.7413" r="10.6905" fill="#D9D9D9" />
    <circle cx="1106.89" cy="99.1958" r="9.67235" fill="#D9D9D9" />
    <circle cx="1106.89" cy="122.615" r="8.65421" fill="#D9D9D9" />
    <circle cx="1106.89" cy="143.995" r="7.63607" fill="#D9D9D9" />
    <circle cx="1106.89" cy="163.341" r="6.61792" fill="#D9D9D9" />
    <circle cx="1106.89" cy="180.647" r="5.59978" fill="#D9D9D9" />
    <circle cx="1106.89" cy="195.921" r="4.58164" fill="#D9D9D9" />
    <circle cx="1106.89" cy="209.157" r="3.5635" fill="#D9D9D9" />
    <circle cx="1106.89" cy="220.354" r="2.54536" fill="#D9D9D9" />
    <circle cx="1106.89" cy="229.519" r="1.52721" fill="#D9D9D9" />
    <circle cx="1106.89" cy="236.645" r="0.508708" fill="#D9D9D9" />
    <circle cx="1140.48" cy="16.7268" r="12.7268" fill="#D9D9D9" />
    <circle cx="1140.49" cy="46.2516" r="11.7086" fill="#D9D9D9" />
    <circle cx="1140.48" cy="73.7413" r="10.6905" fill="#D9D9D9" />
    <circle cx="1140.48" cy="99.1958" r="9.67235" fill="#D9D9D9" />
    <circle cx="1140.49" cy="122.615" r="8.65421" fill="#D9D9D9" />
    <circle cx="1140.48" cy="143.995" r="7.63607" fill="#D9D9D9" />
    <circle cx="1140.49" cy="163.341" r="6.61792" fill="#D9D9D9" />
    <circle cx="1140.49" cy="180.647" r="5.59978" fill="#D9D9D9" />
    <circle cx="1140.48" cy="195.921" r="4.58164" fill="#D9D9D9" />
    <circle cx="1140.49" cy="209.157" r="3.5635" fill="#D9D9D9" />
    <circle cx="1140.48" cy="220.354" r="2.54536" fill="#D9D9D9" />
    <circle cx="1140.48" cy="229.519" r="1.52721" fill="#D9D9D9" />
    <circle cx="1140.49" cy="236.645" r="0.508708" fill="#D9D9D9" />
    <circle cx="1174.08" cy="16.7268" r="12.7268" fill="#D9D9D9" />
    <circle cx="1174.08" cy="46.2516" r="11.7086" fill="#D9D9D9" />
    <circle cx="1174.08" cy="73.7413" r="10.6905" fill="#D9D9D9" />
    <circle cx="1174.08" cy="99.1958" r="9.67235" fill="#D9D9D9" />
    <circle cx="1174.08" cy="122.615" r="8.65421" fill="#D9D9D9" />
    <circle cx="1174.08" cy="143.995" r="7.63607" fill="#D9D9D9" />
    <circle cx="1174.08" cy="163.341" r="6.61792" fill="#D9D9D9" />
    <circle cx="1174.08" cy="180.647" r="5.59978" fill="#D9D9D9" />
    <circle cx="1174.08" cy="195.921" r="4.58164" fill="#D9D9D9" />
    <circle cx="1174.08" cy="209.157" r="3.5635" fill="#D9D9D9" />
    <circle cx="1174.08" cy="220.354" r="2.54536" fill="#D9D9D9" />
    <circle cx="1174.08" cy="229.519" r="1.52721" fill="#D9D9D9" />
    <circle cx="1174.08" cy="236.645" r="0.508708" fill="#D9D9D9" />
    <circle cx="1207.68" cy="16.7268" r="12.7268" fill="#D9D9D9" />
    <circle cx="1207.69" cy="46.2516" r="11.7086" fill="#D9D9D9" />
    <circle cx="1207.68" cy="73.7413" r="10.6905" fill="#D9D9D9" />
    <circle cx="1207.68" cy="99.1958" r="9.67235" fill="#D9D9D9" />
    <circle cx="1207.69" cy="122.615" r="8.65421" fill="#D9D9D9" />
    <circle cx="1207.68" cy="143.995" r="7.63607" fill="#D9D9D9" />
    <circle cx="1207.68" cy="163.341" r="6.61792" fill="#D9D9D9" />
    <circle cx="1207.69" cy="180.647" r="5.59978" fill="#D9D9D9" />
    <circle cx="1207.68" cy="195.921" r="4.58164" fill="#D9D9D9" />
    <circle cx="1207.68" cy="209.157" r="3.5635" fill="#D9D9D9" />
    <circle cx="1207.68" cy="220.354" r="2.54536" fill="#D9D9D9" />
    <circle cx="1207.68" cy="229.519" r="1.52721" fill="#D9D9D9" />
    <circle cx="1207.68" cy="236.645" r="0.508708" fill="#D9D9D9" />
    <circle cx="1241.28" cy="16.7268" r="12.7268" fill="#D9D9D9" />
    <circle cx="1241.28" cy="46.2516" r="11.7086" fill="#D9D9D9" />
    <circle cx="1241.28" cy="73.7413" r="10.6905" fill="#D9D9D9" />
    <circle cx="1241.28" cy="99.1958" r="9.67235" fill="#D9D9D9" />
    <circle cx="1241.28" cy="122.615" r="8.65421" fill="#D9D9D9" />
    <circle cx="1241.28" cy="143.995" r="7.63607" fill="#D9D9D9" />
    <circle cx="1241.28" cy="163.341" r="6.61792" fill="#D9D9D9" />
    <circle cx="1241.28" cy="180.647" r="5.59978" fill="#D9D9D9" />
    <circle cx="1241.28" cy="195.921" r="4.58164" fill="#D9D9D9" />
    <circle cx="1241.28" cy="209.157" r="3.5635" fill="#D9D9D9" />
    <circle cx="1241.28" cy="220.354" r="2.54536" fill="#D9D9D9" />
    <circle cx="1241.28" cy="229.519" r="1.52721" fill="#D9D9D9" />
    <circle cx="1241.28" cy="236.645" r="0.508708" fill="#D9D9D9" />
    <circle cx="1274.88" cy="16.7268" r="12.7268" fill="#D9D9D9" />
    <circle cx="1274.88" cy="46.2516" r="11.7086" fill="#D9D9D9" />
    <circle cx="1274.88" cy="73.7413" r="10.6905" fill="#D9D9D9" />
    <circle cx="1274.88" cy="99.1958" r="9.67235" fill="#D9D9D9" />
    <circle cx="1274.88" cy="122.615" r="8.65421" fill="#D9D9D9" />
    <circle cx="1274.88" cy="143.995" r="7.63607" fill="#D9D9D9" />
    <circle cx="1274.88" cy="163.341" r="6.61792" fill="#D9D9D9" />
    <circle cx="1274.88" cy="180.647" r="5.59978" fill="#D9D9D9" />
    <circle cx="1274.88" cy="195.921" r="4.58164" fill="#D9D9D9" />
    <circle cx="1274.88" cy="209.157" r="3.5635" fill="#D9D9D9" />
    <circle cx="1274.88" cy="220.354" r="2.54536" fill="#D9D9D9" />
    <circle cx="1274.88" cy="229.519" r="1.52721" fill="#D9D9D9" />
    <circle cx="1274.88" cy="236.645" r="0.508708" fill="#D9D9D9" />
    <circle cx="1308.48" cy="16.7268" r="12.7268" fill="#D9D9D9" />
    <circle cx="1308.48" cy="46.2516" r="11.7086" fill="#D9D9D9" />
    <circle cx="1308.48" cy="73.7413" r="10.6905" fill="#D9D9D9" />
    <circle cx="1308.48" cy="99.1958" r="9.67235" fill="#D9D9D9" />
    <circle cx="1308.48" cy="122.615" r="8.65421" fill="#D9D9D9" />
    <circle cx="1308.48" cy="143.995" r="7.63607" fill="#D9D9D9" />
    <circle cx="1308.48" cy="163.341" r="6.61792" fill="#D9D9D9" />
    <circle cx="1308.48" cy="180.647" r="5.59978" fill="#D9D9D9" />
    <circle cx="1308.48" cy="195.921" r="4.58164" fill="#D9D9D9" />
    <circle cx="1308.48" cy="209.157" r="3.5635" fill="#D9D9D9" />
    <circle cx="1308.48" cy="220.354" r="2.54536" fill="#D9D9D9" />
    <circle cx="1308.48" cy="229.519" r="1.52721" fill="#D9D9D9" />
    <circle cx="1308.48" cy="236.645" r="0.508708" fill="#D9D9D9" />
    <circle cx="1342.08" cy="16.7268" r="12.7268" fill="#D9D9D9" />
    <circle cx="1342.08" cy="46.2516" r="11.7086" fill="#D9D9D9" />
    <circle cx="1342.08" cy="73.7413" r="10.6905" fill="#D9D9D9" />
    <circle cx="1342.08" cy="99.1958" r="9.67235" fill="#D9D9D9" />
    <circle cx="1342.08" cy="122.615" r="8.65421" fill="#D9D9D9" />
    <circle cx="1342.08" cy="143.995" r="7.63607" fill="#D9D9D9" />
    <circle cx="1342.08" cy="163.341" r="6.61792" fill="#D9D9D9" />
    <circle cx="1342.08" cy="180.647" r="5.59978" fill="#D9D9D9" />
    <circle cx="1342.08" cy="195.921" r="4.58164" fill="#D9D9D9" />
    <circle cx="1342.08" cy="209.157" r="3.5635" fill="#D9D9D9" />
    <circle cx="1342.08" cy="220.354" r="2.54536" fill="#D9D9D9" />
    <circle cx="1342.08" cy="229.519" r="1.52721" fill="#D9D9D9" />
    <circle cx="1342.08" cy="236.645" r="0.508708" fill="#D9D9D9" />
    <circle cx="1375.67" cy="16.7268" r="12.7268" fill="#D9D9D9" />
    <circle cx="1375.67" cy="46.2516" r="11.7086" fill="#D9D9D9" />
    <circle cx="1375.67" cy="73.7413" r="10.6905" fill="#D9D9D9" />
    <circle cx="1375.67" cy="99.1958" r="9.67235" fill="#D9D9D9" />
    <circle cx="1375.67" cy="122.615" r="8.65421" fill="#D9D9D9" />
    <circle cx="1375.67" cy="143.995" r="7.63607" fill="#D9D9D9" />
    <circle cx="1375.67" cy="163.341" r="6.61792" fill="#D9D9D9" />
    <circle cx="1375.67" cy="180.647" r="5.59978" fill="#D9D9D9" />
    <circle cx="1375.67" cy="195.921" r="4.58164" fill="#D9D9D9" />
    <circle cx="1375.67" cy="209.157" r="3.5635" fill="#D9D9D9" />
    <circle cx="1375.67" cy="220.354" r="2.54536" fill="#D9D9D9" />
    <circle cx="1375.67" cy="229.519" r="1.52721" fill="#D9D9D9" />
    <circle cx="1375.67" cy="236.645" r="0.508708" fill="#D9D9D9" />
    <circle cx="1409.27" cy="16.7268" r="12.7268" fill="#D9D9D9" />
    <circle cx="1409.28" cy="46.2516" r="11.7086" fill="#D9D9D9" />
    <circle cx="1409.27" cy="73.7413" r="10.6905" fill="#D9D9D9" />
    <circle cx="1409.27" cy="99.1958" r="9.67235" fill="#D9D9D9" />
    <circle cx="1409.28" cy="122.615" r="8.65421" fill="#D9D9D9" />
    <circle cx="1409.27" cy="143.995" r="7.63607" fill="#D9D9D9" />
    <circle cx="1409.27" cy="163.341" r="6.61792" fill="#D9D9D9" />
    <circle cx="1409.28" cy="180.647" r="5.59978" fill="#D9D9D9" />
    <circle cx="1409.27" cy="195.921" r="4.58164" fill="#D9D9D9" />
    <circle cx="1409.27" cy="209.157" r="3.5635" fill="#D9D9D9" />
    <circle cx="1409.27" cy="220.354" r="2.54536" fill="#D9D9D9" />
    <circle cx="1409.27" cy="229.519" r="1.52721" fill="#D9D9D9" />
    <circle cx="1409.27" cy="236.645" r="0.508708" fill="#D9D9D9" />
</svg>