<?xml version='1.0' encoding='ascii'?>
<svg xmlns="http://www.w3.org/2000/svg" xmlns:inkscape="http://www.inkscape.org/namespaces/inkscape" version="1.1" width="1920" height="1080">
    <g id="ViewLayer_LineSet" inkscape:groupmode="lineset" inkscape:label="ViewLayer_LineSet">
        <g id="frame_0000" inkscape:groupmode="frame" inkscape:label="frame_0000">
            <g inkscape:groupmode="layer" id="strokes" inkscape:label="strokes">
                <path fill="none" stroke-width="20.700000762939453" stroke-linecap="butt" stroke-opacity="1.0" stroke="rgb(0, 0, 0)" stroke-linejoin="bevel" d=" M 961.641, 537.628 959.814, 537.808 958.058, 538.341 956.439, 539.206 955.020, 540.371 953.855, 541.790 952.990, 543.409 952.457, 545.165 952.277, 546.992 952.457, 548.818 952.990, 550.575 953.855, 552.194 955.020, 553.613 956.439, 554.777 958.058, 555.643 959.814, 556.175 961.641, 556.355 963.468, 556.175 965.224, 555.643 966.843, 554.777 968.262, 553.613 969.426, 552.194 970.292, 550.575 970.824, 548.818 971.004, 546.992 970.824, 545.165 970.291, 543.409 969.426, 541.790 968.262, 540.371 966.843, 539.206 965.224, 538.341 963.467, 537.808 961.641, 537.628 " />
            </g>
            <animate id="anim_ViewLayer_LineSet_000000" begin="-0.833s" attributeName="display" values="none;none;none;none;none;none;none;none;none;none;none;none;none;none;none;none;none;none;none;inline;none" repeatCount="indefinite" keyTimes="0.0;0.05;0.1;0.15;0.2;0.25;0.3;0.35;0.4;0.45;0.5;0.55;0.6;0.65;0.7;0.75;0.8;0.85;0.9;0.95;1" dur="0.833s" />
        </g>
        <g id="frame_0001" inkscape:groupmode="frame" inkscape:label="frame_0001">
            <g inkscape:groupmode="layer" id="strokes" inkscape:label="strokes">
                <path fill="none" stroke-width="20.700000762939453" stroke-linecap="butt" stroke-opacity="1.0" stroke="rgb(0, 0, 0)" stroke-linejoin="bevel" d=" M 961.641, 537.628 959.814, 537.808 958.058, 538.341 956.439, 539.206 955.020, 540.371 953.855, 541.790 952.990, 543.409 952.457, 545.165 952.277, 546.992 952.457, 548.818 952.990, 550.575 953.855, 552.194 955.020, 553.613 956.439, 554.777 958.058, 555.643 959.814, 556.175 961.641, 556.355 963.468, 556.175 965.224, 555.643 966.843, 554.777 968.262, 553.613 969.426, 552.194 970.292, 550.575 970.824, 548.818 971.004, 546.992 970.824, 545.165 970.291, 543.409 969.426, 541.790 968.262, 540.371 966.843, 539.206 965.224, 538.341 963.467, 537.808 961.641, 537.628 " />
            </g>
            <animate id="anim_ViewLayer_LineSet_000001" begin="-0.792s" attributeName="display" values="none;none;none;none;none;none;none;none;none;none;none;none;none;none;none;none;none;none;none;inline;none" repeatCount="indefinite" keyTimes="0.0;0.05;0.1;0.15;0.2;0.25;0.3;0.35;0.4;0.45;0.5;0.55;0.6;0.65;0.7;0.75;0.8;0.85;0.9;0.95;1" dur="0.833s" />
        </g>
        <g id="frame_0002" inkscape:groupmode="frame" inkscape:label="frame_0002">
            <g inkscape:groupmode="layer" id="strokes" inkscape:label="strokes">
                <path fill="none" stroke-width="20.700000762939453" stroke-linecap="butt" stroke-opacity="1.0" stroke="rgb(0, 0, 0)" stroke-linejoin="bevel" d=" M 965.523, 529.011 963.696, 529.191 961.940, 529.723 960.321, 530.589 958.902, 531.753 957.737, 533.172 956.872, 534.791 956.339, 536.547 956.159, 538.374 956.339, 540.201 956.872, 541.957 957.737, 543.576 958.902, 544.995 960.321, 546.159 961.940, 547.025 963.696, 547.557 965.523, 547.737 967.350, 547.557 969.106, 547.025 970.725, 546.159 972.144, 544.995 973.308, 543.576 974.173, 541.957 974.706, 540.201 974.886, 538.374 974.706, 536.547 974.173, 534.791 973.308, 533.172 972.144, 531.753 970.725, 530.589 969.106, 529.723 967.349, 529.191 965.523, 529.011 " />
            </g>
            <animate id="anim_ViewLayer_LineSet_000002" begin="-0.750s" attributeName="display" values="none;none;none;none;none;none;none;none;none;none;none;none;none;none;none;none;none;none;none;inline;none" repeatCount="indefinite" keyTimes="0.0;0.05;0.1;0.15;0.2;0.25;0.3;0.35;0.4;0.45;0.5;0.55;0.6;0.65;0.7;0.75;0.8;0.85;0.9;0.95;1" dur="0.833s" />
        </g>
        <g id="frame_0003" inkscape:groupmode="frame" inkscape:label="frame_0003">
            <g inkscape:groupmode="layer" id="strokes" inkscape:label="strokes">
                <path fill="none" stroke-width="20.700000762939453" stroke-linecap="butt" stroke-opacity="1.0" stroke="rgb(0, 0, 0)" stroke-linejoin="bevel" d=" M 976.813, 506.292 974.987, 506.472 973.230, 507.005 971.612, 507.870 970.193, 509.035 969.028, 510.453 968.163, 512.072 967.630, 513.828 967.450, 515.655 967.630, 517.482 968.163, 519.238 969.028, 520.857 970.193, 522.276 971.612, 523.440 973.231, 524.305 974.987, 524.838 976.814, 525.018 978.640, 524.838 980.397, 524.305 982.016, 523.440 983.434, 522.276 984.599, 520.857 985.464, 519.238 985.997, 517.482 986.177, 515.655 985.997, 513.828 985.464, 512.072 984.599, 510.453 983.434, 509.035 982.015, 507.870 980.396, 507.005 978.640, 506.472 976.813, 506.292 " />
            </g>
            <animate id="anim_ViewLayer_LineSet_000003" begin="-0.708s" attributeName="display" values="none;none;none;none;none;none;none;none;none;none;none;none;none;none;none;none;none;none;none;inline;none" repeatCount="indefinite" keyTimes="0.0;0.05;0.1;0.15;0.2;0.25;0.3;0.35;0.4;0.45;0.5;0.55;0.6;0.65;0.7;0.75;0.8;0.85;0.9;0.95;1" dur="0.833s" />
        </g>
        <g id="frame_0004" inkscape:groupmode="frame" inkscape:label="frame_0004">
            <g inkscape:groupmode="layer" id="strokes" inkscape:label="strokes">
                <path fill="none" stroke-width="20.700000762939453" stroke-linecap="butt" stroke-opacity="1.0" stroke="rgb(0, 0, 0)" stroke-linejoin="bevel" d=" M 994.979, 474.175 993.153, 474.355 991.396, 474.888 989.778, 475.753 988.359, 476.917 987.195, 478.336 986.329, 479.954 985.797, 481.711 985.617, 483.537 985.797, 485.364 986.330, 487.120 987.195, 488.739 988.359, 490.157 989.778, 491.322 991.397, 492.187 993.153, 492.720 994.980, 492.899 996.807, 492.720 998.563, 492.187 1000.182, 491.322 1001.600, 490.157 1002.765, 488.739 1003.630, 487.120 1004.163, 485.364 1004.343, 483.537 1004.163, 481.711 1003.630, 479.954 1002.764, 478.336 1001.600, 476.917 1000.181, 475.753 998.562, 474.888 996.806, 474.355 994.979, 474.175 " />
            </g>
            <animate id="anim_ViewLayer_LineSet_000004" begin="-0.667s" attributeName="display" values="none;none;none;none;none;none;none;none;none;none;none;none;none;none;none;none;none;none;none;inline;none" repeatCount="indefinite" keyTimes="0.0;0.05;0.1;0.15;0.2;0.25;0.3;0.35;0.4;0.45;0.5;0.55;0.6;0.65;0.7;0.75;0.8;0.85;0.9;0.95;1" dur="0.833s" />
        </g>
        <g id="frame_0005" inkscape:groupmode="frame" inkscape:label="frame_0005">
            <g inkscape:groupmode="layer" id="strokes" inkscape:label="strokes">
                <path fill="none" stroke-width="20.700000762939453" stroke-linecap="butt" stroke-opacity="1.0" stroke="rgb(0, 0, 0)" stroke-linejoin="bevel" d=" M 1019.487, 437.360 1017.661, 437.540 1015.904, 438.072 1014.286, 438.938 1012.867, 440.102 1011.703, 441.520 1010.838, 443.139 1010.305, 444.895 1010.125, 446.721 1010.305, 448.548 1010.838, 450.304 1011.703, 451.922 1012.868, 453.341 1014.287, 454.505 1015.905, 455.370 1017.662, 455.903 1019.488, 456.083 1021.315, 455.903 1023.071, 455.370 1024.690, 454.505 1026.109, 453.341 1027.273, 451.922 1028.138, 450.304 1028.671, 448.548 1028.850, 446.721 1028.670, 444.895 1028.137, 443.139 1027.272, 441.520 1026.108, 440.102 1024.689, 438.938 1023.070, 438.072 1021.314, 437.540 1019.487, 437.360 " />
            </g>
            <animate id="anim_ViewLayer_LineSet_000005" begin="-0.625s" attributeName="display" values="none;none;none;none;none;none;none;none;none;none;none;none;none;none;none;none;none;none;none;inline;none" repeatCount="indefinite" keyTimes="0.0;0.05;0.1;0.15;0.2;0.25;0.3;0.35;0.4;0.45;0.5;0.55;0.6;0.65;0.7;0.75;0.8;0.85;0.9;0.95;1" dur="0.833s" />
        </g>
        <g id="frame_0006" inkscape:groupmode="frame" inkscape:label="frame_0006">
            <g inkscape:groupmode="layer" id="strokes" inkscape:label="strokes">
                <path fill="none" stroke-width="20.700000762939453" stroke-linecap="butt" stroke-opacity="1.0" stroke="rgb(0, 0, 0)" stroke-linejoin="bevel" d=" M 1049.804, 400.547 1047.978, 400.727 1046.222, 401.260 1044.603, 402.125 1043.184, 403.289 1042.020, 404.708 1041.155, 406.326 1040.623, 408.082 1040.443, 409.908 1040.623, 411.734 1041.156, 413.491 1042.021, 415.109 1043.186, 416.528 1044.604, 417.692 1046.223, 418.557 1047.979, 419.089 1049.806, 419.269 1051.632, 419.089 1053.389, 418.557 1055.007, 417.692 1056.426, 416.528 1057.590, 415.109 1058.455, 413.491 1058.987, 411.734 1059.167, 409.908 1058.987, 408.082 1058.454, 406.326 1057.589, 404.708 1056.424, 403.289 1055.006, 402.125 1053.387, 401.260 1051.631, 400.727 1049.804, 400.547 " />
            </g>
            <animate id="anim_ViewLayer_LineSet_000006" begin="-0.583s" attributeName="display" values="none;none;none;none;none;none;none;none;none;none;none;none;none;none;none;none;none;none;none;inline;none" repeatCount="indefinite" keyTimes="0.0;0.05;0.1;0.15;0.2;0.25;0.3;0.35;0.4;0.45;0.5;0.55;0.6;0.65;0.7;0.75;0.8;0.85;0.9;0.95;1" dur="0.833s" />
        </g>
        <g id="frame_0007" inkscape:groupmode="frame" inkscape:label="frame_0007">
            <g inkscape:groupmode="layer" id="strokes" inkscape:label="strokes">
                <path fill="none" stroke-width="20.700000762939453" stroke-linecap="butt" stroke-opacity="1.0" stroke="rgb(0, 0, 0)" stroke-linejoin="bevel" d=" M 1085.398, 368.437 1083.571, 368.617 1081.815, 369.149 1080.197, 370.014 1078.778, 371.178 1077.614, 372.597 1076.749, 374.215 1076.217, 375.971 1076.037, 377.797 1076.217, 379.623 1076.750, 381.379 1077.615, 382.997 1078.780, 384.416 1080.198, 385.580 1081.817, 386.445 1083.573, 386.977 1085.400, 387.157 1087.226, 386.977 1088.982, 386.445 1090.601, 385.580 1092.019, 384.416 1093.183, 382.997 1094.048, 381.379 1094.581, 379.623 1094.761, 377.797 1094.580, 375.971 1094.047, 374.215 1093.182, 372.597 1092.018, 371.178 1090.599, 370.014 1088.980, 369.149 1087.224, 368.617 1085.398, 368.437 " />
            </g>
            <animate id="anim_ViewLayer_LineSet_000007" begin="-0.542s" attributeName="display" values="none;none;none;none;none;none;none;none;none;none;none;none;none;none;none;none;none;none;none;inline;none" repeatCount="indefinite" keyTimes="0.0;0.05;0.1;0.15;0.2;0.25;0.3;0.35;0.4;0.45;0.5;0.55;0.6;0.65;0.7;0.75;0.8;0.85;0.9;0.95;1" dur="0.833s" />
        </g>
        <g id="frame_0008" inkscape:groupmode="frame" inkscape:label="frame_0008">
            <g inkscape:groupmode="layer" id="strokes" inkscape:label="strokes">
                <path fill="none" stroke-width="20.700000762939453" stroke-linecap="butt" stroke-opacity="1.0" stroke="rgb(0, 0, 0)" stroke-linejoin="bevel" d=" M 1125.736, 345.725 1123.909, 345.905 1122.153, 346.438 1120.535, 347.303 1119.117, 348.467 1117.953, 349.885 1117.088, 351.503 1116.555, 353.259 1116.376, 355.085 1116.556, 356.911 1117.089, 358.667 1117.954, 360.285 1119.119, 361.704 1120.537, 362.868 1122.156, 363.733 1123.912, 364.265 1125.739, 364.445 1127.565, 364.265 1129.321, 363.733 1130.940, 362.868 1132.358, 361.704 1133.522, 360.285 1134.387, 358.667 1134.919, 356.911 1135.099, 355.085 1134.919, 353.259 1134.386, 351.503 1133.520, 349.885 1132.356, 348.467 1130.937, 347.303 1129.318, 346.438 1127.562, 345.905 1125.736, 345.725 " />
            </g>
            <animate id="anim_ViewLayer_LineSet_000008" begin="-0.500s" attributeName="display" values="none;none;none;none;none;none;none;none;none;none;none;none;none;none;none;none;none;none;none;inline;none" repeatCount="indefinite" keyTimes="0.0;0.05;0.1;0.15;0.2;0.25;0.3;0.35;0.4;0.45;0.5;0.55;0.6;0.65;0.7;0.75;0.8;0.85;0.9;0.95;1" dur="0.833s" />
        </g>
        <g id="frame_0009" inkscape:groupmode="frame" inkscape:label="frame_0009">
            <g inkscape:groupmode="layer" id="strokes" inkscape:label="strokes">
                <path fill="none" stroke-width="20.700000762939453" stroke-linecap="butt" stroke-opacity="1.0" stroke="rgb(0, 0, 0)" stroke-linejoin="bevel" d=" M 1170.288, 337.111 1168.462, 337.291 1166.706, 337.824 1165.087, 338.689 1163.669, 339.852 1162.505, 341.271 1161.640, 342.889 1161.108, 344.645 1160.928, 346.471 1161.109, 348.297 1161.642, 350.053 1162.507, 351.671 1163.672, 353.089 1165.090, 354.253 1166.709, 355.118 1168.465, 355.651 1170.292, 355.831 1172.118, 355.651 1173.874, 355.118 1175.493, 354.253 1176.911, 353.089 1178.075, 351.671 1178.940, 350.053 1179.472, 348.297 1179.651, 346.471 1179.471, 344.645 1178.938, 342.889 1178.073, 341.271 1176.908, 339.852 1175.489, 338.689 1173.871, 337.824 1172.114, 337.291 1170.288, 337.111 " />
            </g>
            <animate id="anim_ViewLayer_LineSet_000009" begin="-0.458s" attributeName="display" values="none;none;none;none;none;none;none;none;none;none;none;none;none;none;none;none;none;none;none;inline;none" repeatCount="indefinite" keyTimes="0.0;0.05;0.1;0.15;0.2;0.25;0.3;0.35;0.4;0.45;0.5;0.55;0.6;0.65;0.7;0.75;0.8;0.85;0.9;0.95;1" dur="0.833s" />
        </g>
        <g id="frame_0010" inkscape:groupmode="frame" inkscape:label="frame_0010">
            <g inkscape:groupmode="layer" id="strokes" inkscape:label="strokes">
                <path fill="none" stroke-width="20.700000762939453" stroke-linecap="butt" stroke-opacity="1.0" stroke="rgb(0, 0, 0)" stroke-linejoin="bevel" d=" M 1218.335, 342.725 1216.509, 342.904 1214.753, 343.437 1213.134, 344.302 1211.716, 345.466 1210.552, 346.884 1209.687, 348.502 1209.155, 350.258 1208.976, 352.084 1209.156, 353.910 1209.689, 355.666 1210.555, 357.284 1211.719, 358.703 1213.138, 359.867 1214.757, 360.732 1216.513, 361.264 1218.340, 361.444 1220.166, 361.264 1221.922, 360.732 1223.540, 359.867 1224.959, 358.703 1226.123, 357.284 1226.987, 355.666 1227.520, 353.910 1227.699, 352.084 1227.519, 350.258 1226.985, 348.502 1226.120, 346.884 1224.955, 345.466 1223.536, 344.302 1221.918, 343.437 1220.161, 342.904 1218.335, 342.725 " />
            </g>
            <animate id="anim_ViewLayer_LineSet_000010" begin="-0.417s" attributeName="display" values="none;none;none;none;none;none;none;none;none;none;none;none;none;none;none;none;none;none;none;inline;none" repeatCount="indefinite" keyTimes="0.0;0.05;0.1;0.15;0.2;0.25;0.3;0.35;0.4;0.45;0.5;0.55;0.6;0.65;0.7;0.75;0.8;0.85;0.9;0.95;1" dur="0.833s" />
        </g>
        <g id="frame_0011" inkscape:groupmode="frame" inkscape:label="frame_0011">
            <g inkscape:groupmode="layer" id="strokes" inkscape:label="strokes">
                <path fill="none" stroke-width="20.700000762939453" stroke-linecap="butt" stroke-opacity="1.0" stroke="rgb(0, 0, 0)" stroke-linejoin="bevel" d=" M 1268.400, 357.961 1266.574, 358.141 1264.818, 358.674 1263.200, 359.539 1261.781, 360.703 1260.617, 362.121 1259.753, 363.739 1259.221, 365.495 1259.041, 367.321 1259.222, 369.147 1259.755, 370.903 1260.620, 372.522 1261.785, 373.940 1263.204, 375.104 1264.823, 375.969 1266.579, 376.502 1268.406, 376.682 1270.232, 376.502 1271.988, 375.969 1273.607, 375.104 1275.025, 373.940 1276.189, 372.522 1277.053, 370.903 1277.585, 369.147 1277.765, 367.321 1277.584, 365.495 1277.051, 363.739 1276.185, 362.121 1275.021, 360.703 1273.602, 359.539 1271.983, 358.674 1270.227, 358.141 1268.400, 357.961 " />
            </g>
            <animate id="anim_ViewLayer_LineSet_000011" begin="-0.375s" attributeName="display" values="none;none;none;none;none;none;none;none;none;none;none;none;none;none;none;none;none;none;none;inline;none" repeatCount="indefinite" keyTimes="0.0;0.05;0.1;0.15;0.2;0.25;0.3;0.35;0.4;0.45;0.5;0.55;0.6;0.65;0.7;0.75;0.8;0.85;0.9;0.95;1" dur="0.833s" />
        </g>
        <g id="frame_0012" inkscape:groupmode="frame" inkscape:label="frame_0012">
            <g inkscape:groupmode="layer" id="strokes" inkscape:label="strokes">
                <path fill="none" stroke-width="20.700000762939453" stroke-linecap="butt" stroke-opacity="1.0" stroke="rgb(0, 0, 0)" stroke-linejoin="bevel" d=" M 1318.819, 380.416 1316.992, 380.596 1315.236, 381.129 1313.618, 381.994 1312.200, 383.158 1311.036, 384.576 1310.171, 386.195 1309.639, 387.951 1309.460, 389.777 1309.641, 391.603 1310.174, 393.359 1311.040, 394.977 1312.204, 396.396 1313.623, 397.560 1315.242, 398.425 1316.999, 398.957 1318.825, 399.137 1320.652, 398.957 1322.408, 398.425 1324.026, 397.560 1325.444, 396.396 1326.608, 394.977 1327.473, 393.359 1328.005, 391.603 1328.184, 389.777 1328.003, 387.951 1327.470, 386.195 1326.604, 384.576 1325.439, 383.158 1324.020, 381.994 1322.401, 381.129 1320.645, 380.596 1318.819, 380.416 " />
            </g>
            <animate id="anim_ViewLayer_LineSet_000012" begin="-0.333s" attributeName="display" values="none;none;none;none;none;none;none;none;none;none;none;none;none;none;none;none;none;none;none;inline;none" repeatCount="indefinite" keyTimes="0.0;0.05;0.1;0.15;0.2;0.25;0.3;0.35;0.4;0.45;0.5;0.55;0.6;0.65;0.7;0.75;0.8;0.85;0.9;0.95;1" dur="0.833s" />
        </g>
        <g id="frame_0013" inkscape:groupmode="frame" inkscape:label="frame_0013">
            <g inkscape:groupmode="layer" id="strokes" inkscape:label="strokes">
                <path fill="none" stroke-width="20.700000762939453" stroke-linecap="butt" stroke-opacity="1.0" stroke="rgb(0, 0, 0)" stroke-linejoin="bevel" d=" M 1367.924, 407.684 1366.098, 407.864 1364.342, 408.397 1362.724, 409.262 1361.306, 410.426 1360.142, 411.844 1359.277, 413.463 1358.745, 415.219 1358.566, 417.045 1358.747, 418.871 1359.280, 420.628 1360.146, 422.246 1361.311, 423.664 1362.730, 424.829 1364.349, 425.694 1366.105, 426.226 1367.932, 426.406 1369.758, 426.226 1371.514, 425.694 1373.133, 424.829 1374.551, 423.664 1375.715, 422.246 1376.579, 420.628 1377.111, 418.871 1377.290, 417.045 1377.110, 415.219 1376.576, 413.463 1375.710, 411.844 1374.546, 410.426 1373.126, 409.262 1371.507, 408.397 1369.751, 407.864 1367.924, 407.684 " />
            </g>
            <animate id="anim_ViewLayer_LineSet_000013" begin="-0.292s" attributeName="display" values="none;none;none;none;none;none;none;none;none;none;none;none;none;none;none;none;none;none;none;inline;none" repeatCount="indefinite" keyTimes="0.0;0.05;0.1;0.15;0.2;0.25;0.3;0.35;0.4;0.45;0.5;0.55;0.6;0.65;0.7;0.75;0.8;0.85;0.9;0.95;1" dur="0.833s" />
        </g>
        <g id="frame_0014" inkscape:groupmode="frame" inkscape:label="frame_0014">
            <g inkscape:groupmode="layer" id="strokes" inkscape:label="strokes">
                <path fill="none" stroke-width="20.700000762939453" stroke-linecap="butt" stroke-opacity="1.0" stroke="rgb(0, 0, 0)" stroke-linejoin="bevel" d=" M 1414.051, 437.360 1412.225, 437.540 1410.469, 438.072 1408.850, 438.938 1407.432, 440.102 1406.268, 441.520 1405.404, 443.139 1404.872, 444.895 1404.693, 446.721 1404.874, 448.548 1405.407, 450.304 1406.273, 451.922 1407.438, 453.341 1408.857, 454.505 1410.476, 455.370 1412.233, 455.903 1414.060, 456.083 1415.886, 455.903 1417.642, 455.370 1419.260, 454.505 1420.679, 453.341 1421.842, 451.922 1422.707, 450.304 1423.239, 448.548 1423.418, 446.721 1423.237, 444.895 1422.704, 443.139 1421.838, 441.520 1420.673, 440.102 1419.253, 438.938 1417.634, 438.072 1415.878, 437.540 1414.051, 437.360 " />
            </g>
            <animate id="anim_ViewLayer_LineSet_000014" begin="-0.250s" attributeName="display" values="none;none;none;none;none;none;none;none;none;none;none;none;none;none;none;none;none;none;none;inline;none" repeatCount="indefinite" keyTimes="0.0;0.05;0.1;0.15;0.2;0.25;0.3;0.35;0.4;0.45;0.5;0.55;0.6;0.65;0.7;0.75;0.8;0.85;0.9;0.95;1" dur="0.833s" />
        </g>
        <g id="frame_0015" inkscape:groupmode="frame" inkscape:label="frame_0015">
            <g inkscape:groupmode="layer" id="strokes" inkscape:label="strokes">
                <path fill="none" stroke-width="20.700000762939453" stroke-linecap="butt" stroke-opacity="1.0" stroke="rgb(0, 0, 0)" stroke-linejoin="bevel" d=" M 1455.532, 467.037 1453.705, 467.217 1451.949, 467.750 1450.331, 468.615 1448.913, 469.779 1447.749, 471.198 1446.885, 472.817 1446.353, 474.573 1446.174, 476.399 1446.354, 478.226 1446.888, 479.982 1447.754, 481.601 1448.919, 483.019 1450.339, 484.184 1451.958, 485.049 1453.714, 485.582 1455.541, 485.762 1457.367, 485.582 1459.124, 485.049 1460.742, 484.184 1462.160, 483.019 1463.324, 481.601 1464.188, 479.982 1464.720, 478.226 1464.899, 476.399 1464.718, 474.573 1464.185, 472.817 1463.319, 471.198 1462.154, 469.779 1460.734, 468.615 1459.115, 467.750 1457.359, 467.217 1455.532, 467.037 " />
            </g>
            <animate id="anim_ViewLayer_LineSet_000015" begin="-0.208s" attributeName="display" values="none;none;none;none;none;none;none;none;none;none;none;none;none;none;none;none;none;none;none;inline;none" repeatCount="indefinite" keyTimes="0.0;0.05;0.1;0.15;0.2;0.25;0.3;0.35;0.4;0.45;0.5;0.55;0.6;0.65;0.7;0.75;0.8;0.85;0.9;0.95;1" dur="0.833s" />
        </g>
        <g id="frame_0016" inkscape:groupmode="frame" inkscape:label="frame_0016">
            <g inkscape:groupmode="layer" id="strokes" inkscape:label="strokes">
                <path fill="none" stroke-width="20.700000762939453" stroke-linecap="butt" stroke-opacity="1.0" stroke="rgb(0, 0, 0)" stroke-linejoin="bevel" d=" M 1490.698, 494.310 1488.872, 494.490 1487.116, 495.023 1485.498, 495.888 1484.079, 497.052 1482.916, 498.471 1482.051, 500.090 1481.519, 501.846 1481.340, 503.672 1481.521, 505.499 1482.055, 507.255 1482.921, 508.874 1484.086, 510.293 1485.506, 511.457 1487.125, 512.323 1488.881, 512.855 1490.708, 513.035 1492.535, 512.855 1494.291, 512.323 1495.909, 511.457 1497.328, 510.293 1498.491, 508.874 1499.356, 507.255 1499.887, 505.499 1500.066, 503.672 1499.885, 501.846 1499.352, 500.090 1498.486, 498.471 1497.321, 497.052 1495.901, 495.888 1494.282, 495.023 1492.525, 494.490 1490.698, 494.310 " />
            </g>
            <animate id="anim_ViewLayer_LineSet_000016" begin="-0.167s" attributeName="display" values="none;none;none;none;none;none;none;none;none;none;none;none;none;none;none;none;none;none;none;inline;none" repeatCount="indefinite" keyTimes="0.0;0.05;0.1;0.15;0.2;0.25;0.3;0.35;0.4;0.45;0.5;0.55;0.6;0.65;0.7;0.75;0.8;0.85;0.9;0.95;1" dur="0.833s" />
        </g>
        <g id="frame_0017" inkscape:groupmode="frame" inkscape:label="frame_0017">
            <g inkscape:groupmode="layer" id="strokes" inkscape:label="strokes">
                <path fill="none" stroke-width="20.700000762939453" stroke-linecap="butt" stroke-opacity="1.0" stroke="rgb(0, 0, 0)" stroke-linejoin="bevel" d=" M 1517.883, 516.771 1516.057, 516.951 1514.300, 517.484 1512.682, 518.349 1511.264, 519.513 1510.100, 520.932 1509.236, 522.551 1508.704, 524.307 1508.525, 526.134 1508.706, 527.961 1509.240, 529.717 1510.106, 531.336 1511.271, 532.755 1512.691, 533.919 1514.310, 534.784 1516.067, 535.317 1517.893, 535.497 1519.720, 535.317 1521.476, 534.784 1523.094, 533.919 1524.513, 532.755 1525.676, 531.336 1526.541, 529.717 1527.073, 527.961 1527.251, 526.134 1527.070, 524.307 1526.537, 522.551 1525.671, 520.932 1524.505, 519.513 1523.086, 518.349 1521.467, 517.484 1519.710, 516.951 1517.883, 516.771 " />
            </g>
            <animate id="anim_ViewLayer_LineSet_000017" begin="-0.125s" attributeName="display" values="none;none;none;none;none;none;none;none;none;none;none;none;none;none;none;none;none;none;none;inline;none" repeatCount="indefinite" keyTimes="0.0;0.05;0.1;0.15;0.2;0.25;0.3;0.35;0.4;0.45;0.5;0.55;0.6;0.65;0.7;0.75;0.8;0.85;0.9;0.95;1" dur="0.833s" />
        </g>
        <g id="frame_0018" inkscape:groupmode="frame" inkscape:label="frame_0018">
            <g inkscape:groupmode="layer" id="strokes" inkscape:label="strokes">
                <path fill="none" stroke-width="20.700000762939453" stroke-linecap="butt" stroke-opacity="1.0" stroke="rgb(0, 0, 0)" stroke-linejoin="bevel" d=" M 1535.417, 532.013 1533.591, 532.193 1531.834, 532.726 1530.216, 533.591 1528.798, 534.755 1527.634, 536.174 1526.770, 537.793 1526.238, 539.549 1526.059, 541.376 1526.240, 543.203 1526.774, 544.959 1527.640, 546.578 1528.805, 547.997 1530.225, 549.161 1531.844, 550.027 1533.601, 550.560 1535.428, 550.740 1537.255, 550.560 1539.011, 550.027 1540.629, 549.161 1542.047, 547.997 1543.211, 546.578 1544.075, 544.959 1544.607, 543.203 1544.786, 541.376 1544.605, 539.549 1544.071, 537.793 1543.205, 536.174 1542.040, 534.755 1540.620, 533.591 1539.001, 532.726 1537.244, 532.193 1535.417, 532.013 " />
            </g>
            <animate id="anim_ViewLayer_LineSet_000018" begin="-0.083s" attributeName="display" values="none;none;none;none;none;none;none;none;none;none;none;none;none;none;none;none;none;none;none;inline;none" repeatCount="indefinite" keyTimes="0.0;0.05;0.1;0.15;0.2;0.25;0.3;0.35;0.4;0.45;0.5;0.55;0.6;0.65;0.7;0.75;0.8;0.85;0.9;0.95;1" dur="0.833s" />
        </g>
        <g id="frame_0019" inkscape:groupmode="frame" inkscape:label="frame_0019">
            <g inkscape:groupmode="layer" id="strokes" inkscape:label="strokes">
                <path fill="none" stroke-width="20.700000762939453" stroke-linecap="butt" stroke-opacity="1.0" stroke="rgb(0, 0, 0)" stroke-linejoin="bevel" d=" M 1541.633, 537.628 1539.806, 537.808 1538.050, 538.341 1536.432, 539.206 1535.013, 540.371 1533.850, 541.790 1532.985, 543.409 1532.453, 545.165 1532.275, 546.992 1532.456, 548.818 1532.989, 550.575 1533.856, 552.194 1535.021, 553.613 1536.440, 554.777 1538.060, 555.643 1539.817, 556.175 1541.643, 556.355 1543.470, 556.175 1545.226, 555.643 1546.845, 554.777 1548.263, 553.613 1549.426, 552.194 1550.291, 550.575 1550.823, 548.818 1551.001, 546.992 1550.820, 545.165 1550.287, 543.409 1549.420, 541.790 1548.255, 540.371 1546.836, 539.206 1545.216, 538.341 1543.459, 537.808 1541.633, 537.628 " />
            </g>
            <animate id="anim_ViewLayer_LineSet_000019" begin="-0.042s" attributeName="display" values="none;none;none;none;none;none;none;none;none;none;none;none;none;none;none;none;none;none;none;inline;none" repeatCount="indefinite" keyTimes="0.0;0.05;0.1;0.15;0.2;0.25;0.3;0.35;0.4;0.45;0.5;0.55;0.6;0.65;0.7;0.75;0.8;0.85;0.9;0.95;1" dur="0.833s" />
        </g>
    </g>
</svg>
