<?xml version='1.0' encoding='ascii'?>
<svg xmlns="http://www.w3.org/2000/svg" xmlns:inkscape="http://www.inkscape.org/namespaces/inkscape" version="1.1" width="1920" height="1080">
    <g id="ViewLayer_LineSet" inkscape:groupmode="lineset" inkscape:label="ViewLayer_LineSet">
        <g xmlns:inkscape="http://www.inkscape.org/namespaces/inkscape" inkscape:groupmode="layer" inkscape:label="fills" id="fills">
            <path fill_rule="evenodd" stroke="none" fill-opacity="1.0" fill="rgb(204, 204, 204)" d=" M 2007.393, 530.220 2006.643, 530.294 2005.922, 530.512 2005.258, 530.868 2004.675, 531.346 2004.197, 531.928 2003.842, 532.593 2003.623, 533.314 2003.549, 534.064 2003.623, 534.813 2003.842, 535.535 2004.197, 536.199 2004.675, 536.781 2005.258, 537.260 2005.922, 537.615 2006.643, 537.833 2007.393, 537.907 2008.143, 537.833 2008.864, 537.615 2009.528, 537.260 2010.111, 536.781 2010.589, 536.199 2010.944, 535.535 2011.163, 534.813 2011.237, 534.064 2011.163, 533.314 2010.944, 532.593 2010.589, 531.928 2010.111, 531.346 2009.528, 530.868 2008.864, 530.512 2008.143, 530.294 2007.393, 530.220  z" />
            <path fill_rule="evenodd" stroke="none" fill-opacity="1.0" fill="rgb(204, 204, 204)" d=" M 1972.031, 530.220 1971.281, 530.294 1970.560, 530.512 1969.895, 530.868 1969.313, 531.346 1968.835, 531.928 1968.480, 532.593 1968.261, 533.314 1968.187, 534.064 1968.261, 534.813 1968.480, 535.535 1968.835, 536.199 1969.313, 536.781 1969.895, 537.260 1970.560, 537.615 1971.281, 537.833 1972.031, 537.907 1972.781, 537.833 1973.502, 537.615 1974.167, 537.260 1974.749, 536.781 1975.227, 536.199 1975.582, 535.535 1975.801, 534.813 1975.875, 534.064 1975.801, 533.314 1975.582, 532.593 1975.227, 531.928 1974.749, 531.346 1974.167, 530.868 1973.502, 530.512 1972.781, 530.294 1972.031, 530.220  z" />
            <path fill_rule="evenodd" stroke="none" fill-opacity="1.0" fill="rgb(204, 204, 204)" d=" M 1936.669, 530.220 1935.919, 530.294 1935.198, 530.512 1934.533, 530.868 1933.951, 531.346 1933.473, 531.928 1933.118, 532.593 1932.899, 533.314 1932.825, 534.064 1932.899, 534.813 1933.118, 535.535 1933.473, 536.199 1933.951, 536.781 1934.533, 537.260 1935.198, 537.615 1935.919, 537.833 1936.669, 537.907 1937.419, 537.833 1938.140, 537.615 1938.804, 537.260 1939.387, 536.781 1939.865, 536.199 1940.220, 535.535 1940.439, 534.813 1940.512, 534.064 1940.439, 533.314 1940.220, 532.593 1939.865, 531.928 1939.387, 531.346 1938.804, 530.868 1938.140, 530.512 1937.419, 530.294 1936.669, 530.220  z" />
            <path fill_rule="evenodd" stroke="none" fill-opacity="1.0" fill="rgb(204, 204, 204)" d=" M 1901.307, 530.220 1900.557, 530.294 1899.836, 530.512 1899.171, 530.868 1898.589, 531.346 1898.111, 531.928 1897.755, 532.593 1897.537, 533.314 1897.463, 534.064 1897.537, 534.813 1897.755, 535.535 1898.111, 536.199 1898.589, 536.781 1899.171, 537.260 1899.836, 537.615 1900.557, 537.833 1901.307, 537.907 1902.057, 537.833 1902.777, 537.615 1903.442, 537.260 1904.024, 536.781 1904.503, 536.199 1904.858, 535.535 1905.076, 534.813 1905.150, 534.064 1905.076, 533.314 1904.858, 532.593 1904.503, 531.928 1904.024, 531.346 1903.442, 530.868 1902.777, 530.512 1902.057, 530.294 1901.307, 530.220  z" />
            <path fill_rule="evenodd" stroke="none" fill-opacity="1.0" fill="rgb(204, 204, 204)" d=" M 1865.944, 530.220 1865.194, 530.294 1864.473, 530.512 1863.809, 530.868 1863.226, 531.346 1862.748, 531.928 1862.393, 532.593 1862.175, 533.314 1862.101, 534.064 1862.175, 534.813 1862.393, 535.535 1862.748, 536.199 1863.226, 536.781 1863.809, 537.260 1864.473, 537.615 1865.194, 537.833 1865.944, 537.907 1866.694, 537.833 1867.415, 537.615 1868.080, 537.260 1868.662, 536.781 1869.140, 536.199 1869.496, 535.535 1869.714, 534.813 1869.788, 534.064 1869.714, 533.314 1869.496, 532.593 1869.140, 531.928 1868.662, 531.346 1868.080, 530.868 1867.415, 530.512 1866.694, 530.294 1865.944, 530.220  z" />
            <path fill_rule="evenodd" stroke="none" fill-opacity="1.0" fill="rgb(204, 204, 204)" d=" M 1830.582, 530.220 1829.832, 530.294 1829.111, 530.512 1828.447, 530.868 1827.864, 531.346 1827.386, 531.928 1827.031, 532.593 1826.812, 533.314 1826.738, 534.064 1826.812, 534.813 1827.031, 535.535 1827.386, 536.199 1827.864, 536.781 1828.447, 537.260 1829.111, 537.615 1829.832, 537.833 1830.582, 537.907 1831.332, 537.833 1832.053, 537.615 1832.718, 537.260 1833.300, 536.781 1833.778, 536.199 1834.133, 535.535 1834.352, 534.813 1834.426, 534.064 1834.352, 533.314 1834.133, 532.593 1833.778, 531.928 1833.300, 531.346 1832.718, 530.868 1832.053, 530.512 1831.332, 530.294 1830.582, 530.220  z" />
            <path fill_rule="evenodd" stroke="none" fill-opacity="1.0" fill="rgb(204, 204, 204)" d=" M 1795.220, 530.220 1794.470, 530.294 1793.749, 530.512 1793.085, 530.868 1792.502, 531.346 1792.024, 531.928 1791.669, 532.593 1791.450, 533.314 1791.376, 534.064 1791.450, 534.813 1791.669, 535.535 1792.024, 536.199 1792.502, 536.781 1793.085, 537.260 1793.749, 537.615 1794.470, 537.833 1795.220, 537.907 1795.970, 537.833 1796.691, 537.615 1797.355, 537.260 1797.938, 536.781 1798.416, 536.199 1798.771, 535.535 1798.990, 534.813 1799.064, 534.064 1798.990, 533.314 1798.771, 532.593 1798.416, 531.928 1797.938, 531.346 1797.355, 530.868 1796.691, 530.512 1795.970, 530.294 1795.220, 530.220  z" />
            <path fill_rule="evenodd" stroke="none" fill-opacity="1.0" fill="rgb(204, 204, 204)" d=" M 1759.858, 530.220 1759.108, 530.294 1758.387, 530.512 1757.722, 530.868 1757.140, 531.346 1756.662, 531.928 1756.307, 532.593 1756.088, 533.314 1756.014, 534.064 1756.088, 534.813 1756.307, 535.535 1756.662, 536.199 1757.140, 536.781 1757.722, 537.260 1758.387, 537.615 1759.108, 537.833 1759.858, 537.907 1760.608, 537.833 1761.329, 537.615 1761.993, 537.260 1762.576, 536.781 1763.054, 536.199 1763.409, 535.535 1763.628, 534.813 1763.702, 534.064 1763.628, 533.314 1763.409, 532.593 1763.054, 531.928 1762.576, 531.346 1761.993, 530.868 1761.329, 530.512 1760.608, 530.294 1759.858, 530.220  z" />
            <path fill_rule="evenodd" stroke="none" fill-opacity="1.0" fill="rgb(204, 204, 204)" d=" M 1724.496, 530.220 1723.746, 530.294 1723.025, 530.512 1722.360, 530.868 1721.778, 531.346 1721.300, 531.928 1720.944, 532.593 1720.726, 533.314 1720.652, 534.064 1720.726, 534.813 1720.944, 535.535 1721.300, 536.199 1721.778, 536.781 1722.360, 537.260 1723.025, 537.615 1723.746, 537.833 1724.496, 537.907 1725.245, 537.833 1725.967, 537.615 1726.631, 537.260 1727.214, 536.781 1727.692, 536.199 1728.047, 535.535 1728.266, 534.813 1728.339, 534.064 1728.266, 533.314 1728.047, 532.593 1727.692, 531.928 1727.214, 531.346 1726.631, 530.868 1725.967, 530.512 1725.245, 530.294 1724.496, 530.220  z" />
            <path fill_rule="evenodd" stroke="none" fill-opacity="1.0" fill="rgb(204, 204, 204)" d=" M 1689.133, 530.220 1688.384, 530.294 1687.663, 530.512 1686.998, 530.868 1686.416, 531.346 1685.938, 531.928 1685.582, 532.593 1685.364, 533.314 1685.290, 534.064 1685.364, 534.813 1685.582, 535.535 1685.938, 536.199 1686.416, 536.781 1686.998, 537.260 1687.663, 537.615 1688.384, 537.833 1689.133, 537.907 1689.883, 537.833 1690.604, 537.615 1691.269, 537.260 1691.851, 536.781 1692.329, 536.199 1692.685, 535.535 1692.903, 534.813 1692.977, 534.064 1692.903, 533.314 1692.685, 532.593 1692.329, 531.928 1691.851, 531.346 1691.269, 530.868 1690.604, 530.512 1689.883, 530.294 1689.133, 530.220  z" />
            <path fill_rule="evenodd" stroke="none" fill-opacity="1.0" fill="rgb(204, 204, 204)" d=" M 1653.771, 530.220 1653.021, 530.294 1652.300, 530.512 1651.636, 530.868 1651.053, 531.346 1650.575, 531.928 1650.220, 532.593 1650.001, 533.314 1649.928, 534.064 1650.001, 534.813 1650.220, 535.535 1650.575, 536.199 1651.053, 536.781 1651.636, 537.260 1652.300, 537.615 1653.021, 537.833 1653.771, 537.907 1654.521, 537.833 1655.242, 537.615 1655.907, 537.260 1656.489, 536.781 1656.967, 536.199 1657.322, 535.535 1657.541, 534.813 1657.615, 534.064 1657.541, 533.314 1657.322, 532.593 1656.967, 531.928 1656.489, 531.346 1655.907, 530.868 1655.242, 530.512 1654.521, 530.294 1653.771, 530.220  z" />
            <path fill_rule="evenodd" stroke="none" fill-opacity="1.0" fill="rgb(204, 204, 204)" d=" M 1618.409, 530.220 1617.659, 530.294 1616.938, 530.512 1616.274, 530.868 1615.691, 531.346 1615.213, 531.928 1614.858, 532.593 1614.639, 533.314 1614.565, 534.064 1614.639, 534.813 1614.858, 535.535 1615.213, 536.199 1615.691, 536.781 1616.274, 537.260 1616.938, 537.615 1617.659, 537.833 1618.409, 537.907 1619.159, 537.833 1619.880, 537.615 1620.545, 537.260 1621.127, 536.781 1621.605, 536.199 1621.960, 535.535 1622.179, 534.813 1622.253, 534.064 1622.179, 533.314 1621.960, 532.593 1621.605, 531.928 1621.127, 531.346 1620.545, 530.868 1619.880, 530.512 1619.159, 530.294 1618.409, 530.220  z" />
            <path fill_rule="evenodd" stroke="none" fill-opacity="1.0" fill="rgb(204, 204, 204)" d=" M 1583.047, 530.220 1582.297, 530.294 1581.576, 530.512 1580.911, 530.868 1580.329, 531.346 1579.851, 531.928 1579.496, 532.593 1579.277, 533.314 1579.203, 534.064 1579.277, 534.813 1579.496, 535.535 1579.851, 536.199 1580.329, 536.781 1580.911, 537.260 1581.576, 537.615 1582.297, 537.833 1583.047, 537.907 1583.797, 537.833 1584.518, 537.615 1585.182, 537.260 1585.765, 536.781 1586.243, 536.199 1586.598, 535.535 1586.817, 534.813 1586.891, 534.064 1586.817, 533.314 1586.598, 532.593 1586.243, 531.928 1585.765, 531.346 1585.182, 530.868 1584.518, 530.512 1583.797, 530.294 1583.047, 530.220  z" />
            <path fill_rule="evenodd" stroke="none" fill-opacity="1.0" fill="rgb(204, 204, 204)" d=" M 1547.685, 530.220 1546.935, 530.294 1546.214, 530.512 1545.549, 530.868 1544.967, 531.346 1544.489, 531.928 1544.134, 532.593 1543.915, 533.314 1543.841, 534.064 1543.915, 534.813 1544.134, 535.535 1544.489, 536.199 1544.967, 536.781 1545.549, 537.260 1546.214, 537.615 1546.935, 537.833 1547.685, 537.907 1548.435, 537.833 1549.156, 537.615 1549.820, 537.260 1550.403, 536.781 1550.881, 536.199 1551.236, 535.535 1551.455, 534.813 1551.528, 534.064 1551.455, 533.314 1551.236, 532.593 1550.881, 531.928 1550.403, 531.346 1549.820, 530.868 1549.156, 530.512 1548.435, 530.294 1547.685, 530.220  z" />
            <path fill_rule="evenodd" stroke="none" fill-opacity="1.0" fill="rgb(204, 204, 204)" d=" M 1512.323, 530.220 1511.573, 530.294 1510.852, 530.512 1510.187, 530.868 1509.605, 531.346 1509.127, 531.928 1508.771, 532.593 1508.553, 533.314 1508.479, 534.064 1508.553, 534.813 1508.771, 535.535 1509.127, 536.199 1509.605, 536.781 1510.187, 537.260 1510.852, 537.615 1511.573, 537.833 1512.323, 537.907 1513.072, 537.833 1513.794, 537.615 1514.458, 537.260 1515.040, 536.781 1515.519, 536.199 1515.874, 535.535 1516.092, 534.813 1516.166, 534.064 1516.092, 533.314 1515.874, 532.593 1515.519, 531.928 1515.040, 531.346 1514.458, 530.868 1513.794, 530.512 1513.072, 530.294 1512.323, 530.220  z" />
            <path fill_rule="evenodd" stroke="none" fill-opacity="1.0" fill="rgb(204, 204, 204)" d=" M 1476.960, 530.220 1476.210, 530.294 1475.489, 530.512 1474.825, 530.868 1474.243, 531.346 1473.764, 531.928 1473.409, 532.593 1473.191, 533.314 1473.117, 534.064 1473.191, 534.813 1473.409, 535.535 1473.764, 536.199 1474.243, 536.781 1474.825, 537.260 1475.489, 537.615 1476.210, 537.833 1476.960, 537.907 1477.710, 537.833 1478.431, 537.615 1479.096, 537.260 1479.678, 536.781 1480.156, 536.199 1480.512, 535.535 1480.730, 534.813 1480.804, 534.064 1480.730, 533.314 1480.512, 532.593 1480.156, 531.928 1479.678, 531.346 1479.096, 530.868 1478.431, 530.512 1477.710, 530.294 1476.960, 530.220  z" />
            <path fill_rule="evenodd" stroke="none" fill-opacity="1.0" fill="rgb(204, 204, 204)" d=" M 1441.598, 530.220 1440.848, 530.294 1440.127, 530.512 1439.463, 530.868 1438.880, 531.346 1438.402, 531.928 1438.047, 532.593 1437.828, 533.314 1437.755, 534.064 1437.828, 534.813 1438.047, 535.535 1438.402, 536.199 1438.880, 536.781 1439.463, 537.260 1440.127, 537.615 1440.848, 537.833 1441.598, 537.907 1442.348, 537.833 1443.069, 537.615 1443.734, 537.260 1444.316, 536.781 1444.794, 536.199 1445.149, 535.535 1445.368, 534.813 1445.442, 534.064 1445.368, 533.314 1445.149, 532.593 1444.794, 531.928 1444.316, 531.346 1443.734, 530.868 1443.069, 530.512 1442.348, 530.294 1441.598, 530.220  z" />
            <path fill_rule="evenodd" stroke="none" fill-opacity="1.0" fill="rgb(204, 204, 204)" d=" M 1406.236, 530.220 1405.486, 530.294 1404.765, 530.512 1404.100, 530.868 1403.518, 531.346 1403.040, 531.928 1402.685, 532.593 1402.466, 533.314 1402.392, 534.064 1402.466, 534.813 1402.685, 535.535 1403.040, 536.199 1403.518, 536.781 1404.100, 537.260 1404.765, 537.615 1405.486, 537.833 1406.236, 537.907 1406.986, 537.833 1407.707, 537.615 1408.371, 537.260 1408.954, 536.781 1409.432, 536.199 1409.787, 535.535 1410.006, 534.813 1410.080, 534.064 1410.006, 533.314 1409.787, 532.593 1409.432, 531.928 1408.954, 531.346 1408.371, 530.868 1407.707, 530.512 1406.986, 530.294 1406.236, 530.220  z" />
            <path fill_rule="evenodd" stroke="none" fill-opacity="1.0" fill="rgb(204, 204, 204)" d=" M 1370.874, 530.220 1370.124, 530.294 1369.403, 530.512 1368.738, 530.868 1368.156, 531.346 1367.678, 531.928 1367.323, 532.593 1367.104, 533.314 1367.030, 534.064 1367.104, 534.813 1367.323, 535.535 1367.678, 536.199 1368.156, 536.781 1368.738, 537.260 1369.403, 537.615 1370.124, 537.833 1370.874, 537.907 1371.624, 537.833 1372.345, 537.615 1373.009, 537.260 1373.592, 536.781 1374.070, 536.199 1374.425, 535.535 1374.644, 534.813 1374.718, 534.064 1374.644, 533.314 1374.425, 532.593 1374.070, 531.928 1373.592, 531.346 1373.009, 530.868 1372.345, 530.512 1371.624, 530.294 1370.874, 530.220  z" />
            <path fill_rule="evenodd" stroke="none" fill-opacity="1.0" fill="rgb(204, 204, 204)" d=" M 1335.512, 530.220 1334.762, 530.294 1334.041, 530.512 1333.376, 530.868 1332.794, 531.346 1332.316, 531.928 1331.960, 532.593 1331.742, 533.314 1331.668, 534.064 1331.742, 534.813 1331.960, 535.535 1332.316, 536.199 1332.794, 536.781 1333.376, 537.260 1334.041, 537.615 1334.762, 537.833 1335.512, 537.907 1336.262, 537.833 1336.983, 537.615 1337.647, 537.260 1338.229, 536.781 1338.708, 536.199 1339.063, 535.535 1339.281, 534.813 1339.355, 534.064 1339.281, 533.314 1339.063, 532.593 1338.708, 531.928 1338.229, 531.346 1337.647, 530.868 1336.983, 530.512 1336.262, 530.294 1335.512, 530.220  z" />
            <path fill_rule="evenodd" stroke="none" fill-opacity="1.0" fill="rgb(204, 204, 204)" d=" M 1300.149, 530.220 1299.400, 530.294 1298.678, 530.512 1298.014, 530.868 1297.432, 531.346 1296.953, 531.928 1296.598, 532.593 1296.380, 533.314 1296.306, 534.064 1296.380, 534.813 1296.598, 535.535 1296.953, 536.199 1297.432, 536.781 1298.014, 537.260 1298.678, 537.615 1299.400, 537.833 1300.149, 537.907 1300.899, 537.833 1301.620, 537.615 1302.285, 537.260 1302.867, 536.781 1303.345, 536.199 1303.701, 535.535 1303.919, 534.813 1303.993, 534.064 1303.919, 533.314 1303.701, 532.593 1303.345, 531.928 1302.867, 531.346 1302.285, 530.868 1301.620, 530.512 1300.899, 530.294 1300.149, 530.220  z" />
            <path fill_rule="evenodd" stroke="none" fill-opacity="1.0" fill="rgb(204, 204, 204)" d=" M 1264.787, 530.220 1264.037, 530.294 1263.316, 530.512 1262.652, 530.868 1262.069, 531.346 1261.591, 531.928 1261.236, 532.593 1261.017, 533.314 1260.943, 534.064 1261.017, 534.813 1261.236, 535.535 1261.591, 536.199 1262.069, 536.781 1262.652, 537.260 1263.316, 537.615 1264.037, 537.833 1264.787, 537.907 1265.537, 537.833 1266.258, 537.615 1266.923, 537.260 1267.505, 536.781 1267.983, 536.199 1268.338, 535.535 1268.557, 534.813 1268.631, 534.064 1268.557, 533.314 1268.338, 532.593 1267.983, 531.928 1267.505, 531.346 1266.923, 530.868 1266.258, 530.512 1265.537, 530.294 1264.787, 530.220  z" />
            <path fill_rule="evenodd" stroke="none" fill-opacity="1.0" fill="rgb(204, 204, 204)" d=" M 1229.425, 530.220 1228.675, 530.294 1227.954, 530.512 1227.290, 530.868 1226.707, 531.346 1226.229, 531.928 1225.874, 532.593 1225.655, 533.314 1225.581, 534.064 1225.655, 534.813 1225.874, 535.535 1226.229, 536.199 1226.707, 536.781 1227.290, 537.260 1227.954, 537.615 1228.675, 537.833 1229.425, 537.907 1230.175, 537.833 1230.896, 537.615 1231.561, 537.260 1232.143, 536.781 1232.621, 536.199 1232.976, 535.535 1233.195, 534.813 1233.269, 534.064 1233.195, 533.314 1232.976, 532.593 1232.621, 531.928 1232.143, 531.346 1231.561, 530.868 1230.896, 530.512 1230.175, 530.294 1229.425, 530.220  z" />
            <path fill_rule="evenodd" stroke="none" fill-opacity="1.0" fill="rgb(204, 204, 204)" d=" M 1194.063, 530.220 1193.313, 530.294 1192.592, 530.512 1191.927, 530.868 1191.345, 531.346 1190.867, 531.928 1190.512, 532.593 1190.293, 533.314 1190.219, 534.064 1190.293, 534.813 1190.512, 535.535 1190.867, 536.199 1191.345, 536.781 1191.927, 537.260 1192.592, 537.615 1193.313, 537.833 1194.063, 537.907 1194.813, 537.833 1195.534, 537.615 1196.198, 537.260 1196.781, 536.781 1197.259, 536.199 1197.614, 535.535 1197.833, 534.813 1197.907, 534.064 1197.833, 533.314 1197.614, 532.593 1197.259, 531.928 1196.781, 531.346 1196.198, 530.868 1195.534, 530.512 1194.813, 530.294 1194.063, 530.220  z" />
            <path fill_rule="evenodd" stroke="none" fill-opacity="1.0" fill="rgb(204, 204, 204)" d=" M 1158.701, 530.220 1157.951, 530.294 1157.230, 530.512 1156.565, 530.868 1155.983, 531.346 1155.505, 531.928 1155.149, 532.593 1154.931, 533.314 1154.857, 534.064 1154.931, 534.813 1155.149, 535.535 1155.505, 536.199 1155.983, 536.781 1156.565, 537.260 1157.230, 537.615 1157.951, 537.833 1158.701, 537.907 1159.451, 537.833 1160.172, 537.615 1160.836, 537.260 1161.418, 536.781 1161.897, 536.199 1162.252, 535.535 1162.471, 534.813 1162.544, 534.064 1162.471, 533.314 1162.252, 532.593 1161.897, 531.928 1161.418, 531.346 1160.836, 530.868 1160.172, 530.512 1159.451, 530.294 1158.701, 530.220  z" />
            <path fill_rule="evenodd" stroke="none" fill-opacity="1.0" fill="rgb(204, 204, 204)" d=" M 1123.339, 530.220 1122.589, 530.294 1121.868, 530.512 1121.203, 530.868 1120.621, 531.346 1120.142, 531.928 1119.787, 532.593 1119.569, 533.314 1119.495, 534.064 1119.569, 534.813 1119.787, 535.535 1120.142, 536.199 1120.621, 536.781 1121.203, 537.260 1121.868, 537.615 1122.589, 537.833 1123.339, 537.907 1124.088, 537.833 1124.809, 537.615 1125.474, 537.260 1126.056, 536.781 1126.535, 536.199 1126.890, 535.535 1127.108, 534.813 1127.182, 534.064 1127.108, 533.314 1126.890, 532.593 1126.535, 531.928 1126.056, 531.346 1125.474, 530.868 1124.809, 530.512 1124.088, 530.294 1123.339, 530.220  z" />
            <path fill_rule="evenodd" stroke="none" fill-opacity="1.0" fill="rgb(204, 204, 204)" d=" M 1087.976, 530.220 1087.226, 530.294 1086.505, 530.512 1085.841, 530.868 1085.258, 531.346 1084.780, 531.928 1084.425, 532.593 1084.206, 533.314 1084.133, 534.064 1084.206, 534.813 1084.425, 535.535 1084.780, 536.199 1085.258, 536.781 1085.841, 537.260 1086.505, 537.615 1087.226, 537.833 1087.976, 537.907 1088.726, 537.833 1089.447, 537.615 1090.112, 537.260 1090.694, 536.781 1091.172, 536.199 1091.527, 535.535 1091.746, 534.813 1091.820, 534.064 1091.746, 533.314 1091.527, 532.593 1091.172, 531.928 1090.694, 531.346 1090.112, 530.868 1089.447, 530.512 1088.726, 530.294 1087.976, 530.220  z" />
            <path fill_rule="evenodd" stroke="none" fill-opacity="1.0" fill="rgb(204, 204, 204)" d=" M 1052.614, 530.220 1051.864, 530.294 1051.143, 530.512 1050.479, 530.868 1049.896, 531.346 1049.418, 531.928 1049.063, 532.593 1048.844, 533.314 1048.770, 534.064 1048.844, 534.813 1049.063, 535.535 1049.418, 536.199 1049.896, 536.781 1050.479, 537.260 1051.143, 537.615 1051.864, 537.833 1052.614, 537.907 1053.364, 537.833 1054.085, 537.615 1054.750, 537.260 1055.332, 536.781 1055.810, 536.199 1056.165, 535.535 1056.384, 534.813 1056.458, 534.064 1056.384, 533.314 1056.165, 532.593 1055.810, 531.928 1055.332, 531.346 1054.750, 530.868 1054.085, 530.512 1053.364, 530.294 1052.614, 530.220  z" />
            <path fill_rule="evenodd" stroke="none" fill-opacity="1.0" fill="rgb(204, 204, 204)" d=" M 1017.252, 530.220 1016.502, 530.294 1015.781, 530.512 1015.116, 530.868 1014.534, 531.346 1014.056, 531.928 1013.701, 532.593 1013.482, 533.314 1013.408, 534.064 1013.482, 534.813 1013.701, 535.535 1014.056, 536.199 1014.534, 536.781 1015.116, 537.260 1015.781, 537.615 1016.502, 537.833 1017.252, 537.907 1018.002, 537.833 1018.723, 537.615 1019.387, 537.260 1019.970, 536.781 1020.448, 536.199 1020.803, 535.535 1021.022, 534.813 1021.096, 534.064 1021.022, 533.314 1020.803, 532.593 1020.448, 531.928 1019.970, 531.346 1019.387, 530.868 1018.723, 530.512 1018.002, 530.294 1017.252, 530.220  z" />
            <path fill_rule="evenodd" stroke="none" fill-opacity="1.0" fill="rgb(204, 204, 204)" d=" M 981.890, 530.220 981.140, 530.294 980.419, 530.512 979.754, 530.868 979.172, 531.346 978.694, 531.928 978.339, 532.593 978.120, 533.314 978.046, 534.064 978.120, 534.813 978.339, 535.535 978.694, 536.199 979.172, 536.781 979.754, 537.260 980.419, 537.615 981.140, 537.833 981.890, 537.907 982.640, 537.833 983.361, 537.615 984.025, 537.260 984.608, 536.781 985.086, 536.199 985.441, 535.535 985.660, 534.813 985.734, 534.064 985.660, 533.314 985.441, 532.593 985.086, 531.928 984.608, 531.346 984.025, 530.868 983.361, 530.512 982.640, 530.294 981.890, 530.220  z" />
            <path fill_rule="evenodd" stroke="none" fill-opacity="1.0" fill="rgb(204, 204, 204)" d=" M 946.528, 530.220 945.778, 530.294 945.057, 530.512 944.392, 530.868 943.810, 531.346 943.332, 531.928 942.977, 532.593 942.758, 533.314 942.684, 534.064 942.758, 534.813 942.977, 535.535 943.332, 536.199 943.810, 536.781 944.392, 537.260 945.057, 537.615 945.778, 537.833 946.528, 537.907 947.278, 537.833 947.999, 537.615 948.663, 537.260 949.246, 536.781 949.724, 536.199 950.079, 535.535 950.298, 534.813 950.371, 534.064 950.298, 533.314 950.079, 532.593 949.724, 531.928 949.246, 531.346 948.663, 530.868 947.999, 530.512 947.278, 530.294 946.528, 530.220  z" />
            <path fill_rule="evenodd" stroke="none" fill-opacity="1.0" fill="rgb(204, 204, 204)" d=" M 911.166, 530.220 910.416, 530.294 909.695, 530.512 909.030, 530.868 908.448, 531.346 907.970, 531.928 907.614, 532.593 907.396, 533.314 907.322, 534.064 907.396, 534.813 907.614, 535.535 907.970, 536.199 908.448, 536.781 909.030, 537.260 909.695, 537.615 910.416, 537.833 911.166, 537.907 911.915, 537.833 912.636, 537.615 913.301, 537.260 913.883, 536.781 914.361, 536.199 914.717, 535.535 914.935, 534.813 915.009, 534.064 914.935, 533.314 914.717, 532.593 914.361, 531.928 913.883, 531.346 913.301, 530.868 912.636, 530.512 911.915, 530.294 911.166, 530.220  z" />
            <path fill_rule="evenodd" stroke="none" fill-opacity="1.0" fill="rgb(204, 204, 204)" d=" M 875.803, 530.220 875.054, 530.294 874.332, 530.512 873.668, 530.868 873.085, 531.346 872.608, 531.928 872.252, 532.593 872.034, 533.314 871.960, 534.064 872.034, 534.813 872.252, 535.535 872.608, 536.199 873.085, 536.781 873.668, 537.260 874.332, 537.615 875.054, 537.833 875.803, 537.907 876.553, 537.833 877.274, 537.615 877.939, 537.260 878.521, 536.781 878.999, 536.199 879.354, 535.535 879.573, 534.813 879.647, 534.064 879.573, 533.314 879.354, 532.593 878.999, 531.928 878.521, 531.346 877.939, 530.868 877.274, 530.512 876.553, 530.294 875.803, 530.220  z" />
            <path fill_rule="evenodd" stroke="none" fill-opacity="1.0" fill="rgb(204, 204, 204)" d=" M 840.441, 530.220 839.691, 530.294 838.970, 530.512 838.306, 530.868 837.723, 531.346 837.245, 531.928 836.890, 532.593 836.671, 533.314 836.598, 534.064 836.671, 534.813 836.890, 535.535 837.245, 536.199 837.723, 536.781 838.306, 537.260 838.970, 537.615 839.691, 537.833 840.441, 537.907 841.191, 537.833 841.912, 537.615 842.577, 537.260 843.159, 536.781 843.637, 536.199 843.992, 535.535 844.211, 534.813 844.285, 534.064 844.211, 533.314 843.992, 532.593 843.637, 531.928 843.159, 531.346 842.577, 530.868 841.912, 530.512 841.191, 530.294 840.441, 530.220  z" />
            <path fill_rule="evenodd" stroke="none" fill-opacity="1.0" fill="rgb(204, 204, 204)" d=" M 805.079, 530.220 804.329, 530.294 803.608, 530.512 802.944, 530.868 802.361, 531.346 801.883, 531.928 801.528, 532.593 801.309, 533.314 801.235, 534.064 801.309, 534.813 801.528, 535.535 801.883, 536.199 802.361, 536.781 802.944, 537.260 803.608, 537.615 804.329, 537.833 805.079, 537.907 805.829, 537.833 806.550, 537.615 807.215, 537.260 807.797, 536.781 808.275, 536.199 808.630, 535.535 808.849, 534.813 808.923, 534.064 808.849, 533.314 808.630, 532.593 808.275, 531.928 807.797, 531.346 807.215, 530.868 806.550, 530.512 805.829, 530.294 805.079, 530.220  z" />
            <path fill_rule="evenodd" stroke="none" fill-opacity="1.0" fill="rgb(204, 204, 204)" d=" M 769.717, 530.220 768.967, 530.294 768.246, 530.512 767.582, 530.868 766.999, 531.346 766.521, 531.928 766.166, 532.593 765.947, 533.314 765.873, 534.064 765.947, 534.813 766.166, 535.535 766.521, 536.199 766.999, 536.781 767.582, 537.260 768.246, 537.615 768.967, 537.833 769.717, 537.907 770.467, 537.833 771.188, 537.615 771.852, 537.260 772.435, 536.781 772.913, 536.199 773.268, 535.535 773.487, 534.813 773.561, 534.064 773.487, 533.314 773.268, 532.593 772.913, 531.928 772.435, 531.346 771.852, 530.868 771.188, 530.512 770.467, 530.294 769.717, 530.220  z" />
            <path fill_rule="evenodd" stroke="none" fill-opacity="1.0" fill="rgb(204, 204, 204)" d=" M 734.355, 530.220 733.605, 530.294 732.884, 530.512 732.219, 530.868 731.637, 531.346 731.159, 531.928 730.804, 532.593 730.585, 533.314 730.511, 534.064 730.585, 534.813 730.804, 535.535 731.159, 536.199 731.637, 536.781 732.219, 537.260 732.884, 537.615 733.605, 537.833 734.355, 537.907 735.105, 537.833 735.826, 537.615 736.490, 537.260 737.073, 536.781 737.551, 536.199 737.906, 535.535 738.125, 534.813 738.199, 534.064 738.125, 533.314 737.906, 532.593 737.551, 531.928 737.073, 531.346 736.490, 530.868 735.826, 530.512 735.105, 530.294 734.355, 530.220  z" />
            <path fill_rule="evenodd" stroke="none" fill-opacity="1.0" fill="rgb(204, 204, 204)" d=" M 698.993, 530.220 698.243, 530.294 697.522, 530.512 696.857, 530.868 696.275, 531.346 695.797, 531.928 695.442, 532.593 695.223, 533.314 695.149, 534.064 695.223, 534.813 695.442, 535.535 695.797, 536.199 696.275, 536.781 696.857, 537.260 697.522, 537.615 698.243, 537.833 698.993, 537.907 699.743, 537.833 700.464, 537.615 701.128, 537.260 701.711, 536.781 702.189, 536.199 702.544, 535.535 702.763, 534.813 702.836, 534.064 702.763, 533.314 702.544, 532.593 702.189, 531.928 701.711, 531.346 701.128, 530.868 700.464, 530.512 699.743, 530.294 698.993, 530.220  z" />
            <path fill_rule="evenodd" stroke="none" fill-opacity="1.0" fill="rgb(204, 204, 204)" d=" M 663.631, 530.220 662.881, 530.294 662.160, 530.512 661.495, 530.868 660.913, 531.346 660.435, 531.928 660.080, 532.593 659.861, 533.314 659.787, 534.064 659.861, 534.813 660.080, 535.535 660.435, 536.199 660.913, 536.781 661.495, 537.260 662.160, 537.615 662.881, 537.833 663.631, 537.907 664.380, 537.833 665.102, 537.615 665.766, 537.260 666.349, 536.781 666.827, 536.199 667.182, 535.535 667.401, 534.813 667.474, 534.064 667.401, 533.314 667.182, 532.593 666.827, 531.928 666.349, 531.346 665.766, 530.868 665.102, 530.512 664.380, 530.294 663.631, 530.220  z" />
            <path fill_rule="evenodd" stroke="none" fill-opacity="1.0" fill="rgb(204, 204, 204)" d=" M 628.269, 530.220 627.519, 530.294 626.798, 530.512 626.133, 530.868 625.551, 531.346 625.073, 531.928 624.717, 532.593 624.499, 533.314 624.425, 534.064 624.499, 534.813 624.717, 535.535 625.073, 536.199 625.551, 536.781 626.133, 537.260 626.798, 537.615 627.519, 537.833 628.269, 537.907 629.018, 537.833 629.740, 537.615 630.404, 537.260 630.986, 536.781 631.464, 536.199 631.820, 535.535 632.038, 534.813 632.112, 534.064 632.038, 533.314 631.820, 532.593 631.464, 531.928 630.986, 531.346 630.404, 530.868 629.740, 530.512 629.018, 530.294 628.269, 530.220  z" />
            <path fill_rule="evenodd" stroke="none" fill-opacity="1.0" fill="rgb(204, 204, 204)" d=" M 592.906, 530.220 592.157, 530.294 591.435, 530.512 590.771, 530.868 590.188, 531.346 589.710, 531.928 589.355, 532.593 589.137, 533.314 589.063, 534.064 589.137, 534.813 589.355, 535.535 589.710, 536.199 590.188, 536.781 590.771, 537.260 591.435, 537.615 592.157, 537.833 592.906, 537.907 593.656, 537.833 594.377, 537.615 595.042, 537.260 595.624, 536.781 596.102, 536.199 596.458, 535.535 596.676, 534.813 596.750, 534.064 596.676, 533.314 596.458, 532.593 596.102, 531.928 595.624, 531.346 595.042, 530.868 594.377, 530.512 593.656, 530.294 592.906, 530.220  z" />
            <path fill_rule="evenodd" stroke="none" fill-opacity="1.0" fill="rgb(204, 204, 204)" d=" M 557.544, 530.220 556.794, 530.294 556.073, 530.512 555.409, 530.868 554.826, 531.346 554.348, 531.928 553.993, 532.593 553.774, 533.314 553.701, 534.064 553.774, 534.813 553.993, 535.535 554.348, 536.199 554.826, 536.781 555.409, 537.260 556.073, 537.615 556.794, 537.833 557.544, 537.907 558.294, 537.833 559.015, 537.615 559.680, 537.260 560.262, 536.781 560.740, 536.199 561.095, 535.535 561.314, 534.813 561.388, 534.064 561.314, 533.314 561.095, 532.593 560.740, 531.928 560.262, 531.346 559.680, 530.868 559.015, 530.512 558.294, 530.294 557.544, 530.220  z" />
            <path fill_rule="evenodd" stroke="none" fill-opacity="1.0" fill="rgb(204, 204, 204)" d=" M 522.182, 530.220 521.432, 530.294 520.711, 530.512 520.047, 530.868 519.464, 531.346 518.986, 531.928 518.631, 532.593 518.412, 533.314 518.338, 534.064 518.412, 534.813 518.631, 535.535 518.986, 536.199 519.464, 536.781 520.047, 537.260 520.711, 537.615 521.432, 537.833 522.182, 537.907 522.932, 537.833 523.653, 537.615 524.318, 537.260 524.900, 536.781 525.378, 536.199 525.733, 535.535 525.952, 534.813 526.026, 534.064 525.952, 533.314 525.733, 532.593 525.378, 531.928 524.900, 531.346 524.318, 530.868 523.653, 530.512 522.932, 530.294 522.182, 530.220  z" />
            <path fill_rule="evenodd" stroke="none" fill-opacity="1.0" fill="rgb(204, 204, 204)" d=" M 486.820, 530.220 486.070, 530.294 485.349, 530.512 484.685, 530.868 484.102, 531.346 483.624, 531.928 483.269, 532.593 483.050, 533.314 482.976, 534.064 483.050, 534.813 483.269, 535.535 483.624, 536.199 484.102, 536.781 484.685, 537.260 485.349, 537.615 486.070, 537.833 486.820, 537.907 487.570, 537.833 488.291, 537.615 488.955, 537.260 489.538, 536.781 490.016, 536.199 490.371, 535.535 490.590, 534.813 490.664, 534.064 490.590, 533.314 490.371, 532.593 490.016, 531.928 489.538, 531.346 488.955, 530.868 488.291, 530.512 487.570, 530.294 486.820, 530.220  z" />
            <path fill_rule="evenodd" stroke="none" fill-opacity="1.0" fill="rgb(204, 204, 204)" d=" M 451.458, 530.220 450.708, 530.294 449.987, 530.512 449.322, 530.868 448.740, 531.346 448.262, 531.928 447.907, 532.593 447.688, 533.314 447.614, 534.064 447.688, 534.813 447.907, 535.535 448.262, 536.199 448.740, 536.781 449.322, 537.260 449.987, 537.615 450.708, 537.833 451.458, 537.907 452.208, 537.833 452.929, 537.615 453.593, 537.260 454.176, 536.781 454.654, 536.199 455.009, 535.535 455.228, 534.813 455.302, 534.064 455.228, 533.314 455.009, 532.593 454.654, 531.928 454.176, 531.346 453.593, 530.868 452.929, 530.512 452.208, 530.294 451.458, 530.220  z" />
            <path fill_rule="evenodd" stroke="none" fill-opacity="1.0" fill="rgb(204, 204, 204)" d=" M 416.096, 530.220 415.346, 530.294 414.625, 530.512 413.960, 530.868 413.378, 531.346 412.900, 531.928 412.545, 532.593 412.326, 533.314 412.252, 534.064 412.326, 534.813 412.545, 535.535 412.900, 536.199 413.378, 536.781 413.960, 537.260 414.625, 537.615 415.346, 537.833 416.096, 537.907 416.846, 537.833 417.567, 537.615 418.231, 537.260 418.814, 536.781 419.292, 536.199 419.647, 535.535 419.866, 534.813 419.939, 534.064 419.866, 533.314 419.647, 532.593 419.292, 531.928 418.814, 531.346 418.231, 530.868 417.567, 530.512 416.846, 530.294 416.096, 530.220  z" />
            <path fill_rule="evenodd" stroke="none" fill-opacity="1.0" fill="rgb(204, 204, 204)" d=" M 380.734, 530.220 379.984, 530.294 379.263, 530.512 378.598, 530.868 378.016, 531.346 377.538, 531.928 377.182, 532.593 376.964, 533.314 376.890, 534.064 376.964, 534.813 377.182, 535.535 377.538, 536.199 378.016, 536.781 378.598, 537.260 379.263, 537.615 379.984, 537.833 380.734, 537.907 381.483, 537.833 382.205, 537.615 382.869, 537.260 383.452, 536.781 383.930, 536.199 384.285, 535.535 384.503, 534.813 384.577, 534.064 384.503, 533.314 384.285, 532.593 383.930, 531.928 383.452, 531.346 382.869, 530.868 382.205, 530.512 381.483, 530.294 380.734, 530.220  z" />
            <path fill_rule="evenodd" stroke="none" fill-opacity="1.0" fill="rgb(204, 204, 204)" d=" M 345.371, 530.220 344.622, 530.294 343.901, 530.512 343.236, 530.868 342.654, 531.346 342.176, 531.928 341.820, 532.593 341.602, 533.314 341.528, 534.064 341.602, 534.813 341.820, 535.535 342.176, 536.199 342.654, 536.781 343.236, 537.260 343.901, 537.615 344.622, 537.833 345.371, 537.907 346.121, 537.833 346.842, 537.615 347.507, 537.260 348.089, 536.781 348.567, 536.199 348.923, 535.535 349.141, 534.813 349.215, 534.064 349.141, 533.314 348.923, 532.593 348.567, 531.928 348.089, 531.346 347.507, 530.868 346.842, 530.512 346.121, 530.294 345.371, 530.220  z" />
            <path fill_rule="evenodd" stroke="none" fill-opacity="1.0" fill="rgb(204, 204, 204)" d=" M 310.009, 530.220 309.259, 530.294 308.538, 530.512 307.874, 530.868 307.291, 531.346 306.813, 531.928 306.458, 532.593 306.240, 533.314 306.166, 534.064 306.240, 534.813 306.458, 535.535 306.813, 536.199 307.291, 536.781 307.874, 537.260 308.538, 537.615 309.259, 537.833 310.009, 537.907 310.759, 537.833 311.480, 537.615 312.145, 537.260 312.727, 536.781 313.205, 536.199 313.560, 535.535 313.779, 534.813 313.853, 534.064 313.779, 533.314 313.560, 532.593 313.205, 531.928 312.727, 531.346 312.145, 530.868 311.480, 530.512 310.759, 530.294 310.009, 530.220  z" />
            <path fill_rule="evenodd" stroke="none" fill-opacity="1.0" fill="rgb(204, 204, 204)" d=" M 274.647, 530.220 273.897, 530.294 273.176, 530.512 272.512, 530.868 271.929, 531.346 271.451, 531.928 271.096, 532.593 270.877, 533.314 270.804, 534.064 270.877, 534.813 271.096, 535.535 271.451, 536.199 271.929, 536.781 272.512, 537.260 273.176, 537.615 273.897, 537.833 274.647, 537.907 275.397, 537.833 276.118, 537.615 276.783, 537.260 277.365, 536.781 277.843, 536.199 278.198, 535.535 278.417, 534.813 278.491, 534.064 278.417, 533.314 278.198, 532.593 277.843, 531.928 277.365, 531.346 276.783, 530.868 276.118, 530.512 275.397, 530.294 274.647, 530.220  z" />
            <path fill_rule="evenodd" stroke="none" fill-opacity="1.0" fill="rgb(204, 204, 204)" d=" M 239.285, 530.220 238.535, 530.294 237.814, 530.512 237.150, 530.868 236.567, 531.346 236.089, 531.928 235.734, 532.593 235.515, 533.314 235.441, 534.064 235.515, 534.813 235.734, 535.535 236.089, 536.199 236.567, 536.781 237.150, 537.260 237.814, 537.615 238.535, 537.833 239.285, 537.907 240.035, 537.833 240.756, 537.615 241.421, 537.260 242.003, 536.781 242.481, 536.199 242.836, 535.535 243.055, 534.813 243.129, 534.064 243.055, 533.314 242.836, 532.593 242.481, 531.928 242.003, 531.346 241.421, 530.868 240.756, 530.512 240.035, 530.294 239.285, 530.220  z" />
            <path fill_rule="evenodd" stroke="none" fill-opacity="1.0" fill="rgb(204, 204, 204)" d=" M 203.923, 530.220 203.173, 530.294 202.452, 530.512 201.787, 530.868 201.205, 531.346 200.727, 531.928 200.372, 532.593 200.153, 533.314 200.079, 534.064 200.153, 534.813 200.372, 535.535 200.727, 536.199 201.205, 536.781 201.787, 537.260 202.452, 537.615 203.173, 537.833 203.923, 537.907 204.673, 537.833 205.394, 537.615 206.058, 537.260 206.641, 536.781 207.119, 536.199 207.474, 535.535 207.693, 534.813 207.767, 534.064 207.693, 533.314 207.474, 532.593 207.119, 531.928 206.641, 531.346 206.058, 530.868 205.394, 530.512 204.673, 530.294 203.923, 530.220  z" />
            <path fill_rule="evenodd" stroke="none" fill-opacity="1.0" fill="rgb(204, 204, 204)" d=" M 168.561, 530.220 167.811, 530.294 167.090, 530.512 166.425, 530.868 165.843, 531.346 165.365, 531.928 165.010, 532.593 164.791, 533.314 164.717, 534.064 164.791, 534.813 165.010, 535.535 165.365, 536.199 165.843, 536.781 166.425, 537.260 167.090, 537.615 167.811, 537.833 168.561, 537.907 169.311, 537.833 170.032, 537.615 170.696, 537.260 171.279, 536.781 171.757, 536.199 172.112, 535.535 172.331, 534.813 172.405, 534.064 172.331, 533.314 172.112, 532.593 171.757, 531.928 171.279, 531.346 170.696, 530.868 170.032, 530.512 169.311, 530.294 168.561, 530.220  z" />
            <path fill_rule="evenodd" stroke="none" fill-opacity="1.0" fill="rgb(204, 204, 204)" d=" M 133.199, 530.220 132.449, 530.294 131.728, 530.512 131.063, 530.868 130.481, 531.346 130.003, 531.928 129.648, 532.593 129.429, 533.314 129.355, 534.064 129.429, 534.813 129.648, 535.535 130.003, 536.199 130.481, 536.781 131.063, 537.260 131.728, 537.615 132.449, 537.833 133.199, 537.907 133.949, 537.833 134.670, 537.615 135.334, 537.260 135.917, 536.781 136.395, 536.199 136.750, 535.535 136.968, 534.813 137.042, 534.064 136.968, 533.314 136.750, 532.593 136.395, 531.928 135.917, 531.346 135.334, 530.868 134.670, 530.512 133.949, 530.294 133.199, 530.220  z" />
            <path fill_rule="evenodd" stroke="none" fill-opacity="1.0" fill="rgb(204, 204, 204)" d=" M 97.836, 530.220 97.087, 530.294 96.366, 530.512 95.701, 530.868 95.119, 531.346 94.641, 531.928 94.285, 532.593 94.067, 533.314 93.993, 534.064 94.067, 534.813 94.285, 535.535 94.641, 536.199 95.119, 536.781 95.701, 537.260 96.366, 537.615 97.087, 537.833 97.836, 537.907 98.586, 537.833 99.307, 537.615 99.972, 537.260 100.554, 536.781 101.032, 536.199 101.388, 535.535 101.606, 534.813 101.680, 534.064 101.606, 533.314 101.388, 532.593 101.032, 531.928 100.554, 531.346 99.972, 530.868 99.307, 530.512 98.586, 530.294 97.836, 530.220  z" />
            <path fill_rule="evenodd" stroke="none" fill-opacity="1.0" fill="rgb(204, 204, 204)" d=" M 62.474, 530.220 61.725, 530.294 61.003, 530.512 60.339, 530.868 59.756, 531.346 59.278, 531.928 58.923, 532.593 58.705, 533.314 58.631, 534.064 58.705, 534.813 58.923, 535.535 59.278, 536.199 59.756, 536.781 60.339, 537.260 61.003, 537.615 61.725, 537.833 62.474, 537.907 63.224, 537.833 63.945, 537.615 64.610, 537.260 65.192, 536.781 65.670, 536.199 66.025, 535.535 66.244, 534.813 66.318, 534.064 66.244, 533.314 66.025, 532.593 65.670, 531.928 65.192, 531.346 64.610, 530.868 63.945, 530.512 63.224, 530.294 62.474, 530.220  z" />
            <path fill_rule="evenodd" stroke="none" fill-opacity="1.0" fill="rgb(204, 204, 204)" d=" M 27.112, 530.220 26.362, 530.294 25.641, 530.512 24.977, 530.868 24.394, 531.346 23.916, 531.928 23.561, 532.593 23.342, 533.314 23.269, 534.064 23.342, 534.813 23.561, 535.535 23.916, 536.199 24.394, 536.781 24.977, 537.260 25.641, 537.615 26.362, 537.833 27.112, 537.907 27.862, 537.833 28.583, 537.615 29.248, 537.260 29.830, 536.781 30.308, 536.199 30.663, 535.535 30.882, 534.813 30.956, 534.064 30.882, 533.314 30.663, 532.593 30.308, 531.928 29.830, 531.346 29.248, 530.868 28.583, 530.512 27.862, 530.294 27.112, 530.220  z" />
        </g>
        <g inkscape:groupmode="layer" id="strokes" inkscape:label="strokes">
            <path fill="none" stroke-width="20.0" stroke-linecap="butt" stroke-opacity="1.0" stroke="rgb(0, 0, 0)" stroke-linejoin="round" d=" M 27.112, 530.220 26.362, 530.294 25.641, 530.512 24.977, 530.868 24.394, 531.346 23.916, 531.928 23.561, 532.593 23.342, 533.314 23.269, 534.064 23.342, 534.813 23.561, 535.535 23.916, 536.199 24.394, 536.781 24.977, 537.260 25.641, 537.615 26.362, 537.833 27.112, 537.907 27.862, 537.833 28.583, 537.615 29.248, 537.260 29.830, 536.781 30.308, 536.199 30.663, 535.535 30.882, 534.813 30.956, 534.064 30.882, 533.314 30.663, 532.593 30.308, 531.928 29.830, 531.346 29.248, 530.868 28.583, 530.512 27.862, 530.294 27.112, 530.220 " />
            <path fill="none" stroke-width="20.0" stroke-linecap="butt" stroke-opacity="1.0" stroke="rgb(0, 0, 0)" stroke-linejoin="round" d=" M 62.474, 530.220 61.725, 530.294 61.003, 530.512 60.339, 530.868 59.756, 531.346 59.278, 531.928 58.923, 532.593 58.705, 533.314 58.631, 534.064 58.705, 534.813 58.923, 535.535 59.278, 536.199 59.756, 536.781 60.339, 537.260 61.003, 537.615 61.725, 537.833 62.474, 537.907 63.224, 537.833 63.945, 537.615 64.610, 537.260 65.192, 536.781 65.670, 536.199 66.025, 535.535 66.244, 534.813 66.318, 534.064 66.244, 533.314 66.025, 532.593 65.670, 531.928 65.192, 531.346 64.610, 530.868 63.945, 530.512 63.224, 530.294 62.474, 530.220 " />
            <path fill="none" stroke-width="20.0" stroke-linecap="butt" stroke-opacity="1.0" stroke="rgb(0, 0, 0)" stroke-linejoin="round" d=" M 97.836, 530.220 97.087, 530.294 96.366, 530.512 95.701, 530.868 95.119, 531.346 94.641, 531.928 94.285, 532.593 94.067, 533.314 93.993, 534.064 94.067, 534.813 94.285, 535.535 94.641, 536.199 95.119, 536.781 95.701, 537.260 96.366, 537.615 97.087, 537.833 97.836, 537.907 98.586, 537.833 99.307, 537.615 99.972, 537.260 100.554, 536.781 101.032, 536.199 101.388, 535.535 101.606, 534.813 101.680, 534.064 101.606, 533.314 101.388, 532.593 101.032, 531.928 100.554, 531.346 99.972, 530.868 99.307, 530.512 98.586, 530.294 97.836, 530.220 " />
            <path fill="none" stroke-width="20.0" stroke-linecap="butt" stroke-opacity="1.0" stroke="rgb(0, 0, 0)" stroke-linejoin="round" d=" M 133.199, 530.220 132.449, 530.294 131.728, 530.512 131.063, 530.868 130.481, 531.346 130.003, 531.928 129.648, 532.593 129.429, 533.314 129.355, 534.064 129.429, 534.813 129.648, 535.535 130.003, 536.199 130.481, 536.781 131.063, 537.260 131.728, 537.615 132.449, 537.833 133.199, 537.907 133.949, 537.833 134.670, 537.615 135.334, 537.260 135.917, 536.781 136.395, 536.199 136.750, 535.535 136.968, 534.813 137.042, 534.064 136.968, 533.314 136.750, 532.593 136.395, 531.928 135.917, 531.346 135.334, 530.868 134.670, 530.512 133.949, 530.294 133.199, 530.220 " />
            <path fill="none" stroke-width="20.0" stroke-linecap="butt" stroke-opacity="1.0" stroke="rgb(0, 0, 0)" stroke-linejoin="round" d=" M 168.561, 530.220 167.811, 530.294 167.090, 530.512 166.425, 530.868 165.843, 531.346 165.365, 531.928 165.010, 532.593 164.791, 533.314 164.717, 534.064 164.791, 534.813 165.010, 535.535 165.365, 536.199 165.843, 536.781 166.425, 537.260 167.090, 537.615 167.811, 537.833 168.561, 537.907 169.311, 537.833 170.032, 537.615 170.696, 537.260 171.279, 536.781 171.757, 536.199 172.112, 535.535 172.331, 534.813 172.405, 534.064 172.331, 533.314 172.112, 532.593 171.757, 531.928 171.279, 531.346 170.696, 530.868 170.032, 530.512 169.311, 530.294 168.561, 530.220 " />
            <path fill="none" stroke-width="20.0" stroke-linecap="butt" stroke-opacity="1.0" stroke="rgb(0, 0, 0)" stroke-linejoin="round" d=" M 203.923, 530.220 203.173, 530.294 202.452, 530.512 201.787, 530.868 201.205, 531.346 200.727, 531.928 200.372, 532.593 200.153, 533.314 200.079, 534.064 200.153, 534.813 200.372, 535.535 200.727, 536.199 201.205, 536.781 201.787, 537.260 202.452, 537.615 203.173, 537.833 203.923, 537.907 204.673, 537.833 205.394, 537.615 206.058, 537.260 206.641, 536.781 207.119, 536.199 207.474, 535.535 207.693, 534.813 207.767, 534.064 207.693, 533.314 207.474, 532.593 207.119, 531.928 206.641, 531.346 206.058, 530.868 205.394, 530.512 204.673, 530.294 203.923, 530.220 " />
            <path fill="none" stroke-width="20.0" stroke-linecap="butt" stroke-opacity="1.0" stroke="rgb(0, 0, 0)" stroke-linejoin="round" d=" M 239.285, 530.220 238.535, 530.294 237.814, 530.512 237.150, 530.868 236.567, 531.346 236.089, 531.928 235.734, 532.593 235.515, 533.314 235.441, 534.064 235.515, 534.813 235.734, 535.535 236.089, 536.199 236.567, 536.781 237.150, 537.260 237.814, 537.615 238.535, 537.833 239.285, 537.907 240.035, 537.833 240.756, 537.615 241.421, 537.260 242.003, 536.781 242.481, 536.199 242.836, 535.535 243.055, 534.813 243.129, 534.064 243.055, 533.314 242.836, 532.593 242.481, 531.928 242.003, 531.346 241.421, 530.868 240.756, 530.512 240.035, 530.294 239.285, 530.220 " />
            <path fill="none" stroke-width="20.0" stroke-linecap="butt" stroke-opacity="1.0" stroke="rgb(0, 0, 0)" stroke-linejoin="round" d=" M 274.647, 530.220 273.897, 530.294 273.176, 530.512 272.512, 530.868 271.929, 531.346 271.451, 531.928 271.096, 532.593 270.877, 533.314 270.804, 534.064 270.877, 534.813 271.096, 535.535 271.451, 536.199 271.929, 536.781 272.512, 537.260 273.176, 537.615 273.897, 537.833 274.647, 537.907 275.397, 537.833 276.118, 537.615 276.783, 537.260 277.365, 536.781 277.843, 536.199 278.198, 535.535 278.417, 534.813 278.491, 534.064 278.417, 533.314 278.198, 532.593 277.843, 531.928 277.365, 531.346 276.783, 530.868 276.118, 530.512 275.397, 530.294 274.647, 530.220 " />
            <path fill="none" stroke-width="20.0" stroke-linecap="butt" stroke-opacity="1.0" stroke="rgb(0, 0, 0)" stroke-linejoin="round" d=" M 310.009, 530.220 309.259, 530.294 308.538, 530.512 307.874, 530.868 307.291, 531.346 306.813, 531.928 306.458, 532.593 306.240, 533.314 306.166, 534.064 306.240, 534.813 306.458, 535.535 306.813, 536.199 307.291, 536.781 307.874, 537.260 308.538, 537.615 309.259, 537.833 310.009, 537.907 310.759, 537.833 311.480, 537.615 312.145, 537.260 312.727, 536.781 313.205, 536.199 313.560, 535.535 313.779, 534.813 313.853, 534.064 313.779, 533.314 313.560, 532.593 313.205, 531.928 312.727, 531.346 312.145, 530.868 311.480, 530.512 310.759, 530.294 310.009, 530.220 " />
            <path fill="none" stroke-width="20.0" stroke-linecap="butt" stroke-opacity="1.0" stroke="rgb(0, 0, 0)" stroke-linejoin="round" d=" M 345.371, 530.220 344.622, 530.294 343.901, 530.512 343.236, 530.868 342.654, 531.346 342.176, 531.928 341.820, 532.593 341.602, 533.314 341.528, 534.064 341.602, 534.813 341.820, 535.535 342.176, 536.199 342.654, 536.781 343.236, 537.260 343.901, 537.615 344.622, 537.833 345.371, 537.907 346.121, 537.833 346.842, 537.615 347.507, 537.260 348.089, 536.781 348.567, 536.199 348.923, 535.535 349.141, 534.813 349.215, 534.064 349.141, 533.314 348.923, 532.593 348.567, 531.928 348.089, 531.346 347.507, 530.868 346.842, 530.512 346.121, 530.294 345.371, 530.220 " />
            <path fill="none" stroke-width="20.0" stroke-linecap="butt" stroke-opacity="1.0" stroke="rgb(0, 0, 0)" stroke-linejoin="round" d=" M 380.734, 530.220 379.984, 530.294 379.263, 530.512 378.598, 530.868 378.016, 531.346 377.538, 531.928 377.182, 532.593 376.964, 533.314 376.890, 534.064 376.964, 534.813 377.182, 535.535 377.538, 536.199 378.016, 536.781 378.598, 537.260 379.263, 537.615 379.984, 537.833 380.734, 537.907 381.483, 537.833 382.205, 537.615 382.869, 537.260 383.452, 536.781 383.930, 536.199 384.285, 535.535 384.503, 534.813 384.577, 534.064 384.503, 533.314 384.285, 532.593 383.930, 531.928 383.452, 531.346 382.869, 530.868 382.205, 530.512 381.483, 530.294 380.734, 530.220 " />
            <path fill="none" stroke-width="20.0" stroke-linecap="butt" stroke-opacity="1.0" stroke="rgb(0, 0, 0)" stroke-linejoin="round" d=" M 416.096, 530.220 415.346, 530.294 414.625, 530.512 413.960, 530.868 413.378, 531.346 412.900, 531.928 412.545, 532.593 412.326, 533.314 412.252, 534.064 412.326, 534.813 412.545, 535.535 412.900, 536.199 413.378, 536.781 413.960, 537.260 414.625, 537.615 415.346, 537.833 416.096, 537.907 416.846, 537.833 417.567, 537.615 418.231, 537.260 418.814, 536.781 419.292, 536.199 419.647, 535.535 419.866, 534.813 419.939, 534.064 419.866, 533.314 419.647, 532.593 419.292, 531.928 418.814, 531.346 418.231, 530.868 417.567, 530.512 416.846, 530.294 416.096, 530.220 " />
            <path fill="none" stroke-width="20.0" stroke-linecap="butt" stroke-opacity="1.0" stroke="rgb(0, 0, 0)" stroke-linejoin="round" d=" M 451.458, 530.220 450.708, 530.294 449.987, 530.512 449.322, 530.868 448.740, 531.346 448.262, 531.928 447.907, 532.593 447.688, 533.314 447.614, 534.064 447.688, 534.813 447.907, 535.535 448.262, 536.199 448.740, 536.781 449.322, 537.260 449.987, 537.615 450.708, 537.833 451.458, 537.907 452.208, 537.833 452.929, 537.615 453.593, 537.260 454.176, 536.781 454.654, 536.199 455.009, 535.535 455.228, 534.813 455.302, 534.064 455.228, 533.314 455.009, 532.593 454.654, 531.928 454.176, 531.346 453.593, 530.868 452.929, 530.512 452.208, 530.294 451.458, 530.220 " />
            <path fill="none" stroke-width="20.0" stroke-linecap="butt" stroke-opacity="1.0" stroke="rgb(0, 0, 0)" stroke-linejoin="round" d=" M 486.820, 530.220 486.070, 530.294 485.349, 530.512 484.685, 530.868 484.102, 531.346 483.624, 531.928 483.269, 532.593 483.050, 533.314 482.976, 534.064 483.050, 534.813 483.269, 535.535 483.624, 536.199 484.102, 536.781 484.685, 537.260 485.349, 537.615 486.070, 537.833 486.820, 537.907 487.570, 537.833 488.291, 537.615 488.955, 537.260 489.538, 536.781 490.016, 536.199 490.371, 535.535 490.590, 534.813 490.664, 534.064 490.590, 533.314 490.371, 532.593 490.016, 531.928 489.538, 531.346 488.955, 530.868 488.291, 530.512 487.570, 530.294 486.820, 530.220 " />
            <path fill="none" stroke-width="20.0" stroke-linecap="butt" stroke-opacity="1.0" stroke="rgb(0, 0, 0)" stroke-linejoin="round" d=" M 522.182, 530.220 521.432, 530.294 520.711, 530.512 520.047, 530.868 519.464, 531.346 518.986, 531.928 518.631, 532.593 518.412, 533.314 518.338, 534.064 518.412, 534.813 518.631, 535.535 518.986, 536.199 519.464, 536.781 520.047, 537.260 520.711, 537.615 521.432, 537.833 522.182, 537.907 522.932, 537.833 523.653, 537.615 524.318, 537.260 524.900, 536.781 525.378, 536.199 525.733, 535.535 525.952, 534.813 526.026, 534.064 525.952, 533.314 525.733, 532.593 525.378, 531.928 524.900, 531.346 524.318, 530.868 523.653, 530.512 522.932, 530.294 522.182, 530.220 " />
            <path fill="none" stroke-width="20.0" stroke-linecap="butt" stroke-opacity="1.0" stroke="rgb(0, 0, 0)" stroke-linejoin="round" d=" M 557.544, 530.220 556.794, 530.294 556.073, 530.512 555.409, 530.868 554.826, 531.346 554.348, 531.928 553.993, 532.593 553.774, 533.314 553.701, 534.064 553.774, 534.813 553.993, 535.535 554.348, 536.199 554.826, 536.781 555.409, 537.260 556.073, 537.615 556.794, 537.833 557.544, 537.907 558.294, 537.833 559.015, 537.615 559.680, 537.260 560.262, 536.781 560.740, 536.199 561.095, 535.535 561.314, 534.813 561.388, 534.064 561.314, 533.314 561.095, 532.593 560.740, 531.928 560.262, 531.346 559.680, 530.868 559.015, 530.512 558.294, 530.294 557.544, 530.220 " />
            <path fill="none" stroke-width="20.0" stroke-linecap="butt" stroke-opacity="1.0" stroke="rgb(0, 0, 0)" stroke-linejoin="round" d=" M 592.906, 530.220 592.157, 530.294 591.435, 530.512 590.771, 530.868 590.188, 531.346 589.710, 531.928 589.355, 532.593 589.137, 533.314 589.063, 534.064 589.137, 534.813 589.355, 535.535 589.710, 536.199 590.188, 536.781 590.771, 537.260 591.435, 537.615 592.157, 537.833 592.906, 537.907 593.656, 537.833 594.377, 537.615 595.042, 537.260 595.624, 536.781 596.102, 536.199 596.458, 535.535 596.676, 534.813 596.750, 534.064 596.676, 533.314 596.458, 532.593 596.102, 531.928 595.624, 531.346 595.042, 530.868 594.377, 530.512 593.656, 530.294 592.906, 530.220 " />
            <path fill="none" stroke-width="20.0" stroke-linecap="butt" stroke-opacity="1.0" stroke="rgb(0, 0, 0)" stroke-linejoin="round" d=" M 628.269, 530.220 627.519, 530.294 626.798, 530.512 626.133, 530.868 625.551, 531.346 625.073, 531.928 624.717, 532.593 624.499, 533.314 624.425, 534.064 624.499, 534.813 624.717, 535.535 625.073, 536.199 625.551, 536.781 626.133, 537.260 626.798, 537.615 627.519, 537.833 628.269, 537.907 629.018, 537.833 629.740, 537.615 630.404, 537.260 630.986, 536.781 631.464, 536.199 631.820, 535.535 632.038, 534.813 632.112, 534.064 632.038, 533.314 631.820, 532.593 631.464, 531.928 630.986, 531.346 630.404, 530.868 629.740, 530.512 629.018, 530.294 628.269, 530.220 " />
            <path fill="none" stroke-width="20.0" stroke-linecap="butt" stroke-opacity="1.0" stroke="rgb(0, 0, 0)" stroke-linejoin="round" d=" M 663.631, 530.220 662.881, 530.294 662.160, 530.512 661.495, 530.868 660.913, 531.346 660.435, 531.928 660.080, 532.593 659.861, 533.314 659.787, 534.064 659.861, 534.813 660.080, 535.535 660.435, 536.199 660.913, 536.781 661.495, 537.260 662.160, 537.615 662.881, 537.833 663.631, 537.907 664.380, 537.833 665.102, 537.615 665.766, 537.260 666.349, 536.781 666.827, 536.199 667.182, 535.535 667.401, 534.813 667.474, 534.064 667.401, 533.314 667.182, 532.593 666.827, 531.928 666.349, 531.346 665.766, 530.868 665.102, 530.512 664.380, 530.294 663.631, 530.220 " />
            <path fill="none" stroke-width="20.0" stroke-linecap="butt" stroke-opacity="1.0" stroke="rgb(0, 0, 0)" stroke-linejoin="round" d=" M 698.993, 530.220 698.243, 530.294 697.522, 530.512 696.857, 530.868 696.275, 531.346 695.797, 531.928 695.442, 532.593 695.223, 533.314 695.149, 534.064 695.223, 534.813 695.442, 535.535 695.797, 536.199 696.275, 536.781 696.857, 537.260 697.522, 537.615 698.243, 537.833 698.993, 537.907 699.743, 537.833 700.464, 537.615 701.128, 537.260 701.711, 536.781 702.189, 536.199 702.544, 535.535 702.763, 534.813 702.836, 534.064 702.763, 533.314 702.544, 532.593 702.189, 531.928 701.711, 531.346 701.128, 530.868 700.464, 530.512 699.743, 530.294 698.993, 530.220 " />
            <path fill="none" stroke-width="20.0" stroke-linecap="butt" stroke-opacity="1.0" stroke="rgb(0, 0, 0)" stroke-linejoin="round" d=" M 734.355, 530.220 733.605, 530.294 732.884, 530.512 732.219, 530.868 731.637, 531.346 731.159, 531.928 730.804, 532.593 730.585, 533.314 730.511, 534.064 730.585, 534.813 730.804, 535.535 731.159, 536.199 731.637, 536.781 732.219, 537.260 732.884, 537.615 733.605, 537.833 734.355, 537.907 735.105, 537.833 735.826, 537.615 736.490, 537.260 737.073, 536.781 737.551, 536.199 737.906, 535.535 738.125, 534.813 738.199, 534.064 738.125, 533.314 737.906, 532.593 737.551, 531.928 737.073, 531.346 736.490, 530.868 735.826, 530.512 735.105, 530.294 734.355, 530.220 " />
            <path fill="none" stroke-width="20.0" stroke-linecap="butt" stroke-opacity="1.0" stroke="rgb(0, 0, 0)" stroke-linejoin="round" d=" M 769.717, 530.220 768.967, 530.294 768.246, 530.512 767.582, 530.868 766.999, 531.346 766.521, 531.928 766.166, 532.593 765.947, 533.314 765.873, 534.064 765.947, 534.813 766.166, 535.535 766.521, 536.199 766.999, 536.781 767.582, 537.260 768.246, 537.615 768.967, 537.833 769.717, 537.907 770.467, 537.833 771.188, 537.615 771.852, 537.260 772.435, 536.781 772.913, 536.199 773.268, 535.535 773.487, 534.813 773.561, 534.064 773.487, 533.314 773.268, 532.593 772.913, 531.928 772.435, 531.346 771.852, 530.868 771.188, 530.512 770.467, 530.294 769.717, 530.220 " />
            <path fill="none" stroke-width="20.0" stroke-linecap="butt" stroke-opacity="1.0" stroke="rgb(0, 0, 0)" stroke-linejoin="round" d=" M 805.079, 530.220 804.329, 530.294 803.608, 530.512 802.944, 530.868 802.361, 531.346 801.883, 531.928 801.528, 532.593 801.309, 533.314 801.235, 534.064 801.309, 534.813 801.528, 535.535 801.883, 536.199 802.361, 536.781 802.944, 537.260 803.608, 537.615 804.329, 537.833 805.079, 537.907 805.829, 537.833 806.550, 537.615 807.215, 537.260 807.797, 536.781 808.275, 536.199 808.630, 535.535 808.849, 534.813 808.923, 534.064 808.849, 533.314 808.630, 532.593 808.275, 531.928 807.797, 531.346 807.215, 530.868 806.550, 530.512 805.829, 530.294 805.079, 530.220 " />
            <path fill="none" stroke-width="20.0" stroke-linecap="butt" stroke-opacity="1.0" stroke="rgb(0, 0, 0)" stroke-linejoin="round" d=" M 840.441, 530.220 839.691, 530.294 838.970, 530.512 838.306, 530.868 837.723, 531.346 837.245, 531.928 836.890, 532.593 836.671, 533.314 836.598, 534.064 836.671, 534.813 836.890, 535.535 837.245, 536.199 837.723, 536.781 838.306, 537.260 838.970, 537.615 839.691, 537.833 840.441, 537.907 841.191, 537.833 841.912, 537.615 842.577, 537.260 843.159, 536.781 843.637, 536.199 843.992, 535.535 844.211, 534.813 844.285, 534.064 844.211, 533.314 843.992, 532.593 843.637, 531.928 843.159, 531.346 842.577, 530.868 841.912, 530.512 841.191, 530.294 840.441, 530.220 " />
            <path fill="none" stroke-width="20.0" stroke-linecap="butt" stroke-opacity="1.0" stroke="rgb(0, 0, 0)" stroke-linejoin="round" d=" M 875.803, 530.220 875.054, 530.294 874.332, 530.512 873.668, 530.868 873.085, 531.346 872.608, 531.928 872.252, 532.593 872.034, 533.314 871.960, 534.064 872.034, 534.813 872.252, 535.535 872.608, 536.199 873.085, 536.781 873.668, 537.260 874.332, 537.615 875.054, 537.833 875.803, 537.907 876.553, 537.833 877.274, 537.615 877.939, 537.260 878.521, 536.781 878.999, 536.199 879.354, 535.535 879.573, 534.813 879.647, 534.064 879.573, 533.314 879.354, 532.593 878.999, 531.928 878.521, 531.346 877.939, 530.868 877.274, 530.512 876.553, 530.294 875.803, 530.220 " />
            <path fill="none" stroke-width="20.0" stroke-linecap="butt" stroke-opacity="1.0" stroke="rgb(0, 0, 0)" stroke-linejoin="round" d=" M 911.166, 530.220 910.416, 530.294 909.695, 530.512 909.030, 530.868 908.448, 531.346 907.970, 531.928 907.614, 532.593 907.396, 533.314 907.322, 534.064 907.396, 534.813 907.614, 535.535 907.970, 536.199 908.448, 536.781 909.030, 537.260 909.695, 537.615 910.416, 537.833 911.166, 537.907 911.915, 537.833 912.636, 537.615 913.301, 537.260 913.883, 536.781 914.361, 536.199 914.717, 535.535 914.935, 534.813 915.009, 534.064 914.935, 533.314 914.717, 532.593 914.361, 531.928 913.883, 531.346 913.301, 530.868 912.636, 530.512 911.915, 530.294 911.166, 530.220 " />
            <path fill="none" stroke-width="20.0" stroke-linecap="butt" stroke-opacity="1.0" stroke="rgb(0, 0, 0)" stroke-linejoin="round" d=" M 946.528, 530.220 945.778, 530.294 945.057, 530.512 944.392, 530.868 943.810, 531.346 943.332, 531.928 942.977, 532.593 942.758, 533.314 942.684, 534.064 942.758, 534.813 942.977, 535.535 943.332, 536.199 943.810, 536.781 944.392, 537.260 945.057, 537.615 945.778, 537.833 946.528, 537.907 947.278, 537.833 947.999, 537.615 948.663, 537.260 949.246, 536.781 949.724, 536.199 950.079, 535.535 950.298, 534.813 950.371, 534.064 950.298, 533.314 950.079, 532.593 949.724, 531.928 949.246, 531.346 948.663, 530.868 947.999, 530.512 947.278, 530.294 946.528, 530.220 " />
            <path fill="none" stroke-width="20.0" stroke-linecap="butt" stroke-opacity="1.0" stroke="rgb(0, 0, 0)" stroke-linejoin="round" d=" M 981.890, 530.220 981.140, 530.294 980.419, 530.512 979.754, 530.868 979.172, 531.346 978.694, 531.928 978.339, 532.593 978.120, 533.314 978.046, 534.064 978.120, 534.813 978.339, 535.535 978.694, 536.199 979.172, 536.781 979.754, 537.260 980.419, 537.615 981.140, 537.833 981.890, 537.907 982.640, 537.833 983.361, 537.615 984.025, 537.260 984.608, 536.781 985.086, 536.199 985.441, 535.535 985.660, 534.813 985.734, 534.064 985.660, 533.314 985.441, 532.593 985.086, 531.928 984.608, 531.346 984.025, 530.868 983.361, 530.512 982.640, 530.294 981.890, 530.220 " />
            <path fill="none" stroke-width="20.0" stroke-linecap="butt" stroke-opacity="1.0" stroke="rgb(0, 0, 0)" stroke-linejoin="round" d=" M 1017.252, 530.220 1016.502, 530.294 1015.781, 530.512 1015.116, 530.868 1014.534, 531.346 1014.056, 531.928 1013.701, 532.593 1013.482, 533.314 1013.408, 534.064 1013.482, 534.813 1013.701, 535.535 1014.056, 536.199 1014.534, 536.781 1015.116, 537.260 1015.781, 537.615 1016.502, 537.833 1017.252, 537.907 1018.002, 537.833 1018.723, 537.615 1019.387, 537.260 1019.970, 536.781 1020.448, 536.199 1020.803, 535.535 1021.022, 534.813 1021.096, 534.064 1021.022, 533.314 1020.803, 532.593 1020.448, 531.928 1019.970, 531.346 1019.387, 530.868 1018.723, 530.512 1018.002, 530.294 1017.252, 530.220 " />
            <path fill="none" stroke-width="20.0" stroke-linecap="butt" stroke-opacity="1.0" stroke="rgb(0, 0, 0)" stroke-linejoin="round" d=" M 1052.614, 530.220 1051.864, 530.294 1051.143, 530.512 1050.479, 530.868 1049.896, 531.346 1049.418, 531.928 1049.063, 532.593 1048.844, 533.314 1048.770, 534.064 1048.844, 534.813 1049.063, 535.535 1049.418, 536.199 1049.896, 536.781 1050.479, 537.260 1051.143, 537.615 1051.864, 537.833 1052.614, 537.907 1053.364, 537.833 1054.085, 537.615 1054.750, 537.260 1055.332, 536.781 1055.810, 536.199 1056.165, 535.535 1056.384, 534.813 1056.458, 534.064 1056.384, 533.314 1056.165, 532.593 1055.810, 531.928 1055.332, 531.346 1054.750, 530.868 1054.085, 530.512 1053.364, 530.294 1052.614, 530.220 " />
            <path fill="none" stroke-width="20.0" stroke-linecap="butt" stroke-opacity="1.0" stroke="rgb(0, 0, 0)" stroke-linejoin="round" d=" M 1087.976, 530.220 1087.226, 530.294 1086.505, 530.512 1085.841, 530.868 1085.258, 531.346 1084.780, 531.928 1084.425, 532.593 1084.206, 533.314 1084.133, 534.064 1084.206, 534.813 1084.425, 535.535 1084.780, 536.199 1085.258, 536.781 1085.841, 537.260 1086.505, 537.615 1087.226, 537.833 1087.976, 537.907 1088.726, 537.833 1089.447, 537.615 1090.112, 537.260 1090.694, 536.781 1091.172, 536.199 1091.527, 535.535 1091.746, 534.813 1091.820, 534.064 1091.746, 533.314 1091.527, 532.593 1091.172, 531.928 1090.694, 531.346 1090.112, 530.868 1089.447, 530.512 1088.726, 530.294 1087.976, 530.220 " />
            <path fill="none" stroke-width="20.0" stroke-linecap="butt" stroke-opacity="1.0" stroke="rgb(0, 0, 0)" stroke-linejoin="round" d=" M 1123.339, 530.220 1122.589, 530.294 1121.868, 530.512 1121.203, 530.868 1120.621, 531.346 1120.142, 531.928 1119.787, 532.593 1119.569, 533.314 1119.495, 534.064 1119.569, 534.813 1119.787, 535.535 1120.142, 536.199 1120.621, 536.781 1121.203, 537.260 1121.868, 537.615 1122.589, 537.833 1123.339, 537.907 1124.088, 537.833 1124.809, 537.615 1125.474, 537.260 1126.056, 536.781 1126.535, 536.199 1126.890, 535.535 1127.108, 534.813 1127.182, 534.064 1127.108, 533.314 1126.890, 532.593 1126.535, 531.928 1126.056, 531.346 1125.474, 530.868 1124.809, 530.512 1124.088, 530.294 1123.339, 530.220 " />
            <path fill="none" stroke-width="20.0" stroke-linecap="butt" stroke-opacity="1.0" stroke="rgb(0, 0, 0)" stroke-linejoin="round" d=" M 1158.701, 530.220 1157.951, 530.294 1157.230, 530.512 1156.565, 530.868 1155.983, 531.346 1155.505, 531.928 1155.149, 532.593 1154.931, 533.314 1154.857, 534.064 1154.931, 534.813 1155.149, 535.535 1155.505, 536.199 1155.983, 536.781 1156.565, 537.260 1157.230, 537.615 1157.951, 537.833 1158.701, 537.907 1159.451, 537.833 1160.172, 537.615 1160.836, 537.260 1161.418, 536.781 1161.897, 536.199 1162.252, 535.535 1162.471, 534.813 1162.544, 534.064 1162.471, 533.314 1162.252, 532.593 1161.897, 531.928 1161.418, 531.346 1160.836, 530.868 1160.172, 530.512 1159.451, 530.294 1158.701, 530.220 " />
            <path fill="none" stroke-width="20.0" stroke-linecap="butt" stroke-opacity="1.0" stroke="rgb(0, 0, 0)" stroke-linejoin="round" d=" M 1194.063, 530.220 1193.313, 530.294 1192.592, 530.512 1191.927, 530.868 1191.345, 531.346 1190.867, 531.928 1190.512, 532.593 1190.293, 533.314 1190.219, 534.064 1190.293, 534.813 1190.512, 535.535 1190.867, 536.199 1191.345, 536.781 1191.927, 537.260 1192.592, 537.615 1193.313, 537.833 1194.063, 537.907 1194.813, 537.833 1195.534, 537.615 1196.198, 537.260 1196.781, 536.781 1197.259, 536.199 1197.614, 535.535 1197.833, 534.813 1197.907, 534.064 1197.833, 533.314 1197.614, 532.593 1197.259, 531.928 1196.781, 531.346 1196.198, 530.868 1195.534, 530.512 1194.813, 530.294 1194.063, 530.220 " />
            <path fill="none" stroke-width="20.0" stroke-linecap="butt" stroke-opacity="1.0" stroke="rgb(0, 0, 0)" stroke-linejoin="round" d=" M 1229.425, 530.220 1228.675, 530.294 1227.954, 530.512 1227.290, 530.868 1226.707, 531.346 1226.229, 531.928 1225.874, 532.593 1225.655, 533.314 1225.581, 534.064 1225.655, 534.813 1225.874, 535.535 1226.229, 536.199 1226.707, 536.781 1227.290, 537.260 1227.954, 537.615 1228.675, 537.833 1229.425, 537.907 1230.175, 537.833 1230.896, 537.615 1231.561, 537.260 1232.143, 536.781 1232.621, 536.199 1232.976, 535.535 1233.195, 534.813 1233.269, 534.064 1233.195, 533.314 1232.976, 532.593 1232.621, 531.928 1232.143, 531.346 1231.561, 530.868 1230.896, 530.512 1230.175, 530.294 1229.425, 530.220 " />
            <path fill="none" stroke-width="20.0" stroke-linecap="butt" stroke-opacity="1.0" stroke="rgb(0, 0, 0)" stroke-linejoin="round" d=" M 1264.787, 530.220 1264.037, 530.294 1263.316, 530.512 1262.652, 530.868 1262.069, 531.346 1261.591, 531.928 1261.236, 532.593 1261.017, 533.314 1260.943, 534.064 1261.017, 534.813 1261.236, 535.535 1261.591, 536.199 1262.069, 536.781 1262.652, 537.260 1263.316, 537.615 1264.037, 537.833 1264.787, 537.907 1265.537, 537.833 1266.258, 537.615 1266.923, 537.260 1267.505, 536.781 1267.983, 536.199 1268.338, 535.535 1268.557, 534.813 1268.631, 534.064 1268.557, 533.314 1268.338, 532.593 1267.983, 531.928 1267.505, 531.346 1266.923, 530.868 1266.258, 530.512 1265.537, 530.294 1264.787, 530.220 " />
            <path fill="none" stroke-width="20.0" stroke-linecap="butt" stroke-opacity="1.0" stroke="rgb(0, 0, 0)" stroke-linejoin="round" d=" M 1300.149, 530.220 1299.400, 530.294 1298.678, 530.512 1298.014, 530.868 1297.432, 531.346 1296.953, 531.928 1296.598, 532.593 1296.380, 533.314 1296.306, 534.064 1296.380, 534.813 1296.598, 535.535 1296.953, 536.199 1297.432, 536.781 1298.014, 537.260 1298.678, 537.615 1299.400, 537.833 1300.149, 537.907 1300.899, 537.833 1301.620, 537.615 1302.285, 537.260 1302.867, 536.781 1303.345, 536.199 1303.701, 535.535 1303.919, 534.813 1303.993, 534.064 1303.919, 533.314 1303.701, 532.593 1303.345, 531.928 1302.867, 531.346 1302.285, 530.868 1301.620, 530.512 1300.899, 530.294 1300.149, 530.220 " />
            <path fill="none" stroke-width="20.0" stroke-linecap="butt" stroke-opacity="1.0" stroke="rgb(0, 0, 0)" stroke-linejoin="round" d=" M 1335.512, 530.220 1334.762, 530.294 1334.041, 530.512 1333.376, 530.868 1332.794, 531.346 1332.316, 531.928 1331.960, 532.593 1331.742, 533.314 1331.668, 534.064 1331.742, 534.813 1331.960, 535.535 1332.316, 536.199 1332.794, 536.781 1333.376, 537.260 1334.041, 537.615 1334.762, 537.833 1335.512, 537.907 1336.262, 537.833 1336.983, 537.615 1337.647, 537.260 1338.229, 536.781 1338.708, 536.199 1339.063, 535.535 1339.281, 534.813 1339.355, 534.064 1339.281, 533.314 1339.063, 532.593 1338.708, 531.928 1338.229, 531.346 1337.647, 530.868 1336.983, 530.512 1336.262, 530.294 1335.512, 530.220 " />
            <path fill="none" stroke-width="20.0" stroke-linecap="butt" stroke-opacity="1.0" stroke="rgb(0, 0, 0)" stroke-linejoin="round" d=" M 1370.874, 530.220 1370.124, 530.294 1369.403, 530.512 1368.738, 530.868 1368.156, 531.346 1367.678, 531.928 1367.323, 532.593 1367.104, 533.314 1367.030, 534.064 1367.104, 534.813 1367.323, 535.535 1367.678, 536.199 1368.156, 536.781 1368.738, 537.260 1369.403, 537.615 1370.124, 537.833 1370.874, 537.907 1371.624, 537.833 1372.345, 537.615 1373.009, 537.260 1373.592, 536.781 1374.070, 536.199 1374.425, 535.535 1374.644, 534.813 1374.718, 534.064 1374.644, 533.314 1374.425, 532.593 1374.070, 531.928 1373.592, 531.346 1373.009, 530.868 1372.345, 530.512 1371.624, 530.294 1370.874, 530.220 " />
            <path fill="none" stroke-width="20.0" stroke-linecap="butt" stroke-opacity="1.0" stroke="rgb(0, 0, 0)" stroke-linejoin="round" d=" M 1406.236, 530.220 1405.486, 530.294 1404.765, 530.512 1404.100, 530.868 1403.518, 531.346 1403.040, 531.928 1402.685, 532.593 1402.466, 533.314 1402.392, 534.064 1402.466, 534.813 1402.685, 535.535 1403.040, 536.199 1403.518, 536.781 1404.100, 537.260 1404.765, 537.615 1405.486, 537.833 1406.236, 537.907 1406.986, 537.833 1407.707, 537.615 1408.371, 537.260 1408.954, 536.781 1409.432, 536.199 1409.787, 535.535 1410.006, 534.813 1410.080, 534.064 1410.006, 533.314 1409.787, 532.593 1409.432, 531.928 1408.954, 531.346 1408.371, 530.868 1407.707, 530.512 1406.986, 530.294 1406.236, 530.220 " />
            <path fill="none" stroke-width="20.0" stroke-linecap="butt" stroke-opacity="1.0" stroke="rgb(0, 0, 0)" stroke-linejoin="round" d=" M 1441.598, 530.220 1440.848, 530.294 1440.127, 530.512 1439.463, 530.868 1438.880, 531.346 1438.402, 531.928 1438.047, 532.593 1437.828, 533.314 1437.755, 534.064 1437.828, 534.813 1438.047, 535.535 1438.402, 536.199 1438.880, 536.781 1439.463, 537.260 1440.127, 537.615 1440.848, 537.833 1441.598, 537.907 1442.348, 537.833 1443.069, 537.615 1443.734, 537.260 1444.316, 536.781 1444.794, 536.199 1445.149, 535.535 1445.368, 534.813 1445.442, 534.064 1445.368, 533.314 1445.149, 532.593 1444.794, 531.928 1444.316, 531.346 1443.734, 530.868 1443.069, 530.512 1442.348, 530.294 1441.598, 530.220 " />
            <path fill="none" stroke-width="20.0" stroke-linecap="butt" stroke-opacity="1.0" stroke="rgb(0, 0, 0)" stroke-linejoin="round" d=" M 1476.960, 530.220 1476.210, 530.294 1475.489, 530.512 1474.825, 530.868 1474.243, 531.346 1473.764, 531.928 1473.409, 532.593 1473.191, 533.314 1473.117, 534.064 1473.191, 534.813 1473.409, 535.535 1473.764, 536.199 1474.243, 536.781 1474.825, 537.260 1475.489, 537.615 1476.210, 537.833 1476.960, 537.907 1477.710, 537.833 1478.431, 537.615 1479.096, 537.260 1479.678, 536.781 1480.156, 536.199 1480.512, 535.535 1480.730, 534.813 1480.804, 534.064 1480.730, 533.314 1480.512, 532.593 1480.156, 531.928 1479.678, 531.346 1479.096, 530.868 1478.431, 530.512 1477.710, 530.294 1476.960, 530.220 " />
            <path fill="none" stroke-width="20.0" stroke-linecap="butt" stroke-opacity="1.0" stroke="rgb(0, 0, 0)" stroke-linejoin="round" d=" M 1512.323, 530.220 1511.573, 530.294 1510.852, 530.512 1510.187, 530.868 1509.605, 531.346 1509.127, 531.928 1508.771, 532.593 1508.553, 533.314 1508.479, 534.064 1508.553, 534.813 1508.771, 535.535 1509.127, 536.199 1509.605, 536.781 1510.187, 537.260 1510.852, 537.615 1511.573, 537.833 1512.323, 537.907 1513.072, 537.833 1513.794, 537.615 1514.458, 537.260 1515.040, 536.781 1515.519, 536.199 1515.874, 535.535 1516.092, 534.813 1516.166, 534.064 1516.092, 533.314 1515.874, 532.593 1515.519, 531.928 1515.040, 531.346 1514.458, 530.868 1513.794, 530.512 1513.072, 530.294 1512.323, 530.220 " />
            <path fill="none" stroke-width="20.0" stroke-linecap="butt" stroke-opacity="1.0" stroke="rgb(0, 0, 0)" stroke-linejoin="round" d=" M 1547.685, 530.220 1546.935, 530.294 1546.214, 530.512 1545.549, 530.868 1544.967, 531.346 1544.489, 531.928 1544.134, 532.593 1543.915, 533.314 1543.841, 534.064 1543.915, 534.813 1544.134, 535.535 1544.489, 536.199 1544.967, 536.781 1545.549, 537.260 1546.214, 537.615 1546.935, 537.833 1547.685, 537.907 1548.435, 537.833 1549.156, 537.615 1549.820, 537.260 1550.403, 536.781 1550.881, 536.199 1551.236, 535.535 1551.455, 534.813 1551.528, 534.064 1551.455, 533.314 1551.236, 532.593 1550.881, 531.928 1550.403, 531.346 1549.820, 530.868 1549.156, 530.512 1548.435, 530.294 1547.685, 530.220 " />
            <path fill="none" stroke-width="20.0" stroke-linecap="butt" stroke-opacity="1.0" stroke="rgb(0, 0, 0)" stroke-linejoin="round" d=" M 1583.047, 530.220 1582.297, 530.294 1581.576, 530.512 1580.911, 530.868 1580.329, 531.346 1579.851, 531.928 1579.496, 532.593 1579.277, 533.314 1579.203, 534.064 1579.277, 534.813 1579.496, 535.535 1579.851, 536.199 1580.329, 536.781 1580.911, 537.260 1581.576, 537.615 1582.297, 537.833 1583.047, 537.907 1583.797, 537.833 1584.518, 537.615 1585.182, 537.260 1585.765, 536.781 1586.243, 536.199 1586.598, 535.535 1586.817, 534.813 1586.891, 534.064 1586.817, 533.314 1586.598, 532.593 1586.243, 531.928 1585.765, 531.346 1585.182, 530.868 1584.518, 530.512 1583.797, 530.294 1583.047, 530.220 " />
            <path fill="none" stroke-width="20.0" stroke-linecap="butt" stroke-opacity="1.0" stroke="rgb(0, 0, 0)" stroke-linejoin="round" d=" M 1618.409, 530.220 1617.659, 530.294 1616.938, 530.512 1616.274, 530.868 1615.691, 531.346 1615.213, 531.928 1614.858, 532.593 1614.639, 533.314 1614.565, 534.064 1614.639, 534.813 1614.858, 535.535 1615.213, 536.199 1615.691, 536.781 1616.274, 537.260 1616.938, 537.615 1617.659, 537.833 1618.409, 537.907 1619.159, 537.833 1619.880, 537.615 1620.545, 537.260 1621.127, 536.781 1621.605, 536.199 1621.960, 535.535 1622.179, 534.813 1622.253, 534.064 1622.179, 533.314 1621.960, 532.593 1621.605, 531.928 1621.127, 531.346 1620.545, 530.868 1619.880, 530.512 1619.159, 530.294 1618.409, 530.220 " />
            <path fill="none" stroke-width="20.0" stroke-linecap="butt" stroke-opacity="1.0" stroke="rgb(0, 0, 0)" stroke-linejoin="round" d=" M 1653.771, 530.220 1653.021, 530.294 1652.300, 530.512 1651.636, 530.868 1651.053, 531.346 1650.575, 531.928 1650.220, 532.593 1650.001, 533.314 1649.928, 534.064 1650.001, 534.813 1650.220, 535.535 1650.575, 536.199 1651.053, 536.781 1651.636, 537.260 1652.300, 537.615 1653.021, 537.833 1653.771, 537.907 1654.521, 537.833 1655.242, 537.615 1655.907, 537.260 1656.489, 536.781 1656.967, 536.199 1657.322, 535.535 1657.541, 534.813 1657.615, 534.064 1657.541, 533.314 1657.322, 532.593 1656.967, 531.928 1656.489, 531.346 1655.907, 530.868 1655.242, 530.512 1654.521, 530.294 1653.771, 530.220 " />
            <path fill="none" stroke-width="20.0" stroke-linecap="butt" stroke-opacity="1.0" stroke="rgb(0, 0, 0)" stroke-linejoin="round" d=" M 1689.133, 530.220 1688.384, 530.294 1687.663, 530.512 1686.998, 530.868 1686.416, 531.346 1685.938, 531.928 1685.582, 532.593 1685.364, 533.314 1685.290, 534.064 1685.364, 534.813 1685.582, 535.535 1685.938, 536.199 1686.416, 536.781 1686.998, 537.260 1687.663, 537.615 1688.384, 537.833 1689.133, 537.907 1689.883, 537.833 1690.604, 537.615 1691.269, 537.260 1691.851, 536.781 1692.329, 536.199 1692.685, 535.535 1692.903, 534.813 1692.977, 534.064 1692.903, 533.314 1692.685, 532.593 1692.329, 531.928 1691.851, 531.346 1691.269, 530.868 1690.604, 530.512 1689.883, 530.294 1689.133, 530.220 " />
            <path fill="none" stroke-width="20.0" stroke-linecap="butt" stroke-opacity="1.0" stroke="rgb(0, 0, 0)" stroke-linejoin="round" d=" M 1724.496, 530.220 1723.746, 530.294 1723.025, 530.512 1722.360, 530.868 1721.778, 531.346 1721.300, 531.928 1720.944, 532.593 1720.726, 533.314 1720.652, 534.064 1720.726, 534.813 1720.944, 535.535 1721.300, 536.199 1721.778, 536.781 1722.360, 537.260 1723.025, 537.615 1723.746, 537.833 1724.496, 537.907 1725.245, 537.833 1725.967, 537.615 1726.631, 537.260 1727.214, 536.781 1727.692, 536.199 1728.047, 535.535 1728.266, 534.813 1728.339, 534.064 1728.266, 533.314 1728.047, 532.593 1727.692, 531.928 1727.214, 531.346 1726.631, 530.868 1725.967, 530.512 1725.245, 530.294 1724.496, 530.220 " />
            <path fill="none" stroke-width="20.0" stroke-linecap="butt" stroke-opacity="1.0" stroke="rgb(0, 0, 0)" stroke-linejoin="round" d=" M 1759.858, 530.220 1759.108, 530.294 1758.387, 530.512 1757.722, 530.868 1757.140, 531.346 1756.662, 531.928 1756.307, 532.593 1756.088, 533.314 1756.014, 534.064 1756.088, 534.813 1756.307, 535.535 1756.662, 536.199 1757.140, 536.781 1757.722, 537.260 1758.387, 537.615 1759.108, 537.833 1759.858, 537.907 1760.608, 537.833 1761.329, 537.615 1761.993, 537.260 1762.576, 536.781 1763.054, 536.199 1763.409, 535.535 1763.628, 534.813 1763.702, 534.064 1763.628, 533.314 1763.409, 532.593 1763.054, 531.928 1762.576, 531.346 1761.993, 530.868 1761.329, 530.512 1760.608, 530.294 1759.858, 530.220 " />
            <path fill="none" stroke-width="20.0" stroke-linecap="butt" stroke-opacity="1.0" stroke="rgb(0, 0, 0)" stroke-linejoin="round" d=" M 1795.220, 530.220 1794.470, 530.294 1793.749, 530.512 1793.085, 530.868 1792.502, 531.346 1792.024, 531.928 1791.669, 532.593 1791.450, 533.314 1791.376, 534.064 1791.450, 534.813 1791.669, 535.535 1792.024, 536.199 1792.502, 536.781 1793.085, 537.260 1793.749, 537.615 1794.470, 537.833 1795.220, 537.907 1795.970, 537.833 1796.691, 537.615 1797.355, 537.260 1797.938, 536.781 1798.416, 536.199 1798.771, 535.535 1798.990, 534.813 1799.064, 534.064 1798.990, 533.314 1798.771, 532.593 1798.416, 531.928 1797.938, 531.346 1797.355, 530.868 1796.691, 530.512 1795.970, 530.294 1795.220, 530.220 " />
            <path fill="none" stroke-width="20.0" stroke-linecap="butt" stroke-opacity="1.0" stroke="rgb(0, 0, 0)" stroke-linejoin="round" d=" M 1830.582, 530.220 1829.832, 530.294 1829.111, 530.512 1828.447, 530.868 1827.864, 531.346 1827.386, 531.928 1827.031, 532.593 1826.812, 533.314 1826.738, 534.064 1826.812, 534.813 1827.031, 535.535 1827.386, 536.199 1827.864, 536.781 1828.447, 537.260 1829.111, 537.615 1829.832, 537.833 1830.582, 537.907 1831.332, 537.833 1832.053, 537.615 1832.718, 537.260 1833.300, 536.781 1833.778, 536.199 1834.133, 535.535 1834.352, 534.813 1834.426, 534.064 1834.352, 533.314 1834.133, 532.593 1833.778, 531.928 1833.300, 531.346 1832.718, 530.868 1832.053, 530.512 1831.332, 530.294 1830.582, 530.220 " />
            <path fill="none" stroke-width="20.0" stroke-linecap="butt" stroke-opacity="1.0" stroke="rgb(0, 0, 0)" stroke-linejoin="round" d=" M 1865.944, 530.220 1865.194, 530.294 1864.473, 530.512 1863.809, 530.868 1863.226, 531.346 1862.748, 531.928 1862.393, 532.593 1862.175, 533.314 1862.101, 534.064 1862.175, 534.813 1862.393, 535.535 1862.748, 536.199 1863.226, 536.781 1863.809, 537.260 1864.473, 537.615 1865.194, 537.833 1865.944, 537.907 1866.694, 537.833 1867.415, 537.615 1868.080, 537.260 1868.662, 536.781 1869.140, 536.199 1869.496, 535.535 1869.714, 534.813 1869.788, 534.064 1869.714, 533.314 1869.496, 532.593 1869.140, 531.928 1868.662, 531.346 1868.080, 530.868 1867.415, 530.512 1866.694, 530.294 1865.944, 530.220 " />
            <path fill="none" stroke-width="20.0" stroke-linecap="butt" stroke-opacity="1.0" stroke="rgb(0, 0, 0)" stroke-linejoin="round" d=" M 1901.307, 530.220 1900.557, 530.294 1899.836, 530.512 1899.171, 530.868 1898.589, 531.346 1898.111, 531.928 1897.755, 532.593 1897.537, 533.314 1897.463, 534.064 1897.537, 534.813 1897.755, 535.535 1898.111, 536.199 1898.589, 536.781 1899.171, 537.260 1899.836, 537.615 1900.557, 537.833 1901.307, 537.907 1902.057, 537.833 1902.777, 537.615 1903.442, 537.260 1904.024, 536.781 1904.503, 536.199 1904.858, 535.535 1905.076, 534.813 1905.150, 534.064 1905.076, 533.314 1904.858, 532.593 1904.503, 531.928 1904.024, 531.346 1903.442, 530.868 1902.777, 530.512 1902.057, 530.294 1901.307, 530.220 " />
        </g>
    </g>
</svg>
