<svg width="120" height="120" viewBox="0 0 120 120" fill="none" xmlns="http://www.w3.org/2000/svg">
    <path
        d="M19.1474 38.2944C16.7609 38.2944 12.5643 39.6999 11.4983 40.1342C11.449 40.6632 11.4825 53.3418 11.449 54.0327C13.1268 54.2498 19.9172 55.4717 26.2141 58.6458C28.7407 59.9289 33.1387 59.4077 36.295 58.6182C39.2757 57.87 55.8193 51.5376 57.6748 50.829C58.8769 50.1815 59.7553 47.491 59.0565 45.9928C58.2078 44.1195 56.2062 43.4267 54.7139 43.5846L43.0676 47.8463C42.9196 47.8819 42.7774 47.5187 43.0933 47.1041C43.6657 46.3343 45.312 43.0102 41.7451 40.9968C40.7403 40.3513 32.2484 40.6671 31.6187 40.7244C29.248 40.521 22.284 38.2944 19.1474 38.2944Z"
        fill="#FFE0BF" />
    <path
        d="M0.789673 39.8736C0.789673 39.4548 0.956048 39.0531 1.2522 38.757C1.54835 38.4608 1.95001 38.2944 2.36883 38.2944H9.86981C10.2886 38.2944 10.6903 38.4608 10.9864 38.757C11.2826 39.0531 11.449 39.4548 11.449 39.8736V54.6782C11.449 55.097 11.2826 55.4987 10.9864 55.7948C10.6903 56.091 10.2886 56.2573 9.86981 56.2573H2.36883C1.95001 56.2573 1.54835 56.091 1.2522 55.7948C0.956048 55.4987 0.789673 55.097 0.789673 54.6782V39.8736Z"
        fill="#E2E4F1" /> <path
        d="M19.1474 38.2944C16.7609 38.2944 12.5643 39.6999 11.4983 40.1342C11.449 40.6632 11.4825 53.3418 11.449 54.0327C13.1268 54.2498 19.9172 55.4717 26.2141 58.6458C28.7407 59.9289 33.1387 59.4077 36.295 58.6182C39.2757 57.87 55.8193 51.5376 57.6748 50.829C58.8769 50.1815 59.7553 47.491 59.0565 45.9928C58.2078 44.1195 56.2062 43.4267 54.7139 43.5846L43.0676 47.8463C42.9196 47.8819 42.7774 47.5187 43.0933 47.1041C43.6657 46.3343 45.312 43.0102 41.7451 40.9968C40.7403 40.3513 32.2484 40.6671 31.6187 40.7244C29.248 40.521 22.284 38.2944 19.1474 38.2944Z"
        fill="#FFE0BF" />
    <path
        d="M0.789673 39.8736C0.789673 39.4548 0.956048 39.0531 1.2522 38.757C1.54835 38.4608 1.95001 38.2944 2.36883 38.2944H9.86981C10.2886 38.2944 10.6903 38.4608 10.9864 38.757C11.2826 39.0531 11.449 39.4548 11.449 39.8736V54.6782C11.449 55.097 11.2826 55.4987 10.9864 55.7948C10.6903 56.091 10.2886 56.2573 9.86981 56.2573H2.36883C1.95001 56.2573 1.54835 56.091 1.2522 55.7948C0.956048 55.4987 0.789673 55.097 0.789673 54.6782V39.8736Z"
        fill="#E2E4F1" />
    <path
        d="M29.9053 29.6088C32.7748 29.6088 35.5799 28.7579 37.9658 27.1637C40.3517 25.5694 42.2113 23.3035 43.3094 20.6524C44.4075 18.0014 44.6949 15.0842 44.135 12.2698C43.5752 9.45545 42.1934 6.87029 40.1644 4.84124C38.1353 2.81219 35.5502 1.43039 32.7358 0.87058C29.9214 0.310767 27.0043 0.598083 24.3532 1.6962C21.7021 2.79431 19.4362 4.6539 17.842 7.03981C16.2478 9.42572 15.3969 12.2308 15.3969 15.1003C15.3969 18.9482 16.9254 22.6385 19.6463 25.3593C22.3672 28.0802 26.0574 29.6088 29.9053 29.6088Z"
        fill="white" />
    <path fill-rule="evenodd" clip-rule="evenodd"
        d="M29.8954 6.2496C29.5804 6.24695 29.268 6.30718 28.9765 6.42677C28.685 6.54636 28.4203 6.72291 28.1978 6.94606C27.9754 7.16922 27.7997 7.43451 27.6811 7.7264C27.5625 8.01829 27.5033 8.33091 27.507 8.64596V11.8438C27.5072 11.9436 27.4877 12.0426 27.4496 12.1349C27.4116 12.2272 27.3556 12.3111 27.285 12.3817C27.2143 12.4523 27.1305 12.5083 27.0381 12.5464C26.9458 12.5845 26.8469 12.604 26.747 12.6037H23.1465C21.8082 12.6037 20.7581 14.0625 20.7581 15.3949C20.7581 16.7273 21.8279 17.9886 23.1465 17.9886H26.747C26.8468 17.9881 26.9457 18.0074 27.038 18.0452C27.1303 18.0831 27.2142 18.1389 27.2848 18.2094C27.3555 18.2798 27.4115 18.3636 27.4496 18.4558C27.4877 18.548 27.5072 18.6469 27.507 18.7466V21.9365C27.4978 22.2558 27.5527 22.5737 27.6686 22.8714C27.7845 23.1691 27.9588 23.4405 28.1814 23.6696C28.4041 23.8987 28.6704 24.0809 28.9646 24.2052C29.2588 24.3296 29.575 24.3937 29.8945 24.3937C30.2139 24.3937 30.5301 24.3296 30.8243 24.2052C31.1186 24.0809 31.3849 23.8987 31.6075 23.6696C31.8301 23.4405 32.0045 23.1691 32.1203 22.8714C32.2362 22.5737 32.2911 22.2558 32.2819 21.9365V18.6993C32.2817 18.5994 32.3012 18.5004 32.3393 18.4081C32.3774 18.3158 32.4333 18.2319 32.504 18.1613C32.5746 18.0907 32.6585 18.0347 32.7508 17.9966C32.8431 17.9585 32.942 17.939 33.0419 17.9393H36.6424C37.9827 17.9393 39.0309 16.6779 39.0309 15.3455C39.0309 14.0131 37.961 12.7518 36.6424 12.7518H33.0419C32.8404 12.7518 32.647 12.6717 32.5045 12.5292C32.362 12.3867 32.2819 12.1934 32.2819 11.9918V8.63609C32.2843 8.32203 32.2242 8.01064 32.1051 7.72003C31.986 7.42942 31.8103 7.16539 31.5882 6.94331C31.3661 6.72123 31.1021 6.54554 30.8115 6.42644C30.5209 6.30734 30.2095 6.24723 29.8954 6.2496Z"
        fill="#FF624E" />
            <path
        d="M29.9053 29.6088C32.7748 29.6088 35.5799 28.7579 37.9658 27.1637C40.3517 25.5694 42.2113 23.3035 43.3094 20.6524C44.4075 18.0014 44.6949 15.0842 44.135 12.2698C43.5752 9.45545 42.1934 6.87029 40.1644 4.84124C38.1353 2.81219 35.5502 1.43039 32.7358 0.87058C29.9214 0.310767 27.0043 0.598083 24.3532 1.6962C21.7021 2.79431 19.4362 4.6539 17.842 7.03981C16.2478 9.42572 15.3969 12.2308 15.3969 15.1003C15.3969 18.9482 16.9254 22.6385 19.6463 25.3593C22.3672 28.0802 26.0574 29.6088 29.9053 29.6088Z"
        fill="white" />
    <path fill-rule="evenodd" clip-rule="evenodd"
        d="M29.8954 6.2496C29.5804 6.24695 29.268 6.30718 28.9765 6.42677C28.685 6.54636 28.4203 6.72291 28.1978 6.94606C27.9754 7.16922 27.7997 7.43451 27.6811 7.7264C27.5625 8.01829 27.5033 8.33091 27.507 8.64596V11.8438C27.5072 11.9436 27.4877 12.0426 27.4496 12.1349C27.4116 12.2272 27.3556 12.3111 27.285 12.3817C27.2143 12.4523 27.1305 12.5083 27.0381 12.5464C26.9458 12.5845 26.8469 12.604 26.747 12.6037H23.1465C21.8082 12.6037 20.7581 14.0625 20.7581 15.3949C20.7581 16.7273 21.8279 17.9886 23.1465 17.9886H26.747C26.8468 17.9881 26.9457 18.0074 27.038 18.0452C27.1303 18.0831 27.2142 18.1389 27.2848 18.2094C27.3555 18.2798 27.4115 18.3636 27.4496 18.4558C27.4877 18.548 27.5072 18.6469 27.507 18.7466V21.9365C27.4978 22.2558 27.5527 22.5737 27.6686 22.8714C27.7845 23.1691 27.9588 23.4405 28.1814 23.6696C28.4041 23.8987 28.6704 24.0809 28.9646 24.2052C29.2588 24.3296 29.575 24.3937 29.8945 24.3937C30.2139 24.3937 30.5301 24.3296 30.8243 24.2052C31.1186 24.0809 31.3849 23.8987 31.6075 23.6696C31.8301 23.4405 32.0045 23.1691 32.1203 22.8714C32.2362 22.5737 32.2911 22.2558 32.2819 21.9365V18.6993C32.2817 18.5994 32.3012 18.5004 32.3393 18.4081C32.3774 18.3158 32.4333 18.2319 32.504 18.1613C32.5746 18.0907 32.6585 18.0347 32.7508 17.9966C32.8431 17.9585 32.942 17.939 33.0419 17.9393H36.6424C37.9827 17.9393 39.0309 16.6779 39.0309 15.3455C39.0309 14.0131 37.961 12.7518 36.6424 12.7518H33.0419C32.8404 12.7518 32.647 12.6717 32.5045 12.5292C32.362 12.3867 32.2819 12.1934 32.2819 11.9918V8.63609C32.2843 8.32203 32.2242 8.01064 32.1051 7.72003C31.986 7.42942 31.8103 7.16539 31.5882 6.94331C31.3661 6.72123 31.1021 6.54554 30.8115 6.42644C30.5209 6.30734 30.2095 6.24723 29.8954 6.2496Z"
        fill="#FF624E" />
    <path fill-rule="evenodd" clip-rule="evenodd"
        d="M30.1026 30.2013C33.0893 30.2013 36.0088 29.3157 38.4921 27.6564C40.9754 25.9971 42.9109 23.6387 44.0538 20.8795C45.1968 18.1202 45.4958 15.0839 44.9132 12.1547C44.3305 9.22544 42.8923 6.53476 40.7804 4.42289C38.6686 2.31102 35.9779 0.872825 33.0486 0.290162C30.1194 -0.292501 27.0832 0.00654291 24.3239 1.14948C21.5646 2.29241 19.2062 4.2279 17.5469 6.71119C15.8876 9.19449 15.002 12.114 15.002 15.1007C15.0051 19.1047 16.5971 22.9438 19.4283 25.775C22.2596 28.6062 26.0987 30.1982 30.1026 30.2013ZM30.1026 1.57916C32.7769 1.57916 35.3912 2.37218 37.6148 3.85795C39.8384 5.34371 41.5715 7.45548 42.5949 9.92622C43.6183 12.397 43.8861 15.1157 43.3643 17.7386C42.8426 20.3615 41.5548 22.7708 39.6638 24.6618C37.7728 26.5529 35.3635 27.8406 32.7406 28.3624C30.1176 28.8841 27.3989 28.6163 24.9282 27.5929C22.4574 26.5695 20.3457 24.8364 18.8599 22.6128C17.3742 20.3892 16.5811 17.775 16.5811 15.1007C16.5832 11.5152 18.0085 8.07716 20.5438 5.54183C23.0791 3.00651 26.5172 1.58125 30.1026 1.57916ZM59.7236 45.906C59.51 45.3213 59.1833 44.7844 58.7621 44.326C58.3409 43.8677 57.8334 43.4968 57.2688 43.2346C56.7041 42.9725 56.0934 42.8242 55.4714 42.7982C54.8494 42.7723 54.2284 42.8691 53.6439 43.0833L44.4276 46.4607C44.6521 45.9017 44.766 45.3044 44.7631 44.7019C44.7595 43.4466 44.2592 42.2437 43.3715 41.3561C42.4839 40.4684 41.281 39.9681 40.0257 39.9645H31.9779C31.9384 39.9645 31.7193 39.923 31.6246 39.9053C30.4027 39.6783 25.4126 38.7584 22.9984 38.0083C18.7762 36.6858 13.9992 38.3044 12.0055 39.1157C11.9667 38.7244 11.7833 38.3618 11.4913 38.0986C11.1992 37.8353 10.8195 37.6905 10.4264 37.6925H1.57915C1.16034 37.6925 0.758673 37.8588 0.462524 38.155C0.166375 38.4511 0 38.8528 0 39.2716L0 55.2606C0 55.6794 0.166375 56.081 0.462524 56.3772C0.758673 56.6733 1.16034 56.8397 1.57915 56.8397H10.4619C10.8807 56.8397 11.2824 56.6733 11.5785 56.3772C11.8747 56.081 12.0411 55.6794 12.0411 55.2606V54.9842C12.7912 55.0632 19.088 55.754 24.2795 58.6182C25.9376 59.5263 27.9905 60 30.379 60C31.6557 59.9884 32.9296 59.8762 34.1887 59.6644C36.128 59.3371 38.0316 58.8255 39.8737 58.1366L56.9068 51.895C59.3486 51.0817 60.6119 48.3616 59.7236 45.906ZM10.4619 55.3079H1.57915V39.319H10.4619V55.3079ZM56.3502 50.4501L39.2973 56.7094C38.938 56.8496 30.3158 60.2053 25.0474 57.3016C19.246 54.1019 12.0608 53.4505 12.0608 53.4505V40.8606C13.2057 40.3474 18.3379 38.2136 22.5799 39.5381C25.225 40.3672 30.5547 41.3344 31.6206 41.512C31.7577 41.535 31.8962 41.5482 32.0351 41.5515H40.0868C40.9245 41.5515 41.7278 41.8843 42.3201 42.4766C42.9124 43.0689 43.2452 43.8722 43.2452 44.7098C43.2452 45.5475 42.9124 46.3508 42.3201 46.9431C41.7278 47.5354 40.9245 47.8681 40.0868 47.8681H27.276C27.0665 47.8681 26.8657 47.9513 26.7176 48.0994C26.5696 48.2475 26.4864 48.4483 26.4864 48.6577C26.4864 48.8671 26.5696 49.068 26.7176 49.216C26.8657 49.3641 27.0665 49.4473 27.276 49.4473H40.0849C40.6801 49.4485 41.27 49.3346 41.8219 49.1117L54.2163 44.5499C54.6039 44.4042 55.0168 44.3378 55.4305 44.3547C55.8442 44.3717 56.2502 44.4716 56.6245 44.6486C57.0012 44.8222 57.3399 45.0685 57.6211 45.3733C57.9023 45.6782 58.1204 46.0357 58.2629 46.4252C58.5308 47.2133 58.4806 48.0748 58.123 48.8265C57.7654 49.5782 57.1287 50.1607 56.3482 50.4501H56.3502ZM26.4627 18.7327H23.5748C22.6613 18.7327 21.7851 18.3698 21.1392 17.7239C20.4932 17.0779 20.1303 16.2017 20.1303 15.2882C20.1303 14.3747 20.4932 13.4985 21.1392 12.8526C21.7851 12.2066 22.6613 11.8437 23.5748 11.8437H26.4627V8.76432C26.4842 7.86583 26.8562 7.01138 27.4993 6.38352C28.1424 5.75566 29.0055 5.40419 29.9043 5.40419C30.803 5.40419 31.6661 5.75566 32.3092 6.38352C32.9523 7.01138 33.3243 7.86583 33.3458 8.76432V11.8634H36.4331C37.3466 11.8634 38.2228 12.2263 38.8687 12.8723C39.5147 13.5183 39.8776 14.3944 39.8776 15.3079C39.8776 16.2215 39.5147 17.0976 38.8687 17.7436C38.2228 18.3896 37.3466 18.7525 36.4331 18.7525H33.3458V21.6344C33.3243 22.5329 32.9523 23.3874 32.3092 24.0152C31.6661 24.6431 30.803 24.9946 29.9043 24.9946C29.0055 24.9946 28.1424 24.6431 27.4993 24.0152C26.8562 23.3874 26.4842 22.5329 26.4627 21.6344V18.7327ZM27.2523 13.4426H23.5748C23.0801 13.4426 22.6056 13.6391 22.2558 13.9889C21.906 14.3387 21.7094 14.8132 21.7094 15.3079C21.7094 15.8027 21.906 16.2771 22.2558 16.627C22.6056 16.9768 23.0801 17.1733 23.5748 17.1733H27.2542C27.4637 17.1733 27.6645 17.2565 27.8126 17.4046C27.9606 17.5527 28.0438 17.7535 28.0438 17.9629V21.6147C28.0438 22.1079 28.2397 22.5808 28.5884 22.9295C28.9372 23.2782 29.4101 23.4741 29.9033 23.4741C30.3964 23.4741 30.8694 23.2782 31.2181 22.9295C31.5668 22.5808 31.7627 22.1079 31.7627 21.6147V17.9432C31.7627 17.7337 31.8459 17.5329 31.994 17.3848C32.1421 17.2368 32.3429 17.1536 32.5523 17.1536H36.4291C36.6728 17.1536 36.9141 17.1056 37.1392 17.0123C37.3643 16.9191 37.5689 16.7824 37.7412 16.6101C37.9135 16.4378 38.0501 16.2333 38.1434 16.0081C38.2366 15.783 38.2846 15.5417 38.2846 15.2981C38.2846 15.0544 38.2366 14.8131 38.1434 14.588C38.0501 14.3629 37.9135 14.1583 37.7412 13.986C37.5689 13.8137 37.3643 13.6771 37.1392 13.5838C36.9141 13.4906 36.6728 13.4426 36.4291 13.4426H32.5563C32.5022 13.4457 32.448 13.4391 32.3964 13.4228C32.2197 13.3846 32.0611 13.2877 31.9465 13.1479C31.8318 13.0082 31.7677 12.8337 31.7647 12.653V8.78406C31.7647 8.2909 31.5688 7.81794 31.2201 7.46922C30.8714 7.12051 30.3984 6.9246 29.9052 6.9246C29.4121 6.9246 28.9391 7.12051 28.5904 7.46922C28.2417 7.81794 28.0458 8.2909 28.0458 8.78406V12.653C28.0458 12.7568 28.0253 12.8597 27.9855 12.9556C27.9457 13.0515 27.8874 13.1387 27.8138 13.212C27.7403 13.2853 27.653 13.3435 27.557 13.383C27.461 13.4226 27.3581 13.4428 27.2542 13.4426H27.2523Z"
        fill="#445665" />    <path fill-rule="evenodd" clip-rule="evenodd"
        d="M30.1026 30.2013C33.0893 30.2013 36.0088 29.3157 38.4921 27.6564C40.9754 25.9971 42.9109 23.6387 44.0538 20.8795C45.1968 18.1202 45.4958 15.0839 44.9132 12.1547C44.3305 9.22544 42.8923 6.53476 40.7804 4.42289C38.6686 2.31102 35.9779 0.872825 33.0486 0.290162C30.1194 -0.292501 27.0832 0.00654291 24.3239 1.14948C21.5646 2.29241 19.2062 4.2279 17.5469 6.71119C15.8876 9.19449 15.002 12.114 15.002 15.1007C15.0051 19.1047 16.5971 22.9438 19.4283 25.775C22.2596 28.6062 26.0987 30.1982 30.1026 30.2013ZM30.1026 1.57916C32.7769 1.57916 35.3912 2.37218 37.6148 3.85795C39.8384 5.34371 41.5715 7.45548 42.5949 9.92622C43.6183 12.397 43.8861 15.1157 43.3643 17.7386C42.8426 20.3615 41.5548 22.7708 39.6638 24.6618C37.7728 26.5529 35.3635 27.8406 32.7406 28.3624C30.1176 28.8841 27.3989 28.6163 24.9282 27.5929C22.4574 26.5695 20.3457 24.8364 18.8599 22.6128C17.3742 20.3892 16.5811 17.775 16.5811 15.1007C16.5832 11.5152 18.0085 8.07716 20.5438 5.54183C23.0791 3.00651 26.5172 1.58125 30.1026 1.57916ZM59.7236 45.906C59.51 45.3213 59.1833 44.7844 58.7621 44.326C58.3409 43.8677 57.8334 43.4968 57.2688 43.2346C56.7041 42.9725 56.0934 42.8242 55.4714 42.7982C54.8494 42.7723 54.2284 42.8691 53.6439 43.0833L44.4276 46.4607C44.6521 45.9017 44.766 45.3044 44.7631 44.7019C44.7595 43.4466 44.2592 42.2437 43.3715 41.3561C42.4839 40.4684 41.281 39.9681 40.0257 39.9645H31.9779C31.9384 39.9645 31.7193 39.923 31.6246 39.9053C30.4027 39.6783 25.4126 38.7584 22.9984 38.0083C18.7762 36.6858 13.9992 38.3044 12.0055 39.1157C11.9667 38.7244 11.7833 38.3618 11.4913 38.0986C11.1992 37.8353 10.8195 37.6905 10.4264 37.6925H1.57915C1.16034 37.6925 0.758673 37.8588 0.462524 38.155C0.166375 38.4511 0 38.8528 0 39.2716L0 55.2606C0 55.6794 0.166375 56.081 0.462524 56.3772C0.758673 56.6733 1.16034 56.8397 1.57915 56.8397H10.4619C10.8807 56.8397 11.2824 56.6733 11.5785 56.3772C11.8747 56.081 12.0411 55.6794 12.0411 55.2606V54.9842C12.7912 55.0632 19.088 55.754 24.2795 58.6182C25.9376 59.5263 27.9905 60 30.379 60C31.6557 59.9884 32.9296 59.8762 34.1887 59.6644C36.128 59.3371 38.0316 58.8255 39.8737 58.1366L56.9068 51.895C59.3486 51.0817 60.6119 48.3616 59.7236 45.906ZM10.4619 55.3079H1.57915V39.319H10.4619V55.3079ZM56.3502 50.4501L39.2973 56.7094C38.938 56.8496 30.3158 60.2053 25.0474 57.3016C19.246 54.1019 12.0608 53.4505 12.0608 53.4505V40.8606C13.2057 40.3474 18.3379 38.2136 22.5799 39.5381C25.225 40.3672 30.5547 41.3344 31.6206 41.512C31.7577 41.535 31.8962 41.5482 32.0351 41.5515H40.0868C40.9245 41.5515 41.7278 41.8843 42.3201 42.4766C42.9124 43.0689 43.2452 43.8722 43.2452 44.7098C43.2452 45.5475 42.9124 46.3508 42.3201 46.9431C41.7278 47.5354 40.9245 47.8681 40.0868 47.8681H27.276C27.0665 47.8681 26.8657 47.9513 26.7176 48.0994C26.5696 48.2475 26.4864 48.4483 26.4864 48.6577C26.4864 48.8671 26.5696 49.068 26.7176 49.216C26.8657 49.3641 27.0665 49.4473 27.276 49.4473H40.0849C40.6801 49.4485 41.27 49.3346 41.8219 49.1117L54.2163 44.5499C54.6039 44.4042 55.0168 44.3378 55.4305 44.3547C55.8442 44.3717 56.2502 44.4716 56.6245 44.6486C57.0012 44.8222 57.3399 45.0685 57.6211 45.3733C57.9023 45.6782 58.1204 46.0357 58.2629 46.4252C58.5308 47.2133 58.4806 48.0748 58.123 48.8265C57.7654 49.5782 57.1287 50.1607 56.3482 50.4501H56.3502ZM26.4627 18.7327H23.5748C22.6613 18.7327 21.7851 18.3698 21.1392 17.7239C20.4932 17.0779 20.1303 16.2017 20.1303 15.2882C20.1303 14.3747 20.4932 13.4985 21.1392 12.8526C21.7851 12.2066 22.6613 11.8437 23.5748 11.8437H26.4627V8.76432C26.4842 7.86583 26.8562 7.01138 27.4993 6.38352C28.1424 5.75566 29.0055 5.40419 29.9043 5.40419C30.803 5.40419 31.6661 5.75566 32.3092 6.38352C32.9523 7.01138 33.3243 7.86583 33.3458 8.76432V11.8634H36.4331C37.3466 11.8634 38.2228 12.2263 38.8687 12.8723C39.5147 13.5183 39.8776 14.3944 39.8776 15.3079C39.8776 16.2215 39.5147 17.0976 38.8687 17.7436C38.2228 18.3896 37.3466 18.7525 36.4331 18.7525H33.3458V21.6344C33.3243 22.5329 32.9523 23.3874 32.3092 24.0152C31.6661 24.6431 30.803 24.9946 29.9043 24.9946C29.0055 24.9946 28.1424 24.6431 27.4993 24.0152C26.8562 23.3874 26.4842 22.5329 26.4627 21.6344V18.7327ZM27.2523 13.4426H23.5748C23.0801 13.4426 22.6056 13.6391 22.2558 13.9889C21.906 14.3387 21.7094 14.8132 21.7094 15.3079C21.7094 15.8027 21.906 16.2771 22.2558 16.627C22.6056 16.9768 23.0801 17.1733 23.5748 17.1733H27.2542C27.4637 17.1733 27.6645 17.2565 27.8126 17.4046C27.9606 17.5527 28.0438 17.7535 28.0438 17.9629V21.6147C28.0438 22.1079 28.2397 22.5808 28.5884 22.9295C28.9372 23.2782 29.4101 23.4741 29.9033 23.4741C30.3964 23.4741 30.8694 23.2782 31.2181 22.9295C31.5668 22.5808 31.7627 22.1079 31.7627 21.6147V17.9432C31.7627 17.7337 31.8459 17.5329 31.994 17.3848C32.1421 17.2368 32.3429 17.1536 32.5523 17.1536H36.4291C36.6728 17.1536 36.9141 17.1056 37.1392 17.0123C37.3643 16.9191 37.5689 16.7824 37.7412 16.6101C37.9135 16.4378 38.0501 16.2333 38.1434 16.0081C38.2366 15.783 38.2846 15.5417 38.2846 15.2981C38.2846 15.0544 38.2366 14.8131 38.1434 14.588C38.0501 14.3629 37.9135 14.1583 37.7412 13.986C37.5689 13.8137 37.3643 13.6771 37.1392 13.5838C36.9141 13.4906 36.6728 13.4426 36.4291 13.4426H32.5563C32.5022 13.4457 32.448 13.4391 32.3964 13.4228C32.2197 13.3846 32.0611 13.2877 31.9465 13.1479C31.8318 13.0082 31.7677 12.8337 31.7647 12.653V8.78406C31.7647 8.2909 31.5688 7.81794 31.2201 7.46922C30.8714 7.12051 30.3984 6.9246 29.9052 6.9246C29.4121 6.9246 28.9391 7.12051 28.5904 7.46922C28.2417 7.81794 28.0458 8.2909 28.0458 8.78406V12.653C28.0458 12.7568 28.0253 12.8597 27.9855 12.9556C27.9457 13.0515 27.8874 13.1387 27.8138 13.212C27.7403 13.2853 27.653 13.3435 27.557 13.383C27.461 13.4226 27.3581 13.4428 27.2542 13.4426H27.2523Z"
        fill="#445665" />
</svg>